<svg xmlns="http://www.w3.org/2000/svg" viewBox="0 0 1200 630" width="1200" height="630" role="img" aria-label="تعلم الذكاء الاصطناعي">
  <defs>
    <linearGradient id="g34850" x1="0" y1="0" x2="1" y2="1">
      <stop offset="0" stop-color="#34308F"/>
      <stop offset="1" stop-color="#221E66"/>
    </linearGradient>
    <radialGradient id="g34850r" cx="0.75" cy="0.25" r="0.9">
      <stop offset="0" stop-color="#7B6FE0" stop-opacity="0.35"/>
      <stop offset="0.6" stop-color="#7B6FE0" stop-opacity="0"/>
    </radialGradient>
  </defs>
  <rect width="1200" height="630" fill="url(#g34850)"/>
  <rect width="1200" height="630" fill="url(#g34850r)"/>
  <line x1="516" y1="262" x2="516" y2="393" stroke="#7B6FE0" stroke-width="1.2" opacity="0.22"/><line x1="516" y1="262" x2="510" y2="409" stroke="#7B6FE0" stroke-width="1.2" opacity="0.2"/><line x1="516" y1="262" x2="711" y2="190" stroke="#7B6FE0" stroke-width="1.2" opacity="0.15"/><line x1="74" y1="142" x2="114" y2="188" stroke="#7B6FE0" stroke-width="1.2" opacity="0.27"/><line x1="74" y1="142" x2="114" y2="140" stroke="#7B6FE0" stroke-width="1.2" opacity="0.29"/><line x1="74" y1="142" x2="152" y2="419" stroke="#7B6FE0" stroke-width="1.2" opacity="0.09"/><line x1="936" y1="432" x2="711" y2="190" stroke="#7B6FE0" stroke-width="1.2" opacity="0.06"/><line x1="281" y1="541" x2="516" y2="393" stroke="#7B6FE0" stroke-width="1.2" opacity="0.1"/><line x1="281" y1="541" x2="510" y2="409" stroke="#7B6FE0" stroke-width="1.2" opacity="0.11"/><line x1="281" y1="541" x2="245" y2="548" stroke="#7B6FE0" stroke-width="1.2" opacity="0.29"/><line x1="281" y1="541" x2="152" y2="419" stroke="#7B6FE0" stroke-width="1.2" opacity="0.18"/><line x1="516" y1="393" x2="510" y2="409" stroke="#7B6FE0" stroke-width="1.2" opacity="0.31"/><line x1="516" y1="393" x2="245" y2="548" stroke="#7B6FE0" stroke-width="1.2" opacity="0.07"/><line x1="516" y1="393" x2="711" y2="190" stroke="#7B6FE0" stroke-width="1.2" opacity="0.1"/><line x1="114" y1="188" x2="114" y2="140" stroke="#7B6FE0" stroke-width="1.2" opacity="0.28"/><line x1="114" y1="188" x2="152" y2="419" stroke="#7B6FE0" stroke-width="1.2" opacity="0.13"/><line x1="510" y1="409" x2="245" y2="548" stroke="#7B6FE0" stroke-width="1.2" opacity="0.08"/><line x1="510" y1="409" x2="711" y2="190" stroke="#7B6FE0" stroke-width="1.2" opacity="0.08"/><line x1="245" y1="548" x2="152" y2="419" stroke="#7B6FE0" stroke-width="1.2" opacity="0.19"/><line x1="114" y1="140" x2="152" y2="419" stroke="#7B6FE0" stroke-width="1.2" opacity="0.1"/><circle cx="516" cy="262" r="4" fill="#7B6FE0" opacity="0.55"/><circle cx="74" cy="142" r="2.5" fill="#7B6FE0" opacity="0.55"/><circle cx="936" cy="432" r="2.5" fill="#7B6FE0" opacity="0.55"/><circle cx="281" cy="541" r="3" fill="#7B6FE0" opacity="0.55"/><circle cx="516" cy="393" r="4" fill="#7B6FE0" opacity="0.55"/><circle cx="114" cy="188" r="4" fill="#7B6FE0" opacity="0.55"/><circle cx="510" cy="409" r="4" fill="#7B6FE0" opacity="0.55"/><circle cx="245" cy="548" r="4" fill="#7B6FE0" opacity="0.55"/><circle cx="114" cy="140" r="2.5" fill="#7B6FE0" opacity="0.55"/><circle cx="711" cy="190" r="4" fill="#7B6FE0" opacity="0.55"/><circle cx="152" cy="419" r="2.5" fill="#7B6FE0" opacity="0.55"/>
  <circle cx="1070" cy="120" r="54" fill="#FBFAF6" opacity="0.12"/>
  <text x="1070" y="120" font-size="52" text-anchor="middle" dominant-baseline="central">🎓</text>
  <g font-family="'Changa','Segoe UI',sans-serif" fill="#FBFAF6">
    <rect x="64" y="480" width="14" height="86" rx="4" fill="#7B6FE0"/>
    <text x="92" y="520" font-size="30" font-weight="700" opacity="0.92">تعلم الذكاء الاصطناعي</text>
    <text x="92" y="564" font-size="22" opacity="0.6">nawahlabs.com · نَوَاة</text>
  </g>
</svg>