<svg xmlns="http://www.w3.org/2000/svg" viewBox="0 0 1200 630" width="1200" height="630" role="img" aria-label="ChatGPT">
  <defs>
    <linearGradient id="g52508" x1="0" y1="0" x2="1" y2="1">
      <stop offset="0" stop-color="#0E8F8F"/>
      <stop offset="1" stop-color="#221E66"/>
    </linearGradient>
    <radialGradient id="g52508r" cx="0.75" cy="0.25" r="0.9">
      <stop offset="0" stop-color="#34D3C0" stop-opacity="0.35"/>
      <stop offset="0.6" stop-color="#34D3C0" stop-opacity="0"/>
    </radialGradient>
  </defs>
  <rect width="1200" height="630" fill="url(#g52508)"/>
  <rect width="1200" height="630" fill="url(#g52508r)"/>
  <line x1="818" y1="187" x2="805" y2="93" stroke="#34D3C0" stroke-width="1.2" opacity="0.24"/><line x1="818" y1="187" x2="776" y2="210" stroke="#34D3C0" stroke-width="1.2" opacity="0.28"/><line x1="818" y1="187" x2="655" y2="138" stroke="#34D3C0" stroke-width="1.2" opacity="0.18"/><line x1="818" y1="187" x2="1014" y2="425" stroke="#34D3C0" stroke-width="1.2" opacity="0.08"/><line x1="818" y1="187" x2="1003" y2="452" stroke="#34D3C0" stroke-width="1.2" opacity="0.06"/><line x1="805" y1="93" x2="776" y2="210" stroke="#34D3C0" stroke-width="1.2" opacity="0.22"/><line x1="805" y1="93" x2="655" y2="138" stroke="#34D3C0" stroke-width="1.2" opacity="0.2"/><line x1="307" y1="541" x2="306" y2="308" stroke="#34D3C0" stroke-width="1.2" opacity="0.13"/><line x1="307" y1="541" x2="454" y2="354" stroke="#34D3C0" stroke-width="1.2" opacity="0.13"/><line x1="307" y1="541" x2="448" y2="322" stroke="#34D3C0" stroke-width="1.2" opacity="0.11"/><line x1="776" y1="210" x2="655" y2="138" stroke="#34D3C0" stroke-width="1.2" opacity="0.21"/><line x1="776" y1="210" x2="1014" y2="425" stroke="#34D3C0" stroke-width="1.2" opacity="0.07"/><line x1="776" y1="210" x2="1003" y2="452" stroke="#34D3C0" stroke-width="1.2" opacity="0.06"/><line x1="655" y1="138" x2="454" y2="354" stroke="#34D3C0" stroke-width="1.2" opacity="0.09"/><line x1="655" y1="138" x2="448" y2="322" stroke="#34D3C0" stroke-width="1.2" opacity="0.1"/><line x1="1014" y1="425" x2="1088" y2="483" stroke="#34D3C0" stroke-width="1.2" opacity="0.25"/><line x1="1014" y1="425" x2="1003" y2="452" stroke="#34D3C0" stroke-width="1.2" opacity="0.3"/><line x1="306" y1="308" x2="454" y2="354" stroke="#34D3C0" stroke-width="1.2" opacity="0.2"/><line x1="306" y1="308" x2="448" y2="322" stroke="#34D3C0" stroke-width="1.2" opacity="0.21"/><line x1="454" y1="354" x2="448" y2="322" stroke="#34D3C0" stroke-width="1.2" opacity="0.29"/><line x1="1088" y1="483" x2="1003" y2="452" stroke="#34D3C0" stroke-width="1.2" opacity="0.25"/><circle cx="818" cy="187" r="4" fill="#34D3C0" opacity="0.55"/><circle cx="805" cy="93" r="4" fill="#34D3C0" opacity="0.55"/><circle cx="307" cy="541" r="4" fill="#34D3C0" opacity="0.55"/><circle cx="776" cy="210" r="2.5" fill="#34D3C0" opacity="0.55"/><circle cx="655" cy="138" r="3" fill="#34D3C0" opacity="0.55"/><circle cx="1014" cy="425" r="2.5" fill="#34D3C0" opacity="0.55"/><circle cx="306" cy="308" r="3" fill="#34D3C0" opacity="0.55"/><circle cx="454" cy="354" r="4" fill="#34D3C0" opacity="0.55"/><circle cx="448" cy="322" r="4" fill="#34D3C0" opacity="0.55"/><circle cx="1088" cy="483" r="4" fill="#34D3C0" opacity="0.55"/><circle cx="1003" cy="452" r="3" fill="#34D3C0" opacity="0.55"/>
  <circle cx="1070" cy="120" r="54" fill="#FBFAF6" opacity="0.12"/>
  <text x="1070" y="120" font-size="52" text-anchor="middle" dominant-baseline="central">💬</text>
  <g font-family="'Changa','Segoe UI',sans-serif" fill="#FBFAF6">
    <rect x="64" y="480" width="14" height="86" rx="4" fill="#34D3C0"/>
    <text x="92" y="520" font-size="30" font-weight="700" opacity="0.92">ChatGPT</text>
    <text x="92" y="564" font-size="22" opacity="0.6">nawahlabs.com · نَوَاة</text>
  </g>
</svg>