<svg xmlns="http://www.w3.org/2000/svg" viewBox="0 0 1200 630" width="1200" height="630" role="img" aria-label="ChatGPT">
  <defs>
    <linearGradient id="g25866" x1="0" y1="0" x2="1" y2="1">
      <stop offset="0" stop-color="#0E8F8F"/>
      <stop offset="1" stop-color="#221E66"/>
    </linearGradient>
    <radialGradient id="g25866r" cx="0.75" cy="0.25" r="0.9">
      <stop offset="0" stop-color="#34D3C0" stop-opacity="0.35"/>
      <stop offset="0.6" stop-color="#34D3C0" stop-opacity="0"/>
    </radialGradient>
  </defs>
  <rect width="1200" height="630" fill="url(#g25866)"/>
  <rect width="1200" height="630" fill="url(#g25866r)"/>
  <line x1="253" y1="534" x2="86" y2="275" stroke="#34D3C0" stroke-width="1.2" opacity="0.08"/><line x1="253" y1="534" x2="459" y2="498" stroke="#34D3C0" stroke-width="1.2" opacity="0.15"/><line x1="253" y1="534" x2="184" y2="411" stroke="#34D3C0" stroke-width="1.2" opacity="0.21"/><line x1="998" y1="550" x2="944" y2="556" stroke="#34D3C0" stroke-width="1.2" opacity="0.28"/><line x1="998" y1="550" x2="949" y2="531" stroke="#34D3C0" stroke-width="1.2" opacity="0.28"/><line x1="721" y1="67" x2="1005" y2="148" stroke="#34D3C0" stroke-width="1.2" opacity="0.09"/><line x1="721" y1="67" x2="573" y2="331" stroke="#34D3C0" stroke-width="1.2" opacity="0.08"/><line x1="721" y1="67" x2="452" y2="221" stroke="#34D3C0" stroke-width="1.2" opacity="0.07"/><line x1="86" y1="275" x2="184" y2="411" stroke="#34D3C0" stroke-width="1.2" opacity="0.19"/><line x1="459" y1="498" x2="184" y2="411" stroke="#34D3C0" stroke-width="1.2" opacity="0.09"/><line x1="459" y1="498" x2="573" y2="331" stroke="#34D3C0" stroke-width="1.2" opacity="0.16"/><line x1="459" y1="498" x2="452" y2="221" stroke="#34D3C0" stroke-width="1.2" opacity="0.1"/><line x1="184" y1="411" x2="452" y2="221" stroke="#34D3C0" stroke-width="1.2" opacity="0.06"/><line x1="573" y1="331" x2="452" y2="221" stroke="#34D3C0" stroke-width="1.2" opacity="0.19"/><line x1="944" y1="556" x2="949" y2="531" stroke="#34D3C0" stroke-width="1.2" opacity="0.3"/><circle cx="253" cy="534" r="3" fill="#34D3C0" opacity="0.55"/><circle cx="998" cy="550" r="4" fill="#34D3C0" opacity="0.55"/><circle cx="721" cy="67" r="3" fill="#34D3C0" opacity="0.55"/><circle cx="86" cy="275" r="2.5" fill="#34D3C0" opacity="0.55"/><circle cx="459" cy="498" r="3" fill="#34D3C0" opacity="0.55"/><circle cx="184" cy="411" r="4" fill="#34D3C0" opacity="0.55"/><circle cx="1005" cy="148" r="2.5" fill="#34D3C0" opacity="0.55"/><circle cx="573" cy="331" r="4" fill="#34D3C0" opacity="0.55"/><circle cx="452" cy="221" r="4" fill="#34D3C0" opacity="0.55"/><circle cx="944" cy="556" r="2.5" fill="#34D3C0" opacity="0.55"/><circle cx="949" cy="531" r="4" fill="#34D3C0" opacity="0.55"/>
  <circle cx="1070" cy="120" r="54" fill="#FBFAF6" opacity="0.12"/>
  <text x="1070" y="120" font-size="52" text-anchor="middle" dominant-baseline="central">💬</text>
  <g font-family="'Changa','Segoe UI',sans-serif" fill="#FBFAF6">
    <rect x="64" y="480" width="14" height="86" rx="4" fill="#34D3C0"/>
    <text x="92" y="520" font-size="30" font-weight="700" opacity="0.92">ChatGPT</text>
    <text x="92" y="564" font-size="22" opacity="0.6">nawahlabs.com · نَوَاة</text>
  </g>
</svg>