<svg xmlns="http://www.w3.org/2000/svg" viewBox="0 0 1200 630" width="1200" height="630" role="img" aria-label="الربح من الذكاء الاصطناعي">
  <defs>
    <linearGradient id="g19167" x1="0" y1="0" x2="1" y2="1">
      <stop offset="0" stop-color="#0E8F8F"/>
      <stop offset="1" stop-color="#221E66"/>
    </linearGradient>
    <radialGradient id="g19167r" cx="0.75" cy="0.25" r="0.9">
      <stop offset="0" stop-color="#D98E2B" stop-opacity="0.35"/>
      <stop offset="0.6" stop-color="#D98E2B" stop-opacity="0"/>
    </radialGradient>
  </defs>
  <rect width="1200" height="630" fill="url(#g19167)"/>
  <rect width="1200" height="630" fill="url(#g19167r)"/>
  <line x1="901" y1="192" x2="1085" y2="160" stroke="#D98E2B" stroke-width="1.2" opacity="0.17"/><line x1="901" y1="192" x2="919" y2="467" stroke="#D98E2B" stroke-width="1.2" opacity="0.1"/><line x1="901" y1="192" x2="939" y2="351" stroke="#D98E2B" stroke-width="1.2" opacity="0.19"/><line x1="330" y1="207" x2="400" y2="466" stroke="#D98E2B" stroke-width="1.2" opacity="0.11"/><line x1="330" y1="207" x2="417" y2="467" stroke="#D98E2B" stroke-width="1.2" opacity="0.1"/><line x1="330" y1="207" x2="94" y2="370" stroke="#D98E2B" stroke-width="1.2" opacity="0.09"/><line x1="330" y1="207" x2="348" y2="312" stroke="#D98E2B" stroke-width="1.2" opacity="0.24"/><line x1="330" y1="207" x2="229" y2="237" stroke="#D98E2B" stroke-width="1.2" opacity="0.24"/><line x1="330" y1="207" x2="223" y2="411" stroke="#D98E2B" stroke-width="1.2" opacity="0.14"/><line x1="400" y1="466" x2="417" y2="467" stroke="#D98E2B" stroke-width="1.2" opacity="0.31"/><line x1="400" y1="466" x2="94" y2="370" stroke="#D98E2B" stroke-width="1.2" opacity="0.07"/><line x1="400" y1="466" x2="348" y2="312" stroke="#D98E2B" stroke-width="1.2" opacity="0.19"/><line x1="400" y1="466" x2="229" y2="237" stroke="#D98E2B" stroke-width="1.2" opacity="0.09"/><line x1="400" y1="466" x2="223" y2="411" stroke="#D98E2B" stroke-width="1.2" opacity="0.17"/><line x1="417" y1="467" x2="94" y2="370" stroke="#D98E2B" stroke-width="1.2" opacity="0.05"/><line x1="417" y1="467" x2="348" y2="312" stroke="#D98E2B" stroke-width="1.2" opacity="0.19"/><line x1="417" y1="467" x2="229" y2="237" stroke="#D98E2B" stroke-width="1.2" opacity="0.08"/><line x1="417" y1="467" x2="223" y2="411" stroke="#D98E2B" stroke-width="1.2" opacity="0.16"/><line x1="94" y1="370" x2="348" y2="312" stroke="#D98E2B" stroke-width="1.2" opacity="0.11"/><line x1="94" y1="370" x2="229" y2="237" stroke="#D98E2B" stroke-width="1.2" opacity="0.17"/><line x1="94" y1="370" x2="223" y2="411" stroke="#D98E2B" stroke-width="1.2" opacity="0.21"/><line x1="348" y1="312" x2="229" y2="237" stroke="#D98E2B" stroke-width="1.2" opacity="0.21"/><line x1="348" y1="312" x2="223" y2="411" stroke="#D98E2B" stroke-width="1.2" opacity="0.19"/><line x1="1085" y1="160" x2="939" y2="351" stroke="#D98E2B" stroke-width="1.2" opacity="0.13"/><line x1="919" y1="467" x2="939" y2="351" stroke="#D98E2B" stroke-width="1.2" opacity="0.23"/><line x1="229" y1="237" x2="223" y2="411" stroke="#D98E2B" stroke-width="1.2" opacity="0.18"/><circle cx="901" cy="192" r="3" fill="#D98E2B" opacity="0.55"/><circle cx="330" cy="207" r="3" fill="#D98E2B" opacity="0.55"/><circle cx="400" cy="466" r="4" fill="#D98E2B" opacity="0.55"/><circle cx="417" cy="467" r="3" fill="#D98E2B" opacity="0.55"/><circle cx="94" cy="370" r="4" fill="#D98E2B" opacity="0.55"/><circle cx="348" cy="312" r="4" fill="#D98E2B" opacity="0.55"/><circle cx="1085" cy="160" r="4" fill="#D98E2B" opacity="0.55"/><circle cx="919" cy="467" r="4" fill="#D98E2B" opacity="0.55"/><circle cx="229" cy="237" r="2.5" fill="#D98E2B" opacity="0.55"/><circle cx="223" cy="411" r="3" fill="#D98E2B" opacity="0.55"/><circle cx="939" cy="351" r="2.5" fill="#D98E2B" opacity="0.55"/>
  <circle cx="1070" cy="120" r="54" fill="#FBFAF6" opacity="0.12"/>
  <text x="1070" y="120" font-size="52" text-anchor="middle" dominant-baseline="central">📈</text>
  <g font-family="'Changa','Segoe UI',sans-serif" fill="#FBFAF6">
    <rect x="64" y="480" width="14" height="86" rx="4" fill="#D98E2B"/>
    <text x="92" y="520" font-size="30" font-weight="700" opacity="0.92">الربح من الذكاء الاصطناعي</text>
    <text x="92" y="564" font-size="22" opacity="0.6">nawahlabs.com · نَوَاة</text>
  </g>
</svg>