<svg xmlns="http://www.w3.org/2000/svg" viewBox="0 0 1200 630" width="1200" height="630" role="img" aria-label="ChatGPT">
  <defs>
    <linearGradient id="g53139" x1="0" y1="0" x2="1" y2="1">
      <stop offset="0" stop-color="#0E8F8F"/>
      <stop offset="1" stop-color="#221E66"/>
    </linearGradient>
    <radialGradient id="g53139r" cx="0.75" cy="0.25" r="0.9">
      <stop offset="0" stop-color="#34D3C0" stop-opacity="0.35"/>
      <stop offset="0.6" stop-color="#34D3C0" stop-opacity="0"/>
    </radialGradient>
  </defs>
  <rect width="1200" height="630" fill="url(#g53139)"/>
  <rect width="1200" height="630" fill="url(#g53139r)"/>
  <line x1="424" y1="264" x2="572" y2="79" stroke="#34D3C0" stroke-width="1.2" opacity="0.13"/><line x1="424" y1="264" x2="336" y2="118" stroke="#34D3C0" stroke-width="1.2" opacity="0.18"/><line x1="424" y1="264" x2="509" y2="114" stroke="#34D3C0" stroke-width="1.2" opacity="0.18"/><line x1="424" y1="264" x2="295" y2="105" stroke="#34D3C0" stroke-width="1.2" opacity="0.16"/><line x1="424" y1="264" x2="530" y2="534" stroke="#34D3C0" stroke-width="1.2" opacity="0.09"/><line x1="424" y1="264" x2="471" y2="398" stroke="#34D3C0" stroke-width="1.2" opacity="0.21"/><line x1="424" y1="264" x2="117" y2="192" stroke="#34D3C0" stroke-width="1.2" opacity="0.07"/><line x1="572" y1="79" x2="336" y2="118" stroke="#34D3C0" stroke-width="1.2" opacity="0.13"/><line x1="572" y1="79" x2="509" y2="114" stroke="#34D3C0" stroke-width="1.2" opacity="0.26"/><line x1="572" y1="79" x2="295" y2="105" stroke="#34D3C0" stroke-width="1.2" opacity="0.1"/><line x1="572" y1="79" x2="822" y2="141" stroke="#34D3C0" stroke-width="1.2" opacity="0.12"/><line x1="572" y1="79" x2="471" y2="398" stroke="#34D3C0" stroke-width="1.2" opacity="0.05"/><line x1="336" y1="118" x2="509" y2="114" stroke="#34D3C0" stroke-width="1.2" opacity="0.18"/><line x1="336" y1="118" x2="295" y2="105" stroke="#34D3C0" stroke-width="1.2" opacity="0.29"/><line x1="336" y1="118" x2="471" y2="398" stroke="#34D3C0" stroke-width="1.2" opacity="0.07"/><line x1="336" y1="118" x2="117" y2="192" stroke="#34D3C0" stroke-width="1.2" opacity="0.14"/><line x1="509" y1="114" x2="295" y2="105" stroke="#34D3C0" stroke-width="1.2" opacity="0.15"/><line x1="509" y1="114" x2="822" y2="141" stroke="#34D3C0" stroke-width="1.2" opacity="0.07"/><line x1="509" y1="114" x2="471" y2="398" stroke="#34D3C0" stroke-width="1.2" opacity="0.09"/><line x1="787" y1="460" x2="822" y2="141" stroke="#34D3C0" stroke-width="1.2" opacity="0.07"/><line x1="787" y1="460" x2="530" y2="534" stroke="#34D3C0" stroke-width="1.2" opacity="0.11"/><line x1="787" y1="460" x2="798" y2="472" stroke="#34D3C0" stroke-width="1.2" opacity="0.31"/><line x1="787" y1="460" x2="471" y2="398" stroke="#34D3C0" stroke-width="1.2" opacity="0.06"/><line x1="295" y1="105" x2="117" y2="192" stroke="#34D3C0" stroke-width="1.2" opacity="0.16"/><line x1="822" y1="141" x2="798" y2="472" stroke="#34D3C0" stroke-width="1.2" opacity="0.06"/><line x1="530" y1="534" x2="798" y2="472" stroke="#34D3C0" stroke-width="1.2" opacity="0.1"/><line x1="530" y1="534" x2="471" y2="398" stroke="#34D3C0" stroke-width="1.2" opacity="0.2"/><line x1="798" y1="472" x2="471" y2="398" stroke="#34D3C0" stroke-width="1.2" opacity="0.05"/><circle cx="424" cy="264" r="2.5" fill="#34D3C0" opacity="0.55"/><circle cx="572" cy="79" r="4" fill="#34D3C0" opacity="0.55"/><circle cx="336" cy="118" r="3" fill="#34D3C0" opacity="0.55"/><circle cx="509" cy="114" r="3" fill="#34D3C0" opacity="0.55"/><circle cx="787" cy="460" r="4" fill="#34D3C0" opacity="0.55"/><circle cx="295" cy="105" r="3" fill="#34D3C0" opacity="0.55"/><circle cx="822" cy="141" r="4" fill="#34D3C0" opacity="0.55"/><circle cx="530" cy="534" r="4" fill="#34D3C0" opacity="0.55"/><circle cx="798" cy="472" r="4" fill="#34D3C0" opacity="0.55"/><circle cx="471" cy="398" r="3" fill="#34D3C0" opacity="0.55"/><circle cx="117" cy="192" r="4" fill="#34D3C0" opacity="0.55"/>
  <circle cx="1070" cy="120" r="54" fill="#FBFAF6" opacity="0.12"/>
  <text x="1070" y="120" font-size="52" text-anchor="middle" dominant-baseline="central">💬</text>
  <g font-family="'Changa','Segoe UI',sans-serif" fill="#FBFAF6">
    <rect x="64" y="480" width="14" height="86" rx="4" fill="#34D3C0"/>
    <text x="92" y="520" font-size="30" font-weight="700" opacity="0.92">ChatGPT</text>
    <text x="92" y="564" font-size="22" opacity="0.6">nawahlabs.com · نَوَاة</text>
  </g>
</svg>