<svg xmlns="http://www.w3.org/2000/svg" viewBox="0 0 1200 630" width="1200" height="630" role="img" aria-label="تعلم الذكاء الاصطناعي">
  <defs>
    <linearGradient id="g23972" x1="0" y1="0" x2="1" y2="1">
      <stop offset="0" stop-color="#34308F"/>
      <stop offset="1" stop-color="#221E66"/>
    </linearGradient>
    <radialGradient id="g23972r" cx="0.75" cy="0.25" r="0.9">
      <stop offset="0" stop-color="#7B6FE0" stop-opacity="0.35"/>
      <stop offset="0.6" stop-color="#7B6FE0" stop-opacity="0"/>
    </radialGradient>
  </defs>
  <rect width="1200" height="630" fill="url(#g23972)"/>
  <rect width="1200" height="630" fill="url(#g23972r)"/>
  <line x1="967" y1="484" x2="898" y2="160" stroke="#7B6FE0" stroke-width="1.2" opacity="0.06"/><line x1="967" y1="484" x2="690" y2="321" stroke="#7B6FE0" stroke-width="1.2" opacity="0.06"/><line x1="967" y1="484" x2="742" y2="466" stroke="#7B6FE0" stroke-width="1.2" opacity="0.14"/><line x1="967" y1="484" x2="1000" y2="308" stroke="#7B6FE0" stroke-width="1.2" opacity="0.18"/><line x1="579" y1="214" x2="357" y2="66" stroke="#7B6FE0" stroke-width="1.2" opacity="0.11"/><line x1="579" y1="214" x2="541" y2="234" stroke="#7B6FE0" stroke-width="1.2" opacity="0.29"/><line x1="579" y1="214" x2="898" y2="160" stroke="#7B6FE0" stroke-width="1.2" opacity="0.06"/><line x1="579" y1="214" x2="400" y2="493" stroke="#7B6FE0" stroke-width="1.2" opacity="0.06"/><line x1="579" y1="214" x2="690" y2="321" stroke="#7B6FE0" stroke-width="1.2" opacity="0.2"/><line x1="579" y1="214" x2="742" y2="466" stroke="#7B6FE0" stroke-width="1.2" opacity="0.08"/><line x1="579" y1="214" x2="441" y2="378" stroke="#7B6FE0" stroke-width="1.2" opacity="0.15"/><line x1="579" y1="214" x2="542" y2="183" stroke="#7B6FE0" stroke-width="1.2" opacity="0.28"/><line x1="357" y1="66" x2="541" y2="234" stroke="#7B6FE0" stroke-width="1.2" opacity="0.12"/><line x1="357" y1="66" x2="441" y2="378" stroke="#7B6FE0" stroke-width="1.2" opacity="0.06"/><line x1="357" y1="66" x2="542" y2="183" stroke="#7B6FE0" stroke-width="1.2" opacity="0.15"/><line x1="541" y1="234" x2="400" y2="493" stroke="#7B6FE0" stroke-width="1.2" opacity="0.09"/><line x1="541" y1="234" x2="690" y2="321" stroke="#7B6FE0" stroke-width="1.2" opacity="0.18"/><line x1="541" y1="234" x2="742" y2="466" stroke="#7B6FE0" stroke-width="1.2" opacity="0.08"/><line x1="541" y1="234" x2="441" y2="378" stroke="#7B6FE0" stroke-width="1.2" opacity="0.18"/><line x1="541" y1="234" x2="542" y2="183" stroke="#7B6FE0" stroke-width="1.2" opacity="0.28"/><line x1="898" y1="160" x2="690" y2="321" stroke="#7B6FE0" stroke-width="1.2" opacity="0.11"/><line x1="898" y1="160" x2="1000" y2="308" stroke="#7B6FE0" stroke-width="1.2" opacity="0.18"/><line x1="400" y1="493" x2="690" y2="321" stroke="#7B6FE0" stroke-width="1.2" opacity="0.05"/><line x1="400" y1="493" x2="441" y2="378" stroke="#7B6FE0" stroke-width="1.2" opacity="0.22"/><line x1="690" y1="321" x2="742" y2="466" stroke="#7B6FE0" stroke-width="1.2" opacity="0.2"/><line x1="690" y1="321" x2="441" y2="378" stroke="#7B6FE0" stroke-width="1.2" opacity="0.12"/><line x1="690" y1="321" x2="1000" y2="308" stroke="#7B6FE0" stroke-width="1.2" opacity="0.07"/><line x1="690" y1="321" x2="542" y2="183" stroke="#7B6FE0" stroke-width="1.2" opacity="0.16"/><line x1="742" y1="466" x2="441" y2="378" stroke="#7B6FE0" stroke-width="1.2" opacity="0.07"/><line x1="742" y1="466" x2="1000" y2="308" stroke="#7B6FE0" stroke-width="1.2" opacity="0.08"/><line x1="441" y1="378" x2="542" y2="183" stroke="#7B6FE0" stroke-width="1.2" opacity="0.15"/><circle cx="967" cy="484" r="4" fill="#7B6FE0" opacity="0.55"/><circle cx="579" cy="214" r="3" fill="#7B6FE0" opacity="0.55"/><circle cx="357" cy="66" r="4" fill="#7B6FE0" opacity="0.55"/><circle cx="541" cy="234" r="3" fill="#7B6FE0" opacity="0.55"/><circle cx="898" cy="160" r="4" fill="#7B6FE0" opacity="0.55"/><circle cx="400" cy="493" r="2.5" fill="#7B6FE0" opacity="0.55"/><circle cx="690" cy="321" r="4" fill="#7B6FE0" opacity="0.55"/><circle cx="742" cy="466" r="3" fill="#7B6FE0" opacity="0.55"/><circle cx="441" cy="378" r="3" fill="#7B6FE0" opacity="0.55"/><circle cx="1000" cy="308" r="2.5" fill="#7B6FE0" opacity="0.55"/><circle cx="542" cy="183" r="4" fill="#7B6FE0" opacity="0.55"/>
  <circle cx="1070" cy="120" r="54" fill="#FBFAF6" opacity="0.12"/>
  <text x="1070" y="120" font-size="52" text-anchor="middle" dominant-baseline="central">🎓</text>
  <g font-family="'Changa','Segoe UI',sans-serif" fill="#FBFAF6">
    <rect x="64" y="480" width="14" height="86" rx="4" fill="#7B6FE0"/>
    <text x="92" y="520" font-size="30" font-weight="700" opacity="0.92">تعلم الذكاء الاصطناعي</text>
    <text x="92" y="564" font-size="22" opacity="0.6">nawahlabs.com · نَوَاة</text>
  </g>
</svg>