<svg xmlns="http://www.w3.org/2000/svg" viewBox="0 0 1200 630" width="1200" height="630" role="img" aria-label="تعلم الذكاء الاصطناعي">
  <defs>
    <linearGradient id="g26582" x1="0" y1="0" x2="1" y2="1">
      <stop offset="0" stop-color="#34308F"/>
      <stop offset="1" stop-color="#221E66"/>
    </linearGradient>
    <radialGradient id="g26582r" cx="0.75" cy="0.25" r="0.9">
      <stop offset="0" stop-color="#7B6FE0" stop-opacity="0.35"/>
      <stop offset="0.6" stop-color="#7B6FE0" stop-opacity="0"/>
    </radialGradient>
  </defs>
  <rect width="1200" height="630" fill="url(#g26582)"/>
  <rect width="1200" height="630" fill="url(#g26582r)"/>
  <line x1="508" y1="331" x2="657" y2="405" stroke="#7B6FE0" stroke-width="1.2" opacity="0.19"/><line x1="508" y1="331" x2="599" y2="358" stroke="#7B6FE0" stroke-width="1.2" opacity="0.24"/><line x1="508" y1="331" x2="773" y2="298" stroke="#7B6FE0" stroke-width="1.2" opacity="0.11"/><line x1="508" y1="331" x2="562" y2="268" stroke="#7B6FE0" stroke-width="1.2" opacity="0.25"/><line x1="508" y1="331" x2="527" y2="101" stroke="#7B6FE0" stroke-width="1.2" opacity="0.14"/><line x1="508" y1="331" x2="485" y2="484" stroke="#7B6FE0" stroke-width="1.2" opacity="0.2"/><line x1="508" y1="331" x2="440" y2="122" stroke="#7B6FE0" stroke-width="1.2" opacity="0.15"/><line x1="508" y1="331" x2="725" y2="279" stroke="#7B6FE0" stroke-width="1.2" opacity="0.14"/><line x1="508" y1="331" x2="442" y2="382" stroke="#7B6FE0" stroke-width="1.2" opacity="0.25"/><line x1="657" y1="405" x2="599" y2="358" stroke="#7B6FE0" stroke-width="1.2" opacity="0.26"/><line x1="657" y1="405" x2="773" y2="298" stroke="#7B6FE0" stroke-width="1.2" opacity="0.19"/><line x1="657" y1="405" x2="562" y2="268" stroke="#7B6FE0" stroke-width="1.2" opacity="0.19"/><line x1="657" y1="405" x2="527" y2="101" stroke="#7B6FE0" stroke-width="1.2" opacity="0.06"/><line x1="657" y1="405" x2="485" y2="484" stroke="#7B6FE0" stroke-width="1.2" opacity="0.17"/><line x1="657" y1="405" x2="725" y2="279" stroke="#7B6FE0" stroke-width="1.2" opacity="0.21"/><line x1="657" y1="405" x2="442" y2="382" stroke="#7B6FE0" stroke-width="1.2" opacity="0.15"/><line x1="599" y1="358" x2="773" y2="298" stroke="#7B6FE0" stroke-width="1.2" opacity="0.17"/><line x1="599" y1="358" x2="562" y2="268" stroke="#7B6FE0" stroke-width="1.2" opacity="0.24"/><line x1="599" y1="358" x2="527" y2="101" stroke="#7B6FE0" stroke-width="1.2" opacity="0.11"/><line x1="599" y1="358" x2="485" y2="484" stroke="#7B6FE0" stroke-width="1.2" opacity="0.19"/><line x1="599" y1="358" x2="440" y2="122" stroke="#7B6FE0" stroke-width="1.2" opacity="0.09"/><line x1="599" y1="358" x2="725" y2="279" stroke="#7B6FE0" stroke-width="1.2" opacity="0.2"/><line x1="599" y1="358" x2="442" y2="382" stroke="#7B6FE0" stroke-width="1.2" opacity="0.19"/><line x1="773" y1="298" x2="562" y2="268" stroke="#7B6FE0" stroke-width="1.2" opacity="0.15"/><line x1="773" y1="298" x2="527" y2="101" stroke="#7B6FE0" stroke-width="1.2" opacity="0.07"/><line x1="773" y1="298" x2="725" y2="279" stroke="#7B6FE0" stroke-width="1.2" opacity="0.28"/><line x1="562" y1="268" x2="527" y2="101" stroke="#7B6FE0" stroke-width="1.2" opacity="0.18"/><line x1="562" y1="268" x2="485" y2="484" stroke="#7B6FE0" stroke-width="1.2" opacity="0.14"/><line x1="562" y1="268" x2="440" y2="122" stroke="#7B6FE0" stroke-width="1.2" opacity="0.17"/><line x1="562" y1="268" x2="725" y2="279" stroke="#7B6FE0" stroke-width="1.2" opacity="0.19"/><line x1="562" y1="268" x2="442" y2="382" stroke="#7B6FE0" stroke-width="1.2" opacity="0.19"/><line x1="527" y1="101" x2="440" y2="122" stroke="#7B6FE0" stroke-width="1.2" opacity="0.25"/><line x1="527" y1="101" x2="725" y2="279" stroke="#7B6FE0" stroke-width="1.2" opacity="0.11"/><line x1="527" y1="101" x2="442" y2="382" stroke="#7B6FE0" stroke-width="1.2" opacity="0.09"/><line x1="485" y1="484" x2="725" y2="279" stroke="#7B6FE0" stroke-width="1.2" opacity="0.07"/><line x1="485" y1="484" x2="442" y2="382" stroke="#7B6FE0" stroke-width="1.2" opacity="0.23"/><line x1="116" y1="466" x2="442" y2="382" stroke="#7B6FE0" stroke-width="1.2" opacity="0.05"/><line x1="440" y1="122" x2="725" y2="279" stroke="#7B6FE0" stroke-width="1.2" opacity="0.06"/><line x1="440" y1="122" x2="442" y2="382" stroke="#7B6FE0" stroke-width="1.2" opacity="0.11"/><line x1="725" y1="279" x2="442" y2="382" stroke="#7B6FE0" stroke-width="1.2" opacity="0.08"/><circle cx="508" cy="331" r="3" fill="#7B6FE0" opacity="0.55"/><circle cx="657" cy="405" r="3" fill="#7B6FE0" opacity="0.55"/><circle cx="599" cy="358" r="3" fill="#7B6FE0" opacity="0.55"/><circle cx="773" cy="298" r="4" fill="#7B6FE0" opacity="0.55"/><circle cx="562" cy="268" r="4" fill="#7B6FE0" opacity="0.55"/><circle cx="527" cy="101" r="4" fill="#7B6FE0" opacity="0.55"/><circle cx="485" cy="484" r="2.5" fill="#7B6FE0" opacity="0.55"/><circle cx="116" cy="466" r="4" fill="#7B6FE0" opacity="0.55"/><circle cx="440" cy="122" r="3" fill="#7B6FE0" opacity="0.55"/><circle cx="725" cy="279" r="2.5" fill="#7B6FE0" opacity="0.55"/><circle cx="442" cy="382" r="4" fill="#7B6FE0" opacity="0.55"/>
  <circle cx="1070" cy="120" r="54" fill="#FBFAF6" opacity="0.12"/>
  <text x="1070" y="120" font-size="52" text-anchor="middle" dominant-baseline="central">🎓</text>
  <g font-family="'Changa','Segoe UI',sans-serif" fill="#FBFAF6">
    <rect x="64" y="480" width="14" height="86" rx="4" fill="#7B6FE0"/>
    <text x="92" y="520" font-size="30" font-weight="700" opacity="0.92">تعلم الذكاء الاصطناعي</text>
    <text x="92" y="564" font-size="22" opacity="0.6">nawahlabs.com · نَوَاة</text>
  </g>
</svg>