<svg xmlns="http://www.w3.org/2000/svg" viewBox="0 0 1200 630" width="1200" height="630" role="img" aria-label="تعلم الذكاء الاصطناعي">
  <defs>
    <linearGradient id="g71605" x1="0" y1="0" x2="1" y2="1">
      <stop offset="0" stop-color="#34308F"/>
      <stop offset="1" stop-color="#221E66"/>
    </linearGradient>
    <radialGradient id="g71605r" cx="0.75" cy="0.25" r="0.9">
      <stop offset="0" stop-color="#7B6FE0" stop-opacity="0.35"/>
      <stop offset="0.6" stop-color="#7B6FE0" stop-opacity="0"/>
    </radialGradient>
  </defs>
  <rect width="1200" height="630" fill="url(#g71605)"/>
  <rect width="1200" height="630" fill="url(#g71605r)"/>
  <line x1="200" y1="188" x2="281" y2="463" stroke="#7B6FE0" stroke-width="1.2" opacity="0.09"/><line x1="200" y1="188" x2="149" y2="219" stroke="#7B6FE0" stroke-width="1.2" opacity="0.27"/><line x1="200" y1="188" x2="510" y2="244" stroke="#7B6FE0" stroke-width="1.2" opacity="0.07"/><line x1="200" y1="188" x2="188" y2="231" stroke="#7B6FE0" stroke-width="1.2" opacity="0.28"/><line x1="200" y1="188" x2="208" y2="341" stroke="#7B6FE0" stroke-width="1.2" opacity="0.2"/><line x1="200" y1="188" x2="256" y2="488" stroke="#7B6FE0" stroke-width="1.2" opacity="0.08"/><line x1="281" y1="463" x2="149" y2="219" stroke="#7B6FE0" stroke-width="1.2" opacity="0.1"/><line x1="281" y1="463" x2="464" y2="554" stroke="#7B6FE0" stroke-width="1.2" opacity="0.16"/><line x1="281" y1="463" x2="510" y2="244" stroke="#7B6FE0" stroke-width="1.2" opacity="0.07"/><line x1="281" y1="463" x2="188" y2="231" stroke="#7B6FE0" stroke-width="1.2" opacity="0.12"/><line x1="281" y1="463" x2="208" y2="341" stroke="#7B6FE0" stroke-width="1.2" opacity="0.21"/><line x1="281" y1="463" x2="256" y2="488" stroke="#7B6FE0" stroke-width="1.2" opacity="0.29"/><line x1="667" y1="252" x2="835" y2="106" stroke="#7B6FE0" stroke-width="1.2" opacity="0.14"/><line x1="667" y1="252" x2="510" y2="244" stroke="#7B6FE0" stroke-width="1.2" opacity="0.2"/><line x1="149" y1="219" x2="188" y2="231" stroke="#7B6FE0" stroke-width="1.2" opacity="0.29"/><line x1="149" y1="219" x2="208" y2="341" stroke="#7B6FE0" stroke-width="1.2" opacity="0.21"/><line x1="149" y1="219" x2="256" y2="488" stroke="#7B6FE0" stroke-width="1.2" opacity="0.09"/><line x1="464" y1="554" x2="510" y2="244" stroke="#7B6FE0" stroke-width="1.2" opacity="0.07"/><line x1="464" y1="554" x2="208" y2="341" stroke="#7B6FE0" stroke-width="1.2" opacity="0.06"/><line x1="464" y1="554" x2="256" y2="488" stroke="#7B6FE0" stroke-width="1.2" opacity="0.15"/><line x1="510" y1="244" x2="188" y2="231" stroke="#7B6FE0" stroke-width="1.2" opacity="0.06"/><line x1="510" y1="244" x2="208" y2="341" stroke="#7B6FE0" stroke-width="1.2" opacity="0.07"/><line x1="188" y1="231" x2="208" y2="341" stroke="#7B6FE0" stroke-width="1.2" opacity="0.23"/><line x1="188" y1="231" x2="256" y2="488" stroke="#7B6FE0" stroke-width="1.2" opacity="0.11"/><line x1="208" y1="341" x2="256" y2="488" stroke="#7B6FE0" stroke-width="1.2" opacity="0.2"/><circle cx="200" cy="188" r="2.5" fill="#7B6FE0" opacity="0.55"/><circle cx="281" cy="463" r="4" fill="#7B6FE0" opacity="0.55"/><circle cx="667" cy="252" r="2.5" fill="#7B6FE0" opacity="0.55"/><circle cx="149" cy="219" r="3" fill="#7B6FE0" opacity="0.55"/><circle cx="464" cy="554" r="2.5" fill="#7B6FE0" opacity="0.55"/><circle cx="835" cy="106" r="4" fill="#7B6FE0" opacity="0.55"/><circle cx="510" cy="244" r="4" fill="#7B6FE0" opacity="0.55"/><circle cx="188" cy="231" r="3" fill="#7B6FE0" opacity="0.55"/><circle cx="208" cy="341" r="3" fill="#7B6FE0" opacity="0.55"/><circle cx="998" cy="563" r="3" fill="#7B6FE0" opacity="0.55"/><circle cx="256" cy="488" r="2.5" fill="#7B6FE0" opacity="0.55"/>
  <circle cx="1070" cy="120" r="54" fill="#FBFAF6" opacity="0.12"/>
  <text x="1070" y="120" font-size="52" text-anchor="middle" dominant-baseline="central">🎓</text>
  <g font-family="'Changa','Segoe UI',sans-serif" fill="#FBFAF6">
    <rect x="64" y="480" width="14" height="86" rx="4" fill="#7B6FE0"/>
    <text x="92" y="520" font-size="30" font-weight="700" opacity="0.92">تعلم الذكاء الاصطناعي</text>
    <text x="92" y="564" font-size="22" opacity="0.6">nawahlabs.com · نَوَاة</text>
  </g>
</svg>