<svg xmlns="http://www.w3.org/2000/svg" viewBox="0 0 1200 630" width="1200" height="630" role="img" aria-label="أدوات الذكاء الاصطناعي">
  <defs>
    <linearGradient id="g31908" x1="0" y1="0" x2="1" y2="1">
      <stop offset="0" stop-color="#221E66"/>
      <stop offset="1" stop-color="#0E8F8F"/>
    </linearGradient>
    <radialGradient id="g31908r" cx="0.75" cy="0.25" r="0.9">
      <stop offset="0" stop-color="#34D3C0" stop-opacity="0.35"/>
      <stop offset="0.6" stop-color="#34D3C0" stop-opacity="0"/>
    </radialGradient>
  </defs>
  <rect width="1200" height="630" fill="url(#g31908)"/>
  <rect width="1200" height="630" fill="url(#g31908r)"/>
  <line x1="997" y1="482" x2="1009" y2="497" stroke="#34D3C0" stroke-width="1.2" opacity="0.3"/><line x1="997" y1="482" x2="661" y2="433" stroke="#34D3C0" stroke-width="1.2" opacity="0.05"/><line x1="997" y1="482" x2="1077" y2="224" stroke="#34D3C0" stroke-width="1.2" opacity="0.11"/><line x1="639" y1="404" x2="614" y2="299" stroke="#34D3C0" stroke-width="1.2" opacity="0.23"/><line x1="639" y1="404" x2="661" y2="433" stroke="#34D3C0" stroke-width="1.2" opacity="0.29"/><line x1="639" y1="404" x2="423" y2="205" stroke="#34D3C0" stroke-width="1.2" opacity="0.09"/><line x1="1009" y1="497" x2="1077" y2="224" stroke="#34D3C0" stroke-width="1.2" opacity="0.1"/><line x1="614" y1="299" x2="661" y2="433" stroke="#34D3C0" stroke-width="1.2" opacity="0.21"/><line x1="614" y1="299" x2="423" y2="205" stroke="#34D3C0" stroke-width="1.2" opacity="0.15"/><line x1="661" y1="433" x2="423" y2="205" stroke="#34D3C0" stroke-width="1.2" opacity="0.06"/><line x1="1037" y1="110" x2="1077" y2="224" stroke="#34D3C0" stroke-width="1.2" opacity="0.22"/><line x1="423" y1="205" x2="336" y2="63" stroke="#34D3C0" stroke-width="1.2" opacity="0.19"/><line x1="423" y1="205" x2="88" y2="255" stroke="#34D3C0" stroke-width="1.2" opacity="0.05"/><line x1="336" y1="63" x2="88" y2="255" stroke="#34D3C0" stroke-width="1.2" opacity="0.07"/><line x1="92" y1="451" x2="88" y2="255" stroke="#34D3C0" stroke-width="1.2" opacity="0.16"/><circle cx="997" cy="482" r="4" fill="#34D3C0" opacity="0.55"/><circle cx="639" cy="404" r="4" fill="#34D3C0" opacity="0.55"/><circle cx="1009" cy="497" r="2.5" fill="#34D3C0" opacity="0.55"/><circle cx="614" cy="299" r="4" fill="#34D3C0" opacity="0.55"/><circle cx="661" cy="433" r="3" fill="#34D3C0" opacity="0.55"/><circle cx="1037" cy="110" r="2.5" fill="#34D3C0" opacity="0.55"/><circle cx="423" cy="205" r="3" fill="#34D3C0" opacity="0.55"/><circle cx="336" cy="63" r="3" fill="#34D3C0" opacity="0.55"/><circle cx="1077" cy="224" r="2.5" fill="#34D3C0" opacity="0.55"/><circle cx="92" cy="451" r="2.5" fill="#34D3C0" opacity="0.55"/><circle cx="88" cy="255" r="4" fill="#34D3C0" opacity="0.55"/>
  <circle cx="1070" cy="120" r="54" fill="#FBFAF6" opacity="0.12"/>
  <text x="1070" y="120" font-size="52" text-anchor="middle" dominant-baseline="central">⚙</text>
  <g font-family="'Changa','Segoe UI',sans-serif" fill="#FBFAF6">
    <rect x="64" y="480" width="14" height="86" rx="4" fill="#34D3C0"/>
    <text x="92" y="520" font-size="30" font-weight="700" opacity="0.92">أدوات الذكاء الاصطناعي</text>
    <text x="92" y="564" font-size="22" opacity="0.6">nawahlabs.com · نَوَاة</text>
  </g>
</svg>