<svg xmlns="http://www.w3.org/2000/svg" viewBox="0 0 1200 630" width="1200" height="630" role="img" aria-label="الربح من الذكاء الاصطناعي">
  <defs>
    <linearGradient id="g79791" x1="0" y1="0" x2="1" y2="1">
      <stop offset="0" stop-color="#0E8F8F"/>
      <stop offset="1" stop-color="#221E66"/>
    </linearGradient>
    <radialGradient id="g79791r" cx="0.75" cy="0.25" r="0.9">
      <stop offset="0" stop-color="#D98E2B" stop-opacity="0.35"/>
      <stop offset="0.6" stop-color="#D98E2B" stop-opacity="0"/>
    </radialGradient>
  </defs>
  <rect width="1200" height="630" fill="url(#g79791)"/>
  <rect width="1200" height="630" fill="url(#g79791r)"/>
  <line x1="1049" y1="542" x2="999" y2="477" stroke="#D98E2B" stroke-width="1.2" opacity="0.25"/><line x1="1049" y1="542" x2="787" y2="389" stroke="#D98E2B" stroke-width="1.2" opacity="0.08"/><line x1="1049" y1="542" x2="868" y2="371" stroke="#D98E2B" stroke-width="1.2" opacity="0.12"/><line x1="229" y1="480" x2="519" y2="423" stroke="#D98E2B" stroke-width="1.2" opacity="0.09"/><line x1="229" y1="480" x2="416" y2="480" stroke="#D98E2B" stroke-width="1.2" opacity="0.17"/><line x1="229" y1="480" x2="474" y2="506" stroke="#D98E2B" stroke-width="1.2" opacity="0.12"/><line x1="229" y1="480" x2="205" y2="283" stroke="#D98E2B" stroke-width="1.2" opacity="0.16"/><line x1="999" y1="477" x2="787" y2="389" stroke="#D98E2B" stroke-width="1.2" opacity="0.14"/><line x1="999" y1="477" x2="868" y2="371" stroke="#D98E2B" stroke-width="1.2" opacity="0.19"/><line x1="519" y1="423" x2="787" y2="389" stroke="#D98E2B" stroke-width="1.2" opacity="0.11"/><line x1="519" y1="423" x2="479" y2="137" stroke="#D98E2B" stroke-width="1.2" opacity="0.09"/><line x1="519" y1="423" x2="416" y2="480" stroke="#D98E2B" stroke-width="1.2" opacity="0.23"/><line x1="519" y1="423" x2="694" y2="315" stroke="#D98E2B" stroke-width="1.2" opacity="0.16"/><line x1="519" y1="423" x2="474" y2="506" stroke="#D98E2B" stroke-width="1.2" opacity="0.25"/><line x1="787" y1="389" x2="694" y2="315" stroke="#D98E2B" stroke-width="1.2" opacity="0.23"/><line x1="787" y1="389" x2="474" y2="506" stroke="#D98E2B" stroke-width="1.2" opacity="0.05"/><line x1="787" y1="389" x2="868" y2="371" stroke="#D98E2B" stroke-width="1.2" opacity="0.25"/><line x1="479" y1="137" x2="694" y2="315" stroke="#D98E2B" stroke-width="1.2" opacity="0.1"/><line x1="479" y1="137" x2="205" y2="283" stroke="#D98E2B" stroke-width="1.2" opacity="0.07"/><line x1="416" y1="480" x2="694" y2="315" stroke="#D98E2B" stroke-width="1.2" opacity="0.06"/><line x1="416" y1="480" x2="474" y2="506" stroke="#D98E2B" stroke-width="1.2" opacity="0.27"/><line x1="416" y1="480" x2="205" y2="283" stroke="#D98E2B" stroke-width="1.2" opacity="0.09"/><line x1="694" y1="315" x2="474" y2="506" stroke="#D98E2B" stroke-width="1.2" opacity="0.09"/><line x1="694" y1="315" x2="868" y2="371" stroke="#D98E2B" stroke-width="1.2" opacity="0.17"/><circle cx="1049" cy="542" r="2.5" fill="#D98E2B" opacity="0.55"/><circle cx="229" cy="480" r="3" fill="#D98E2B" opacity="0.55"/><circle cx="999" cy="477" r="3" fill="#D98E2B" opacity="0.55"/><circle cx="519" cy="423" r="3" fill="#D98E2B" opacity="0.55"/><circle cx="787" cy="389" r="3" fill="#D98E2B" opacity="0.55"/><circle cx="479" cy="137" r="4" fill="#D98E2B" opacity="0.55"/><circle cx="416" cy="480" r="4" fill="#D98E2B" opacity="0.55"/><circle cx="694" cy="315" r="4" fill="#D98E2B" opacity="0.55"/><circle cx="474" cy="506" r="3" fill="#D98E2B" opacity="0.55"/><circle cx="868" cy="371" r="3" fill="#D98E2B" opacity="0.55"/><circle cx="205" cy="283" r="3" fill="#D98E2B" opacity="0.55"/>
  <circle cx="1070" cy="120" r="54" fill="#FBFAF6" opacity="0.12"/>
  <text x="1070" y="120" font-size="52" text-anchor="middle" dominant-baseline="central">📈</text>
  <g font-family="'Changa','Segoe UI',sans-serif" fill="#FBFAF6">
    <rect x="64" y="480" width="14" height="86" rx="4" fill="#D98E2B"/>
    <text x="92" y="520" font-size="30" font-weight="700" opacity="0.92">الربح من الذكاء الاصطناعي</text>
    <text x="92" y="564" font-size="22" opacity="0.6">nawahlabs.com · نَوَاة</text>
  </g>
</svg>