<svg xmlns="http://www.w3.org/2000/svg" viewBox="0 0 1200 630" width="1200" height="630" role="img" aria-label="الربح من الذكاء الاصطناعي">
  <defs>
    <linearGradient id="g99879" x1="0" y1="0" x2="1" y2="1">
      <stop offset="0" stop-color="#0E8F8F"/>
      <stop offset="1" stop-color="#221E66"/>
    </linearGradient>
    <radialGradient id="g99879r" cx="0.75" cy="0.25" r="0.9">
      <stop offset="0" stop-color="#D98E2B" stop-opacity="0.35"/>
      <stop offset="0.6" stop-color="#D98E2B" stop-opacity="0"/>
    </radialGradient>
  </defs>
  <rect width="1200" height="630" fill="url(#g99879)"/>
  <rect width="1200" height="630" fill="url(#g99879r)"/>
  <line x1="394" y1="480" x2="302" y2="332" stroke="#D98E2B" stroke-width="1.2" opacity="0.18"/><line x1="394" y1="480" x2="308" y2="484" stroke="#D98E2B" stroke-width="1.2" opacity="0.25"/><line x1="394" y1="480" x2="513" y2="222" stroke="#D98E2B" stroke-width="1.2" opacity="0.09"/><line x1="394" y1="480" x2="195" y2="535" stroke="#D98E2B" stroke-width="1.2" opacity="0.16"/><line x1="394" y1="480" x2="492" y2="377" stroke="#D98E2B" stroke-width="1.2" opacity="0.21"/><line x1="394" y1="480" x2="629" y2="361" stroke="#D98E2B" stroke-width="1.2" opacity="0.11"/><line x1="302" y1="332" x2="131" y2="221" stroke="#D98E2B" stroke-width="1.2" opacity="0.16"/><line x1="302" y1="332" x2="308" y2="484" stroke="#D98E2B" stroke-width="1.2" opacity="0.2"/><line x1="302" y1="332" x2="513" y2="222" stroke="#D98E2B" stroke-width="1.2" opacity="0.13"/><line x1="302" y1="332" x2="195" y2="535" stroke="#D98E2B" stroke-width="1.2" opacity="0.14"/><line x1="302" y1="332" x2="492" y2="377" stroke="#D98E2B" stroke-width="1.2" opacity="0.16"/><line x1="302" y1="332" x2="629" y2="361" stroke="#D98E2B" stroke-width="1.2" opacity="0.06"/><line x1="131" y1="221" x2="308" y2="484" stroke="#D98E2B" stroke-width="1.2" opacity="0.07"/><line x1="131" y1="221" x2="195" y2="535" stroke="#D98E2B" stroke-width="1.2" opacity="0.07"/><line x1="308" y1="484" x2="513" y2="222" stroke="#D98E2B" stroke-width="1.2" opacity="0.06"/><line x1="308" y1="484" x2="195" y2="535" stroke="#D98E2B" stroke-width="1.2" opacity="0.22"/><line x1="308" y1="484" x2="492" y2="377" stroke="#D98E2B" stroke-width="1.2" opacity="0.15"/><line x1="1031" y1="212" x2="841" y2="257" stroke="#D98E2B" stroke-width="1.2" opacity="0.16"/><line x1="1031" y1="212" x2="842" y2="109" stroke="#D98E2B" stroke-width="1.2" opacity="0.15"/><line x1="841" y1="257" x2="513" y2="222" stroke="#D98E2B" stroke-width="1.2" opacity="0.06"/><line x1="841" y1="257" x2="629" y2="361" stroke="#D98E2B" stroke-width="1.2" opacity="0.13"/><line x1="841" y1="257" x2="842" y2="109" stroke="#D98E2B" stroke-width="1.2" opacity="0.2"/><line x1="513" y1="222" x2="492" y2="377" stroke="#D98E2B" stroke-width="1.2" opacity="0.2"/><line x1="513" y1="222" x2="629" y2="361" stroke="#D98E2B" stroke-width="1.2" opacity="0.18"/><line x1="195" y1="535" x2="492" y2="377" stroke="#D98E2B" stroke-width="1.2" opacity="0.05"/><line x1="492" y1="377" x2="629" y2="361" stroke="#D98E2B" stroke-width="1.2" opacity="0.21"/><line x1="629" y1="361" x2="842" y2="109" stroke="#D98E2B" stroke-width="1.2" opacity="0.06"/><circle cx="394" cy="480" r="2.5" fill="#D98E2B" opacity="0.55"/><circle cx="302" cy="332" r="4" fill="#D98E2B" opacity="0.55"/><circle cx="131" cy="221" r="3" fill="#D98E2B" opacity="0.55"/><circle cx="308" cy="484" r="3" fill="#D98E2B" opacity="0.55"/><circle cx="1031" cy="212" r="4" fill="#D98E2B" opacity="0.55"/><circle cx="841" cy="257" r="2.5" fill="#D98E2B" opacity="0.55"/><circle cx="513" cy="222" r="2.5" fill="#D98E2B" opacity="0.55"/><circle cx="195" cy="535" r="4" fill="#D98E2B" opacity="0.55"/><circle cx="492" cy="377" r="3" fill="#D98E2B" opacity="0.55"/><circle cx="629" cy="361" r="2.5" fill="#D98E2B" opacity="0.55"/><circle cx="842" cy="109" r="3" fill="#D98E2B" opacity="0.55"/>
  <circle cx="1070" cy="120" r="54" fill="#FBFAF6" opacity="0.12"/>
  <text x="1070" y="120" font-size="52" text-anchor="middle" dominant-baseline="central">📈</text>
  <g font-family="'Changa','Segoe UI',sans-serif" fill="#FBFAF6">
    <rect x="64" y="480" width="14" height="86" rx="4" fill="#D98E2B"/>
    <text x="92" y="520" font-size="30" font-weight="700" opacity="0.92">الربح من الذكاء الاصطناعي</text>
    <text x="92" y="564" font-size="22" opacity="0.6">nawahlabs.com · نَوَاة</text>
  </g>
</svg>