<svg xmlns="http://www.w3.org/2000/svg" viewBox="0 0 1200 630" width="1200" height="630" role="img" aria-label="تعلم الذكاء الاصطناعي">
  <defs>
    <linearGradient id="g63784" x1="0" y1="0" x2="1" y2="1">
      <stop offset="0" stop-color="#34308F"/>
      <stop offset="1" stop-color="#221E66"/>
    </linearGradient>
    <radialGradient id="g63784r" cx="0.75" cy="0.25" r="0.9">
      <stop offset="0" stop-color="#7B6FE0" stop-opacity="0.35"/>
      <stop offset="0.6" stop-color="#7B6FE0" stop-opacity="0"/>
    </radialGradient>
  </defs>
  <rect width="1200" height="630" fill="url(#g63784)"/>
  <rect width="1200" height="630" fill="url(#g63784r)"/>
  <line x1="166" y1="93" x2="338" y2="168" stroke="#7B6FE0" stroke-width="1.2" opacity="0.17"/><line x1="166" y1="93" x2="114" y2="391" stroke="#7B6FE0" stroke-width="1.2" opacity="0.08"/><line x1="166" y1="93" x2="170" y2="128" stroke="#7B6FE0" stroke-width="1.2" opacity="0.29"/><line x1="166" y1="93" x2="325" y2="206" stroke="#7B6FE0" stroke-width="1.2" opacity="0.17"/><line x1="338" y1="168" x2="114" y2="391" stroke="#7B6FE0" stroke-width="1.2" opacity="0.07"/><line x1="338" y1="168" x2="170" y2="128" stroke="#7B6FE0" stroke-width="1.2" opacity="0.18"/><line x1="338" y1="168" x2="654" y2="157" stroke="#7B6FE0" stroke-width="1.2" opacity="0.07"/><line x1="338" y1="168" x2="608" y2="180" stroke="#7B6FE0" stroke-width="1.2" opacity="0.11"/><line x1="338" y1="168" x2="325" y2="206" stroke="#7B6FE0" stroke-width="1.2" opacity="0.29"/><line x1="894" y1="419" x2="973" y2="372" stroke="#7B6FE0" stroke-width="1.2" opacity="0.25"/><line x1="894" y1="419" x2="853" y2="487" stroke="#7B6FE0" stroke-width="1.2" opacity="0.26"/><line x1="114" y1="391" x2="170" y2="128" stroke="#7B6FE0" stroke-width="1.2" opacity="0.11"/><line x1="114" y1="391" x2="88" y2="461" stroke="#7B6FE0" stroke-width="1.2" opacity="0.26"/><line x1="114" y1="391" x2="325" y2="206" stroke="#7B6FE0" stroke-width="1.2" opacity="0.1"/><line x1="170" y1="128" x2="325" y2="206" stroke="#7B6FE0" stroke-width="1.2" opacity="0.18"/><line x1="973" y1="372" x2="853" y2="487" stroke="#7B6FE0" stroke-width="1.2" opacity="0.19"/><line x1="654" y1="157" x2="608" y2="180" stroke="#7B6FE0" stroke-width="1.2" opacity="0.28"/><line x1="654" y1="157" x2="325" y2="206" stroke="#7B6FE0" stroke-width="1.2" opacity="0.06"/><line x1="608" y1="180" x2="325" y2="206" stroke="#7B6FE0" stroke-width="1.2" opacity="0.09"/><circle cx="166" cy="93" r="4" fill="#7B6FE0" opacity="0.55"/><circle cx="338" cy="168" r="2.5" fill="#7B6FE0" opacity="0.55"/><circle cx="894" cy="419" r="3" fill="#7B6FE0" opacity="0.55"/><circle cx="114" cy="391" r="4" fill="#7B6FE0" opacity="0.55"/><circle cx="170" cy="128" r="3" fill="#7B6FE0" opacity="0.55"/><circle cx="973" cy="372" r="2.5" fill="#7B6FE0" opacity="0.55"/><circle cx="88" cy="461" r="4" fill="#7B6FE0" opacity="0.55"/><circle cx="654" cy="157" r="4" fill="#7B6FE0" opacity="0.55"/><circle cx="853" cy="487" r="3" fill="#7B6FE0" opacity="0.55"/><circle cx="608" cy="180" r="2.5" fill="#7B6FE0" opacity="0.55"/><circle cx="325" cy="206" r="3" fill="#7B6FE0" opacity="0.55"/>
  <circle cx="1070" cy="120" r="54" fill="#FBFAF6" opacity="0.12"/>
  <text x="1070" y="120" font-size="52" text-anchor="middle" dominant-baseline="central">🎓</text>
  <g font-family="'Changa','Segoe UI',sans-serif" fill="#FBFAF6">
    <rect x="64" y="480" width="14" height="86" rx="4" fill="#7B6FE0"/>
    <text x="92" y="520" font-size="30" font-weight="700" opacity="0.92">تعلم الذكاء الاصطناعي</text>
    <text x="92" y="564" font-size="22" opacity="0.6">nawahlabs.com · نَوَاة</text>
  </g>
</svg>