<svg xmlns="http://www.w3.org/2000/svg" viewBox="0 0 1200 630" width="1200" height="630" role="img" aria-label="الربح من الذكاء الاصطناعي">
  <defs>
    <linearGradient id="g13543" x1="0" y1="0" x2="1" y2="1">
      <stop offset="0" stop-color="#0E8F8F"/>
      <stop offset="1" stop-color="#221E66"/>
    </linearGradient>
    <radialGradient id="g13543r" cx="0.75" cy="0.25" r="0.9">
      <stop offset="0" stop-color="#D98E2B" stop-opacity="0.35"/>
      <stop offset="0.6" stop-color="#D98E2B" stop-opacity="0"/>
    </radialGradient>
  </defs>
  <rect width="1200" height="630" fill="url(#g13543)"/>
  <rect width="1200" height="630" fill="url(#g13543r)"/>
  <line x1="854" y1="540" x2="836" y2="357" stroke="#D98E2B" stroke-width="1.2" opacity="0.17"/><line x1="854" y1="540" x2="979" y2="444" stroke="#D98E2B" stroke-width="1.2" opacity="0.19"/><line x1="854" y1="540" x2="753" y2="343" stroke="#D98E2B" stroke-width="1.2" opacity="0.14"/><line x1="1058" y1="208" x2="1128" y2="111" stroke="#D98E2B" stroke-width="1.2" opacity="0.23"/><line x1="1058" y1="208" x2="836" y2="357" stroke="#D98E2B" stroke-width="1.2" opacity="0.11"/><line x1="1058" y1="208" x2="979" y2="444" stroke="#D98E2B" stroke-width="1.2" opacity="0.12"/><line x1="1058" y1="208" x2="753" y2="343" stroke="#D98E2B" stroke-width="1.2" opacity="0.06"/><line x1="303" y1="541" x2="192" y2="339" stroke="#D98E2B" stroke-width="1.2" opacity="0.14"/><line x1="303" y1="541" x2="232" y2="538" stroke="#D98E2B" stroke-width="1.2" opacity="0.26"/><line x1="438" y1="171" x2="192" y2="339" stroke="#D98E2B" stroke-width="1.2" opacity="0.08"/><line x1="438" y1="171" x2="529" y2="240" stroke="#D98E2B" stroke-width="1.2" opacity="0.23"/><line x1="192" y1="339" x2="232" y2="538" stroke="#D98E2B" stroke-width="1.2" opacity="0.16"/><line x1="836" y1="357" x2="529" y2="240" stroke="#D98E2B" stroke-width="1.2" opacity="0.06"/><line x1="836" y1="357" x2="979" y2="444" stroke="#D98E2B" stroke-width="1.2" opacity="0.19"/><line x1="836" y1="357" x2="753" y2="343" stroke="#D98E2B" stroke-width="1.2" opacity="0.25"/><line x1="529" y1="240" x2="753" y2="343" stroke="#D98E2B" stroke-width="1.2" opacity="0.12"/><line x1="979" y1="444" x2="753" y2="343" stroke="#D98E2B" stroke-width="1.2" opacity="0.12"/><circle cx="854" cy="540" r="4" fill="#D98E2B" opacity="0.55"/><circle cx="1058" cy="208" r="3" fill="#D98E2B" opacity="0.55"/><circle cx="303" cy="541" r="3" fill="#D98E2B" opacity="0.55"/><circle cx="438" cy="171" r="3" fill="#D98E2B" opacity="0.55"/><circle cx="1128" cy="111" r="4" fill="#D98E2B" opacity="0.55"/><circle cx="192" cy="339" r="2.5" fill="#D98E2B" opacity="0.55"/><circle cx="232" cy="538" r="4" fill="#D98E2B" opacity="0.55"/><circle cx="836" cy="357" r="2.5" fill="#D98E2B" opacity="0.55"/><circle cx="529" cy="240" r="3" fill="#D98E2B" opacity="0.55"/><circle cx="979" cy="444" r="4" fill="#D98E2B" opacity="0.55"/><circle cx="753" cy="343" r="3" fill="#D98E2B" opacity="0.55"/>
  <circle cx="1070" cy="120" r="54" fill="#FBFAF6" opacity="0.12"/>
  <text x="1070" y="120" font-size="52" text-anchor="middle" dominant-baseline="central">📈</text>
  <g font-family="'Changa','Segoe UI',sans-serif" fill="#FBFAF6">
    <rect x="64" y="480" width="14" height="86" rx="4" fill="#D98E2B"/>
    <text x="92" y="520" font-size="30" font-weight="700" opacity="0.92">الربح من الذكاء الاصطناعي</text>
    <text x="92" y="564" font-size="22" opacity="0.6">nawahlabs.com · نَوَاة</text>
  </g>
</svg>