<svg xmlns="http://www.w3.org/2000/svg" viewBox="0 0 1200 630" width="1200" height="630" role="img" aria-label="Claude">
  <defs>
    <linearGradient id="g40359" x1="0" y1="0" x2="1" y2="1">
      <stop offset="0" stop-color="#D98E2B"/>
      <stop offset="1" stop-color="#221E66"/>
    </linearGradient>
    <radialGradient id="g40359r" cx="0.75" cy="0.25" r="0.9">
      <stop offset="0" stop-color="#F0B45E" stop-opacity="0.35"/>
      <stop offset="0.6" stop-color="#F0B45E" stop-opacity="0"/>
    </radialGradient>
  </defs>
  <rect width="1200" height="630" fill="url(#g40359)"/>
  <rect width="1200" height="630" fill="url(#g40359r)"/>
  <line x1="616" y1="129" x2="759" y2="74" stroke="#F0B45E" stroke-width="1.2" opacity="0.2"/><line x1="616" y1="129" x2="477" y2="216" stroke="#F0B45E" stroke-width="1.2" opacity="0.19"/><line x1="616" y1="129" x2="676" y2="157" stroke="#F0B45E" stroke-width="1.2" opacity="0.27"/><line x1="616" y1="129" x2="291" y2="170" stroke="#F0B45E" stroke-width="1.2" opacity="0.06"/><line x1="217" y1="460" x2="500" y2="546" stroke="#F0B45E" stroke-width="1.2" opacity="0.09"/><line x1="217" y1="460" x2="291" y2="170" stroke="#F0B45E" stroke-width="1.2" opacity="0.08"/><line x1="757" y1="477" x2="990" y2="368" stroke="#F0B45E" stroke-width="1.2" opacity="0.12"/><line x1="757" y1="477" x2="1046" y2="437" stroke="#F0B45E" stroke-width="1.2" opacity="0.09"/><line x1="757" y1="477" x2="500" y2="546" stroke="#F0B45E" stroke-width="1.2" opacity="0.11"/><line x1="757" y1="477" x2="676" y2="157" stroke="#F0B45E" stroke-width="1.2" opacity="0.06"/><line x1="990" y1="368" x2="1046" y2="437" stroke="#F0B45E" stroke-width="1.2" opacity="0.25"/><line x1="990" y1="368" x2="1116" y2="331" stroke="#F0B45E" stroke-width="1.2" opacity="0.22"/><line x1="759" y1="74" x2="477" y2="216" stroke="#F0B45E" stroke-width="1.2" opacity="0.07"/><line x1="759" y1="74" x2="676" y2="157" stroke="#F0B45E" stroke-width="1.2" opacity="0.23"/><line x1="477" y1="216" x2="500" y2="546" stroke="#F0B45E" stroke-width="1.2" opacity="0.06"/><line x1="477" y1="216" x2="676" y2="157" stroke="#F0B45E" stroke-width="1.2" opacity="0.16"/><line x1="477" y1="216" x2="291" y2="170" stroke="#F0B45E" stroke-width="1.2" opacity="0.17"/><line x1="1046" y1="437" x2="1116" y2="331" stroke="#F0B45E" stroke-width="1.2" opacity="0.22"/><circle cx="616" cy="129" r="2.5" fill="#F0B45E" opacity="0.55"/><circle cx="217" cy="460" r="2.5" fill="#F0B45E" opacity="0.55"/><circle cx="757" cy="477" r="3" fill="#F0B45E" opacity="0.55"/><circle cx="990" cy="368" r="4" fill="#F0B45E" opacity="0.55"/><circle cx="759" cy="74" r="4" fill="#F0B45E" opacity="0.55"/><circle cx="477" cy="216" r="2.5" fill="#F0B45E" opacity="0.55"/><circle cx="1046" cy="437" r="2.5" fill="#F0B45E" opacity="0.55"/><circle cx="1116" cy="331" r="2.5" fill="#F0B45E" opacity="0.55"/><circle cx="500" cy="546" r="2.5" fill="#F0B45E" opacity="0.55"/><circle cx="676" cy="157" r="3" fill="#F0B45E" opacity="0.55"/><circle cx="291" cy="170" r="2.5" fill="#F0B45E" opacity="0.55"/>
  <circle cx="1070" cy="120" r="54" fill="#FBFAF6" opacity="0.12"/>
  <text x="1070" y="120" font-size="52" text-anchor="middle" dominant-baseline="central">📝</text>
  <g font-family="'Changa','Segoe UI',sans-serif" fill="#FBFAF6">
    <rect x="64" y="480" width="14" height="86" rx="4" fill="#F0B45E"/>
    <text x="92" y="520" font-size="30" font-weight="700" opacity="0.92">Claude</text>
    <text x="92" y="564" font-size="22" opacity="0.6">nawahlabs.com · نَوَاة</text>
  </g>
</svg>