<svg xmlns="http://www.w3.org/2000/svg" viewBox="0 0 1200 630" width="1200" height="630" role="img" aria-label="Claude">
  <defs>
    <linearGradient id="g53584" x1="0" y1="0" x2="1" y2="1">
      <stop offset="0" stop-color="#D98E2B"/>
      <stop offset="1" stop-color="#221E66"/>
    </linearGradient>
    <radialGradient id="g53584r" cx="0.75" cy="0.25" r="0.9">
      <stop offset="0" stop-color="#F0B45E" stop-opacity="0.35"/>
      <stop offset="0.6" stop-color="#F0B45E" stop-opacity="0"/>
    </radialGradient>
  </defs>
  <rect width="1200" height="630" fill="url(#g53584)"/>
  <rect width="1200" height="630" fill="url(#g53584r)"/>
  <line x1="602" y1="556" x2="679" y2="269" stroke="#F0B45E" stroke-width="1.2" opacity="0.08"/><line x1="602" y1="556" x2="812" y2="505" stroke="#F0B45E" stroke-width="1.2" opacity="0.15"/><line x1="602" y1="556" x2="769" y2="334" stroke="#F0B45E" stroke-width="1.2" opacity="0.1"/><line x1="978" y1="239" x2="679" y2="269" stroke="#F0B45E" stroke-width="1.2" opacity="0.08"/><line x1="978" y1="239" x2="812" y2="505" stroke="#F0B45E" stroke-width="1.2" opacity="0.07"/><line x1="978" y1="239" x2="966" y2="286" stroke="#F0B45E" stroke-width="1.2" opacity="0.28"/><line x1="978" y1="239" x2="1137" y2="234" stroke="#F0B45E" stroke-width="1.2" opacity="0.19"/><line x1="978" y1="239" x2="769" y2="334" stroke="#F0B45E" stroke-width="1.2" opacity="0.14"/><line x1="978" y1="239" x2="692" y2="84" stroke="#F0B45E" stroke-width="1.2" opacity="0.06"/><line x1="106" y1="242" x2="209" y2="149" stroke="#F0B45E" stroke-width="1.2" opacity="0.21"/><line x1="106" y1="242" x2="339" y2="80" stroke="#F0B45E" stroke-width="1.2" opacity="0.09"/><line x1="679" y1="269" x2="812" y2="505" stroke="#F0B45E" stroke-width="1.2" opacity="0.1"/><line x1="679" y1="269" x2="966" y2="286" stroke="#F0B45E" stroke-width="1.2" opacity="0.09"/><line x1="679" y1="269" x2="769" y2="334" stroke="#F0B45E" stroke-width="1.2" opacity="0.23"/><line x1="679" y1="269" x2="692" y2="84" stroke="#F0B45E" stroke-width="1.2" opacity="0.17"/><line x1="812" y1="505" x2="966" y2="286" stroke="#F0B45E" stroke-width="1.2" opacity="0.11"/><line x1="812" y1="505" x2="769" y2="334" stroke="#F0B45E" stroke-width="1.2" opacity="0.18"/><line x1="209" y1="149" x2="339" y2="80" stroke="#F0B45E" stroke-width="1.2" opacity="0.2"/><line x1="966" y1="286" x2="1137" y2="234" stroke="#F0B45E" stroke-width="1.2" opacity="0.18"/><line x1="966" y1="286" x2="769" y2="334" stroke="#F0B45E" stroke-width="1.2" opacity="0.16"/><line x1="769" y1="334" x2="692" y2="84" stroke="#F0B45E" stroke-width="1.2" opacity="0.11"/><circle cx="602" cy="556" r="3" fill="#F0B45E" opacity="0.55"/><circle cx="978" cy="239" r="3" fill="#F0B45E" opacity="0.55"/><circle cx="106" cy="242" r="4" fill="#F0B45E" opacity="0.55"/><circle cx="679" cy="269" r="3" fill="#F0B45E" opacity="0.55"/><circle cx="812" cy="505" r="2.5" fill="#F0B45E" opacity="0.55"/><circle cx="209" cy="149" r="2.5" fill="#F0B45E" opacity="0.55"/><circle cx="966" cy="286" r="3" fill="#F0B45E" opacity="0.55"/><circle cx="1137" cy="234" r="3" fill="#F0B45E" opacity="0.55"/><circle cx="769" cy="334" r="4" fill="#F0B45E" opacity="0.55"/><circle cx="339" cy="80" r="4" fill="#F0B45E" opacity="0.55"/><circle cx="692" cy="84" r="4" fill="#F0B45E" opacity="0.55"/>
  <circle cx="1070" cy="120" r="54" fill="#FBFAF6" opacity="0.12"/>
  <text x="1070" y="120" font-size="52" text-anchor="middle" dominant-baseline="central">📝</text>
  <g font-family="'Changa','Segoe UI',sans-serif" fill="#FBFAF6">
    <rect x="64" y="480" width="14" height="86" rx="4" fill="#F0B45E"/>
    <text x="92" y="520" font-size="30" font-weight="700" opacity="0.92">Claude</text>
    <text x="92" y="564" font-size="22" opacity="0.6">nawahlabs.com · نَوَاة</text>
  </g>
</svg>