<svg xmlns="http://www.w3.org/2000/svg" viewBox="0 0 1200 630" width="1200" height="630" role="img" aria-label="Gemini">
  <defs>
    <linearGradient id="g25607" x1="0" y1="0" x2="1" y2="1">
      <stop offset="0" stop-color="#34308F"/>
      <stop offset="1" stop-color="#0E8F8F"/>
    </linearGradient>
    <radialGradient id="g25607r" cx="0.75" cy="0.25" r="0.9">
      <stop offset="0" stop-color="#7B6FE0" stop-opacity="0.35"/>
      <stop offset="0.6" stop-color="#7B6FE0" stop-opacity="0"/>
    </radialGradient>
  </defs>
  <rect width="1200" height="630" fill="url(#g25607)"/>
  <rect width="1200" height="630" fill="url(#g25607r)"/>
  <line x1="717" y1="229" x2="594" y2="417" stroke="#7B6FE0" stroke-width="1.2" opacity="0.14"/><line x1="717" y1="229" x2="858" y2="346" stroke="#7B6FE0" stroke-width="1.2" opacity="0.17"/><line x1="717" y1="229" x2="828" y2="493" stroke="#7B6FE0" stroke-width="1.2" opacity="0.09"/><line x1="717" y1="229" x2="605" y2="74" stroke="#7B6FE0" stroke-width="1.2" opacity="0.17"/><line x1="717" y1="229" x2="641" y2="345" stroke="#7B6FE0" stroke-width="1.2" opacity="0.21"/><line x1="717" y1="229" x2="882" y2="507" stroke="#7B6FE0" stroke-width="1.2" opacity="0.06"/><line x1="1072" y1="178" x2="858" y2="346" stroke="#7B6FE0" stroke-width="1.2" opacity="0.1"/><line x1="594" y1="417" x2="858" y2="346" stroke="#7B6FE0" stroke-width="1.2" opacity="0.1"/><line x1="594" y1="417" x2="828" y2="493" stroke="#7B6FE0" stroke-width="1.2" opacity="0.12"/><line x1="594" y1="417" x2="641" y2="345" stroke="#7B6FE0" stroke-width="1.2" opacity="0.25"/><line x1="594" y1="417" x2="882" y2="507" stroke="#7B6FE0" stroke-width="1.2" opacity="0.08"/><line x1="594" y1="417" x2="524" y2="544" stroke="#7B6FE0" stroke-width="1.2" opacity="0.2"/><line x1="858" y1="346" x2="828" y2="493" stroke="#7B6FE0" stroke-width="1.2" opacity="0.2"/><line x1="858" y1="346" x2="641" y2="345" stroke="#7B6FE0" stroke-width="1.2" opacity="0.15"/><line x1="858" y1="346" x2="882" y2="507" stroke="#7B6FE0" stroke-width="1.2" opacity="0.19"/><line x1="828" y1="493" x2="641" y2="345" stroke="#7B6FE0" stroke-width="1.2" opacity="0.13"/><line x1="828" y1="493" x2="882" y2="507" stroke="#7B6FE0" stroke-width="1.2" opacity="0.28"/><line x1="828" y1="493" x2="524" y2="544" stroke="#7B6FE0" stroke-width="1.2" opacity="0.08"/><line x1="605" y1="74" x2="641" y2="345" stroke="#7B6FE0" stroke-width="1.2" opacity="0.1"/><line x1="236" y1="219" x2="175" y2="285" stroke="#7B6FE0" stroke-width="1.2" opacity="0.25"/><line x1="641" y1="345" x2="882" y2="507" stroke="#7B6FE0" stroke-width="1.2" opacity="0.09"/><line x1="641" y1="345" x2="524" y2="544" stroke="#7B6FE0" stroke-width="1.2" opacity="0.14"/><circle cx="717" cy="229" r="2.5" fill="#7B6FE0" opacity="0.55"/><circle cx="1072" cy="178" r="4" fill="#7B6FE0" opacity="0.55"/><circle cx="594" cy="417" r="4" fill="#7B6FE0" opacity="0.55"/><circle cx="858" cy="346" r="2.5" fill="#7B6FE0" opacity="0.55"/><circle cx="828" cy="493" r="4" fill="#7B6FE0" opacity="0.55"/><circle cx="605" cy="74" r="3" fill="#7B6FE0" opacity="0.55"/><circle cx="236" cy="219" r="4" fill="#7B6FE0" opacity="0.55"/><circle cx="641" cy="345" r="2.5" fill="#7B6FE0" opacity="0.55"/><circle cx="882" cy="507" r="2.5" fill="#7B6FE0" opacity="0.55"/><circle cx="175" cy="285" r="2.5" fill="#7B6FE0" opacity="0.55"/><circle cx="524" cy="544" r="2.5" fill="#7B6FE0" opacity="0.55"/>
  <circle cx="1070" cy="120" r="54" fill="#FBFAF6" opacity="0.12"/>
  <text x="1070" y="120" font-size="52" text-anchor="middle" dominant-baseline="central">✦</text>
  <g font-family="'Changa','Segoe UI',sans-serif" fill="#FBFAF6">
    <rect x="64" y="480" width="14" height="86" rx="4" fill="#7B6FE0"/>
    <text x="92" y="520" font-size="30" font-weight="700" opacity="0.92">Gemini</text>
    <text x="92" y="564" font-size="22" opacity="0.6">nawahlabs.com · نَوَاة</text>
  </g>
</svg>