<svg xmlns="http://www.w3.org/2000/svg" viewBox="0 0 1200 630" width="1200" height="630" role="img" aria-label="Gemini">
  <defs>
    <linearGradient id="g89777" x1="0" y1="0" x2="1" y2="1">
      <stop offset="0" stop-color="#34308F"/>
      <stop offset="1" stop-color="#0E8F8F"/>
    </linearGradient>
    <radialGradient id="g89777r" cx="0.75" cy="0.25" r="0.9">
      <stop offset="0" stop-color="#7B6FE0" stop-opacity="0.35"/>
      <stop offset="0.6" stop-color="#7B6FE0" stop-opacity="0"/>
    </radialGradient>
  </defs>
  <rect width="1200" height="630" fill="url(#g89777)"/>
  <rect width="1200" height="630" fill="url(#g89777r)"/>
  <line x1="339" y1="368" x2="655" y2="422" stroke="#7B6FE0" stroke-width="1.2" opacity="0.07"/><line x1="339" y1="368" x2="414" y2="338" stroke="#7B6FE0" stroke-width="1.2" opacity="0.26"/><line x1="339" y1="368" x2="254" y2="317" stroke="#7B6FE0" stroke-width="1.2" opacity="0.24"/><line x1="339" y1="368" x2="111" y2="462" stroke="#7B6FE0" stroke-width="1.2" opacity="0.12"/><line x1="823" y1="214" x2="977" y2="327" stroke="#7B6FE0" stroke-width="1.2" opacity="0.17"/><line x1="823" y1="214" x2="655" y2="422" stroke="#7B6FE0" stroke-width="1.2" opacity="0.11"/><line x1="823" y1="214" x2="768" y2="506" stroke="#7B6FE0" stroke-width="1.2" opacity="0.08"/><line x1="823" y1="214" x2="922" y2="396" stroke="#7B6FE0" stroke-width="1.2" opacity="0.16"/><line x1="670" y1="532" x2="655" y2="422" stroke="#7B6FE0" stroke-width="1.2" opacity="0.23"/><line x1="670" y1="532" x2="414" y2="338" stroke="#7B6FE0" stroke-width="1.2" opacity="0.06"/><line x1="670" y1="532" x2="768" y2="506" stroke="#7B6FE0" stroke-width="1.2" opacity="0.24"/><line x1="670" y1="532" x2="951" y2="536" stroke="#7B6FE0" stroke-width="1.2" opacity="0.1"/><line x1="670" y1="532" x2="922" y2="396" stroke="#7B6FE0" stroke-width="1.2" opacity="0.09"/><line x1="977" y1="327" x2="655" y2="422" stroke="#7B6FE0" stroke-width="1.2" opacity="0.05"/><line x1="977" y1="327" x2="768" y2="506" stroke="#7B6FE0" stroke-width="1.2" opacity="0.1"/><line x1="977" y1="327" x2="951" y2="536" stroke="#7B6FE0" stroke-width="1.2" opacity="0.15"/><line x1="977" y1="327" x2="922" y2="396" stroke="#7B6FE0" stroke-width="1.2" opacity="0.25"/><line x1="655" y1="422" x2="414" y2="338" stroke="#7B6FE0" stroke-width="1.2" opacity="0.12"/><line x1="655" y1="422" x2="768" y2="506" stroke="#7B6FE0" stroke-width="1.2" opacity="0.21"/><line x1="655" y1="422" x2="951" y2="536" stroke="#7B6FE0" stroke-width="1.2" opacity="0.07"/><line x1="655" y1="422" x2="922" y2="396" stroke="#7B6FE0" stroke-width="1.2" opacity="0.11"/><line x1="414" y1="338" x2="254" y2="317" stroke="#7B6FE0" stroke-width="1.2" opacity="0.19"/><line x1="414" y1="338" x2="111" y2="462" stroke="#7B6FE0" stroke-width="1.2" opacity="0.06"/><line x1="768" y1="506" x2="951" y2="536" stroke="#7B6FE0" stroke-width="1.2" opacity="0.17"/><line x1="768" y1="506" x2="922" y2="396" stroke="#7B6FE0" stroke-width="1.2" opacity="0.17"/><line x1="951" y1="536" x2="922" y2="396" stroke="#7B6FE0" stroke-width="1.2" opacity="0.21"/><line x1="254" y1="317" x2="111" y2="462" stroke="#7B6FE0" stroke-width="1.2" opacity="0.16"/><circle cx="339" cy="368" r="4" fill="#7B6FE0" opacity="0.55"/><circle cx="823" cy="214" r="2.5" fill="#7B6FE0" opacity="0.55"/><circle cx="670" cy="532" r="2.5" fill="#7B6FE0" opacity="0.55"/><circle cx="977" cy="327" r="2.5" fill="#7B6FE0" opacity="0.55"/><circle cx="655" cy="422" r="3" fill="#7B6FE0" opacity="0.55"/><circle cx="414" cy="338" r="3" fill="#7B6FE0" opacity="0.55"/><circle cx="768" cy="506" r="4" fill="#7B6FE0" opacity="0.55"/><circle cx="951" cy="536" r="2.5" fill="#7B6FE0" opacity="0.55"/><circle cx="254" cy="317" r="4" fill="#7B6FE0" opacity="0.55"/><circle cx="922" cy="396" r="4" fill="#7B6FE0" opacity="0.55"/><circle cx="111" cy="462" r="2.5" fill="#7B6FE0" opacity="0.55"/>
  <circle cx="1070" cy="120" r="54" fill="#FBFAF6" opacity="0.12"/>
  <text x="1070" y="120" font-size="52" text-anchor="middle" dominant-baseline="central">✦</text>
  <g font-family="'Changa','Segoe UI',sans-serif" fill="#FBFAF6">
    <rect x="64" y="480" width="14" height="86" rx="4" fill="#7B6FE0"/>
    <text x="92" y="520" font-size="30" font-weight="700" opacity="0.92">Gemini</text>
    <text x="92" y="564" font-size="22" opacity="0.6">nawahlabs.com · نَوَاة</text>
  </g>
</svg>