<svg xmlns="http://www.w3.org/2000/svg" viewBox="0 0 1200 630" width="1200" height="630" role="img" aria-label="ChatGPT">
  <defs>
    <linearGradient id="g95246" x1="0" y1="0" x2="1" y2="1">
      <stop offset="0" stop-color="#0E8F8F"/>
      <stop offset="1" stop-color="#221E66"/>
    </linearGradient>
    <radialGradient id="g95246r" cx="0.75" cy="0.25" r="0.9">
      <stop offset="0" stop-color="#34D3C0" stop-opacity="0.35"/>
      <stop offset="0.6" stop-color="#34D3C0" stop-opacity="0"/>
    </radialGradient>
  </defs>
  <rect width="1200" height="630" fill="url(#g95246)"/>
  <rect width="1200" height="630" fill="url(#g95246r)"/>
  <line x1="103" y1="404" x2="420" y2="395" stroke="#34D3C0" stroke-width="1.2" opacity="0.07"/><line x1="1001" y1="202" x2="935" y2="192" stroke="#34D3C0" stroke-width="1.2" opacity="0.27"/><line x1="1001" y1="202" x2="1102" y2="393" stroke="#34D3C0" stroke-width="1.2" opacity="0.15"/><line x1="1001" y1="202" x2="937" y2="147" stroke="#34D3C0" stroke-width="1.2" opacity="0.25"/><line x1="1001" y1="202" x2="876" y2="448" stroke="#34D3C0" stroke-width="1.2" opacity="0.1"/><line x1="935" y1="192" x2="1102" y2="393" stroke="#34D3C0" stroke-width="1.2" opacity="0.11"/><line x1="935" y1="192" x2="937" y2="147" stroke="#34D3C0" stroke-width="1.2" opacity="0.28"/><line x1="935" y1="192" x2="876" y2="448" stroke="#34D3C0" stroke-width="1.2" opacity="0.11"/><line x1="1102" y1="393" x2="937" y2="147" stroke="#34D3C0" stroke-width="1.2" opacity="0.08"/><line x1="1102" y1="393" x2="815" y2="569" stroke="#34D3C0" stroke-width="1.2" opacity="0.05"/><line x1="1102" y1="393" x2="876" y2="448" stroke="#34D3C0" stroke-width="1.2" opacity="0.14"/><line x1="1102" y1="393" x2="880" y2="535" stroke="#34D3C0" stroke-width="1.2" opacity="0.11"/><line x1="937" y1="147" x2="876" y2="448" stroke="#34D3C0" stroke-width="1.2" opacity="0.08"/><line x1="420" y1="395" x2="353" y2="156" stroke="#34D3C0" stroke-width="1.2" opacity="0.12"/><line x1="420" y1="395" x2="455" y2="236" stroke="#34D3C0" stroke-width="1.2" opacity="0.19"/><line x1="815" y1="569" x2="876" y2="448" stroke="#34D3C0" stroke-width="1.2" opacity="0.21"/><line x1="815" y1="569" x2="880" y2="535" stroke="#34D3C0" stroke-width="1.2" opacity="0.26"/><line x1="353" y1="156" x2="455" y2="236" stroke="#34D3C0" stroke-width="1.2" opacity="0.22"/><line x1="876" y1="448" x2="880" y2="535" stroke="#34D3C0" stroke-width="1.2" opacity="0.25"/><circle cx="103" cy="404" r="4" fill="#34D3C0" opacity="0.55"/><circle cx="1001" cy="202" r="2.5" fill="#34D3C0" opacity="0.55"/><circle cx="935" cy="192" r="2.5" fill="#34D3C0" opacity="0.55"/><circle cx="1102" cy="393" r="2.5" fill="#34D3C0" opacity="0.55"/><circle cx="937" cy="147" r="4" fill="#34D3C0" opacity="0.55"/><circle cx="420" cy="395" r="4" fill="#34D3C0" opacity="0.55"/><circle cx="815" cy="569" r="2.5" fill="#34D3C0" opacity="0.55"/><circle cx="353" cy="156" r="2.5" fill="#34D3C0" opacity="0.55"/><circle cx="455" cy="236" r="2.5" fill="#34D3C0" opacity="0.55"/><circle cx="876" cy="448" r="2.5" fill="#34D3C0" opacity="0.55"/><circle cx="880" cy="535" r="2.5" fill="#34D3C0" opacity="0.55"/>
  <circle cx="1070" cy="120" r="54" fill="#FBFAF6" opacity="0.12"/>
  <text x="1070" y="120" font-size="52" text-anchor="middle" dominant-baseline="central">💬</text>
  <g font-family="'Changa','Segoe UI',sans-serif" fill="#FBFAF6">
    <rect x="64" y="480" width="14" height="86" rx="4" fill="#34D3C0"/>
    <text x="92" y="520" font-size="30" font-weight="700" opacity="0.92">ChatGPT</text>
    <text x="92" y="564" font-size="22" opacity="0.6">nawahlabs.com · نَوَاة</text>
  </g>
</svg>