<svg xmlns="http://www.w3.org/2000/svg" viewBox="0 0 1200 630" width="1200" height="630" role="img" aria-label="ChatGPT">
  <defs>
    <linearGradient id="g51922" x1="0" y1="0" x2="1" y2="1">
      <stop offset="0" stop-color="#0E8F8F"/>
      <stop offset="1" stop-color="#221E66"/>
    </linearGradient>
    <radialGradient id="g51922r" cx="0.75" cy="0.25" r="0.9">
      <stop offset="0" stop-color="#34D3C0" stop-opacity="0.35"/>
      <stop offset="0.6" stop-color="#34D3C0" stop-opacity="0"/>
    </radialGradient>
  </defs>
  <rect width="1200" height="630" fill="url(#g51922)"/>
  <rect width="1200" height="630" fill="url(#g51922r)"/>
  <line x1="416" y1="301" x2="388" y2="186" stroke="#34D3C0" stroke-width="1.2" opacity="0.23"/><line x1="416" y1="301" x2="228" y2="421" stroke="#34D3C0" stroke-width="1.2" opacity="0.14"/><line x1="416" y1="301" x2="540" y2="164" stroke="#34D3C0" stroke-width="1.2" opacity="0.17"/><line x1="416" y1="301" x2="701" y2="387" stroke="#34D3C0" stroke-width="1.2" opacity="0.08"/><line x1="416" y1="301" x2="482" y2="130" stroke="#34D3C0" stroke-width="1.2" opacity="0.17"/><line x1="416" y1="301" x2="515" y2="515" stroke="#34D3C0" stroke-width="1.2" opacity="0.13"/><line x1="739" y1="167" x2="540" y2="164" stroke="#34D3C0" stroke-width="1.2" opacity="0.16"/><line x1="739" y1="167" x2="701" y2="387" stroke="#34D3C0" stroke-width="1.2" opacity="0.14"/><line x1="739" y1="167" x2="482" y2="130" stroke="#34D3C0" stroke-width="1.2" opacity="0.11"/><line x1="739" y1="167" x2="841" y2="443" stroke="#34D3C0" stroke-width="1.2" opacity="0.09"/><line x1="739" y1="167" x2="763" y2="95" stroke="#34D3C0" stroke-width="1.2" opacity="0.26"/><line x1="739" y1="167" x2="881" y2="110" stroke="#34D3C0" stroke-width="1.2" opacity="0.2"/><line x1="388" y1="186" x2="228" y2="421" stroke="#34D3C0" stroke-width="1.2" opacity="0.09"/><line x1="388" y1="186" x2="540" y2="164" stroke="#34D3C0" stroke-width="1.2" opacity="0.2"/><line x1="388" y1="186" x2="482" y2="130" stroke="#34D3C0" stroke-width="1.2" opacity="0.23"/><line x1="228" y1="421" x2="515" y2="515" stroke="#34D3C0" stroke-width="1.2" opacity="0.08"/><line x1="540" y1="164" x2="701" y2="387" stroke="#34D3C0" stroke-width="1.2" opacity="0.1"/><line x1="540" y1="164" x2="482" y2="130" stroke="#34D3C0" stroke-width="1.2" opacity="0.27"/><line x1="540" y1="164" x2="763" y2="95" stroke="#34D3C0" stroke-width="1.2" opacity="0.13"/><line x1="701" y1="387" x2="482" y2="130" stroke="#34D3C0" stroke-width="1.2" opacity="0.05"/><line x1="701" y1="387" x2="515" y2="515" stroke="#34D3C0" stroke-width="1.2" opacity="0.14"/><line x1="701" y1="387" x2="841" y2="443" stroke="#34D3C0" stroke-width="1.2" opacity="0.2"/><line x1="701" y1="387" x2="763" y2="95" stroke="#34D3C0" stroke-width="1.2" opacity="0.08"/><line x1="701" y1="387" x2="881" y2="110" stroke="#34D3C0" stroke-width="1.2" opacity="0.06"/><line x1="482" y1="130" x2="763" y2="95" stroke="#34D3C0" stroke-width="1.2" opacity="0.1"/><line x1="515" y1="515" x2="841" y2="443" stroke="#34D3C0" stroke-width="1.2" opacity="0.05"/><line x1="841" y1="443" x2="881" y2="110" stroke="#34D3C0" stroke-width="1.2" opacity="0.05"/><line x1="763" y1="95" x2="881" y2="110" stroke="#34D3C0" stroke-width="1.2" opacity="0.23"/><circle cx="416" cy="301" r="3" fill="#34D3C0" opacity="0.55"/><circle cx="739" cy="167" r="2.5" fill="#34D3C0" opacity="0.55"/><circle cx="388" cy="186" r="3" fill="#34D3C0" opacity="0.55"/><circle cx="228" cy="421" r="3" fill="#34D3C0" opacity="0.55"/><circle cx="540" cy="164" r="2.5" fill="#34D3C0" opacity="0.55"/><circle cx="701" cy="387" r="3" fill="#34D3C0" opacity="0.55"/><circle cx="482" cy="130" r="2.5" fill="#34D3C0" opacity="0.55"/><circle cx="515" cy="515" r="3" fill="#34D3C0" opacity="0.55"/><circle cx="841" cy="443" r="3" fill="#34D3C0" opacity="0.55"/><circle cx="763" cy="95" r="4" fill="#34D3C0" opacity="0.55"/><circle cx="881" cy="110" r="3" fill="#34D3C0" opacity="0.55"/>
  <circle cx="1070" cy="120" r="54" fill="#FBFAF6" opacity="0.12"/>
  <text x="1070" y="120" font-size="52" text-anchor="middle" dominant-baseline="central">💬</text>
  <g font-family="'Changa','Segoe UI',sans-serif" fill="#FBFAF6">
    <rect x="64" y="480" width="14" height="86" rx="4" fill="#34D3C0"/>
    <text x="92" y="520" font-size="30" font-weight="700" opacity="0.92">ChatGPT</text>
    <text x="92" y="564" font-size="22" opacity="0.6">nawahlabs.com · نَوَاة</text>
  </g>
</svg>