<svg xmlns="http://www.w3.org/2000/svg" viewBox="0 0 1200 630" width="1200" height="630" role="img" aria-label="أدوات الذكاء الاصطناعي">
  <defs>
    <linearGradient id="g50416" x1="0" y1="0" x2="1" y2="1">
      <stop offset="0" stop-color="#221E66"/>
      <stop offset="1" stop-color="#0E8F8F"/>
    </linearGradient>
    <radialGradient id="g50416r" cx="0.75" cy="0.25" r="0.9">
      <stop offset="0" stop-color="#34D3C0" stop-opacity="0.35"/>
      <stop offset="0.6" stop-color="#34D3C0" stop-opacity="0"/>
    </radialGradient>
  </defs>
  <rect width="1200" height="630" fill="url(#g50416)"/>
  <rect width="1200" height="630" fill="url(#g50416r)"/>
  <line x1="92" y1="93" x2="233" y2="79" stroke="#34D3C0" stroke-width="1.2" opacity="0.21"/><line x1="92" y1="93" x2="177" y2="355" stroke="#34D3C0" stroke-width="1.2" opacity="0.1"/><line x1="910" y1="263" x2="1061" y2="288" stroke="#34D3C0" stroke-width="1.2" opacity="0.2"/><line x1="910" y1="263" x2="947" y2="171" stroke="#34D3C0" stroke-width="1.2" opacity="0.24"/><line x1="910" y1="263" x2="653" y2="72" stroke="#34D3C0" stroke-width="1.2" opacity="0.07"/><line x1="1061" y1="288" x2="947" y2="171" stroke="#34D3C0" stroke-width="1.2" opacity="0.19"/><line x1="947" y1="171" x2="653" y2="72" stroke="#34D3C0" stroke-width="1.2" opacity="0.07"/><line x1="537" y1="340" x2="667" y2="558" stroke="#34D3C0" stroke-width="1.2" opacity="0.12"/><line x1="537" y1="340" x2="560" y2="100" stroke="#34D3C0" stroke-width="1.2" opacity="0.13"/><line x1="537" y1="340" x2="653" y2="72" stroke="#34D3C0" stroke-width="1.2" opacity="0.09"/><line x1="537" y1="340" x2="614" y2="65" stroke="#34D3C0" stroke-width="1.2" opacity="0.09"/><line x1="233" y1="79" x2="560" y2="100" stroke="#34D3C0" stroke-width="1.2" opacity="0.06"/><line x1="233" y1="79" x2="177" y2="355" stroke="#34D3C0" stroke-width="1.2" opacity="0.1"/><line x1="560" y1="100" x2="653" y2="72" stroke="#34D3C0" stroke-width="1.2" opacity="0.24"/><line x1="560" y1="100" x2="614" y2="65" stroke="#34D3C0" stroke-width="1.2" opacity="0.27"/><line x1="653" y1="72" x2="614" y2="65" stroke="#34D3C0" stroke-width="1.2" opacity="0.29"/><circle cx="92" cy="93" r="2.5" fill="#34D3C0" opacity="0.55"/><circle cx="910" cy="263" r="2.5" fill="#34D3C0" opacity="0.55"/><circle cx="1061" cy="288" r="4" fill="#34D3C0" opacity="0.55"/><circle cx="947" cy="171" r="2.5" fill="#34D3C0" opacity="0.55"/><circle cx="537" cy="340" r="3" fill="#34D3C0" opacity="0.55"/><circle cx="667" cy="558" r="2.5" fill="#34D3C0" opacity="0.55"/><circle cx="233" cy="79" r="4" fill="#34D3C0" opacity="0.55"/><circle cx="560" cy="100" r="2.5" fill="#34D3C0" opacity="0.55"/><circle cx="653" cy="72" r="4" fill="#34D3C0" opacity="0.55"/><circle cx="614" cy="65" r="3" fill="#34D3C0" opacity="0.55"/><circle cx="177" cy="355" r="2.5" fill="#34D3C0" opacity="0.55"/>
  <circle cx="1070" cy="120" r="54" fill="#FBFAF6" opacity="0.12"/>
  <text x="1070" y="120" font-size="52" text-anchor="middle" dominant-baseline="central">⚙</text>
  <g font-family="'Changa','Segoe UI',sans-serif" fill="#FBFAF6">
    <rect x="64" y="480" width="14" height="86" rx="4" fill="#34D3C0"/>
    <text x="92" y="520" font-size="30" font-weight="700" opacity="0.92">أدوات الذكاء الاصطناعي</text>
    <text x="92" y="564" font-size="22" opacity="0.6">nawahlabs.com · نَوَاة</text>
  </g>
</svg>