<svg xmlns="http://www.w3.org/2000/svg" viewBox="0 0 1200 630" width="1200" height="630" role="img" aria-label="أدوات الذكاء الاصطناعي">
  <defs>
    <linearGradient id="g974" x1="0" y1="0" x2="1" y2="1">
      <stop offset="0" stop-color="#221E66"/>
      <stop offset="1" stop-color="#0E8F8F"/>
    </linearGradient>
    <radialGradient id="g974r" cx="0.75" cy="0.25" r="0.9">
      <stop offset="0" stop-color="#34D3C0" stop-opacity="0.35"/>
      <stop offset="0.6" stop-color="#34D3C0" stop-opacity="0"/>
    </radialGradient>
  </defs>
  <rect width="1200" height="630" fill="url(#g974)"/>
  <rect width="1200" height="630" fill="url(#g974r)"/>
  <line x1="786" y1="392" x2="505" y2="563" stroke="#34D3C0" stroke-width="1.2" opacity="0.06"/><line x1="786" y1="392" x2="608" y2="369" stroke="#34D3C0" stroke-width="1.2" opacity="0.18"/><line x1="786" y1="392" x2="478" y2="289" stroke="#34D3C0" stroke-width="1.2" opacity="0.06"/><line x1="786" y1="392" x2="980" y2="152" stroke="#34D3C0" stroke-width="1.2" opacity="0.07"/><line x1="505" y1="563" x2="608" y2="369" stroke="#34D3C0" stroke-width="1.2" opacity="0.15"/><line x1="505" y1="563" x2="342" y2="450" stroke="#34D3C0" stroke-width="1.2" opacity="0.16"/><line x1="505" y1="563" x2="478" y2="289" stroke="#34D3C0" stroke-width="1.2" opacity="0.1"/><line x1="608" y1="369" x2="342" y2="450" stroke="#34D3C0" stroke-width="1.2" opacity="0.1"/><line x1="608" y1="369" x2="478" y2="289" stroke="#34D3C0" stroke-width="1.2" opacity="0.2"/><line x1="608" y1="369" x2="544" y2="81" stroke="#34D3C0" stroke-width="1.2" opacity="0.09"/><line x1="608" y1="369" x2="427" y2="172" stroke="#34D3C0" stroke-width="1.2" opacity="0.11"/><line x1="608" y1="369" x2="455" y2="148" stroke="#34D3C0" stroke-width="1.2" opacity="0.11"/><line x1="1008" y1="125" x2="980" y2="152" stroke="#34D3C0" stroke-width="1.2" opacity="0.29"/><line x1="342" y1="450" x2="478" y2="289" stroke="#34D3C0" stroke-width="1.2" opacity="0.15"/><line x1="342" y1="450" x2="427" y2="172" stroke="#34D3C0" stroke-width="1.2" opacity="0.09"/><line x1="342" y1="450" x2="276" y2="162" stroke="#34D3C0" stroke-width="1.2" opacity="0.09"/><line x1="342" y1="450" x2="455" y2="148" stroke="#34D3C0" stroke-width="1.2" opacity="0.06"/><line x1="478" y1="289" x2="544" y2="81" stroke="#34D3C0" stroke-width="1.2" opacity="0.15"/><line x1="478" y1="289" x2="427" y2="172" stroke="#34D3C0" stroke-width="1.2" opacity="0.22"/><line x1="478" y1="289" x2="276" y2="162" stroke="#34D3C0" stroke-width="1.2" opacity="0.13"/><line x1="478" y1="289" x2="455" y2="148" stroke="#34D3C0" stroke-width="1.2" opacity="0.21"/><line x1="544" y1="81" x2="427" y2="172" stroke="#34D3C0" stroke-width="1.2" opacity="0.2"/><line x1="544" y1="81" x2="276" y2="162" stroke="#34D3C0" stroke-width="1.2" opacity="0.1"/><line x1="544" y1="81" x2="455" y2="148" stroke="#34D3C0" stroke-width="1.2" opacity="0.23"/><line x1="427" y1="172" x2="276" y2="162" stroke="#34D3C0" stroke-width="1.2" opacity="0.2"/><line x1="427" y1="172" x2="455" y2="148" stroke="#34D3C0" stroke-width="1.2" opacity="0.29"/><line x1="276" y1="162" x2="455" y2="148" stroke="#34D3C0" stroke-width="1.2" opacity="0.18"/><circle cx="786" cy="392" r="2.5" fill="#34D3C0" opacity="0.55"/><circle cx="505" cy="563" r="4" fill="#34D3C0" opacity="0.55"/><circle cx="608" cy="369" r="2.5" fill="#34D3C0" opacity="0.55"/><circle cx="1008" cy="125" r="3" fill="#34D3C0" opacity="0.55"/><circle cx="342" cy="450" r="2.5" fill="#34D3C0" opacity="0.55"/><circle cx="478" cy="289" r="4" fill="#34D3C0" opacity="0.55"/><circle cx="544" cy="81" r="3" fill="#34D3C0" opacity="0.55"/><circle cx="427" cy="172" r="4" fill="#34D3C0" opacity="0.55"/><circle cx="276" cy="162" r="4" fill="#34D3C0" opacity="0.55"/><circle cx="980" cy="152" r="3" fill="#34D3C0" opacity="0.55"/><circle cx="455" cy="148" r="4" fill="#34D3C0" opacity="0.55"/>
  <circle cx="1070" cy="120" r="54" fill="#FBFAF6" opacity="0.12"/>
  <text x="1070" y="120" font-size="52" text-anchor="middle" dominant-baseline="central">⚙</text>
  <g font-family="'Changa','Segoe UI',sans-serif" fill="#FBFAF6">
    <rect x="64" y="480" width="14" height="86" rx="4" fill="#34D3C0"/>
    <text x="92" y="520" font-size="30" font-weight="700" opacity="0.92">أدوات الذكاء الاصطناعي</text>
    <text x="92" y="564" font-size="22" opacity="0.6">nawahlabs.com · نَوَاة</text>
  </g>
</svg>