<svg xmlns="http://www.w3.org/2000/svg" viewBox="0 0 1200 630" width="1200" height="630" role="img" aria-label="الربح من الذكاء الاصطناعي">
  <defs>
    <linearGradient id="g93581" x1="0" y1="0" x2="1" y2="1">
      <stop offset="0" stop-color="#0E8F8F"/>
      <stop offset="1" stop-color="#221E66"/>
    </linearGradient>
    <radialGradient id="g93581r" cx="0.75" cy="0.25" r="0.9">
      <stop offset="0" stop-color="#D98E2B" stop-opacity="0.35"/>
      <stop offset="0.6" stop-color="#D98E2B" stop-opacity="0"/>
    </radialGradient>
  </defs>
  <rect width="1200" height="630" fill="url(#g93581)"/>
  <rect width="1200" height="630" fill="url(#g93581r)"/>
  <line x1="646" y1="567" x2="559" y2="280" stroke="#D98E2B" stroke-width="1.2" opacity="0.08"/><line x1="646" y1="567" x2="500" y2="503" stroke="#D98E2B" stroke-width="1.2" opacity="0.19"/><line x1="646" y1="567" x2="539" y2="350" stroke="#D98E2B" stroke-width="1.2" opacity="0.13"/><line x1="253" y1="445" x2="260" y2="251" stroke="#D98E2B" stroke-width="1.2" opacity="0.17"/><line x1="253" y1="445" x2="500" y2="503" stroke="#D98E2B" stroke-width="1.2" opacity="0.12"/><line x1="253" y1="445" x2="539" y2="350" stroke="#D98E2B" stroke-width="1.2" opacity="0.08"/><line x1="253" y1="445" x2="97" y2="364" stroke="#D98E2B" stroke-width="1.2" opacity="0.18"/><line x1="253" y1="445" x2="477" y2="216" stroke="#D98E2B" stroke-width="1.2" opacity="0.07"/><line x1="489" y1="100" x2="260" y2="251" stroke="#D98E2B" stroke-width="1.2" opacity="0.1"/><line x1="489" y1="100" x2="559" y2="280" stroke="#D98E2B" stroke-width="1.2" opacity="0.17"/><line x1="489" y1="100" x2="539" y2="350" stroke="#D98E2B" stroke-width="1.2" opacity="0.12"/><line x1="489" y1="100" x2="290" y2="63" stroke="#D98E2B" stroke-width="1.2" opacity="0.16"/><line x1="489" y1="100" x2="477" y2="216" stroke="#D98E2B" stroke-width="1.2" opacity="0.23"/><line x1="260" y1="251" x2="559" y2="280" stroke="#D98E2B" stroke-width="1.2" opacity="0.08"/><line x1="260" y1="251" x2="539" y2="350" stroke="#D98E2B" stroke-width="1.2" opacity="0.08"/><line x1="260" y1="251" x2="290" y2="63" stroke="#D98E2B" stroke-width="1.2" opacity="0.17"/><line x1="260" y1="251" x2="97" y2="364" stroke="#D98E2B" stroke-width="1.2" opacity="0.16"/><line x1="260" y1="251" x2="477" y2="216" stroke="#D98E2B" stroke-width="1.2" opacity="0.15"/><line x1="559" y1="280" x2="500" y2="503" stroke="#D98E2B" stroke-width="1.2" opacity="0.14"/><line x1="559" y1="280" x2="539" y2="350" stroke="#D98E2B" stroke-width="1.2" opacity="0.26"/><line x1="559" y1="280" x2="477" y2="216" stroke="#D98E2B" stroke-width="1.2" opacity="0.24"/><line x1="500" y1="503" x2="539" y2="350" stroke="#D98E2B" stroke-width="1.2" opacity="0.19"/><line x1="500" y1="503" x2="477" y2="216" stroke="#D98E2B" stroke-width="1.2" opacity="0.09"/><line x1="539" y1="350" x2="477" y2="216" stroke="#D98E2B" stroke-width="1.2" opacity="0.2"/><line x1="290" y1="63" x2="477" y2="216" stroke="#D98E2B" stroke-width="1.2" opacity="0.13"/><circle cx="646" cy="567" r="4" fill="#D98E2B" opacity="0.55"/><circle cx="253" cy="445" r="2.5" fill="#D98E2B" opacity="0.55"/><circle cx="489" cy="100" r="2.5" fill="#D98E2B" opacity="0.55"/><circle cx="260" cy="251" r="3" fill="#D98E2B" opacity="0.55"/><circle cx="559" cy="280" r="2.5" fill="#D98E2B" opacity="0.55"/><circle cx="500" cy="503" r="2.5" fill="#D98E2B" opacity="0.55"/><circle cx="539" cy="350" r="2.5" fill="#D98E2B" opacity="0.55"/><circle cx="290" cy="63" r="2.5" fill="#D98E2B" opacity="0.55"/><circle cx="971" cy="253" r="2.5" fill="#D98E2B" opacity="0.55"/><circle cx="97" cy="364" r="4" fill="#D98E2B" opacity="0.55"/><circle cx="477" cy="216" r="2.5" fill="#D98E2B" opacity="0.55"/>
  <circle cx="1070" cy="120" r="54" fill="#FBFAF6" opacity="0.12"/>
  <text x="1070" y="120" font-size="52" text-anchor="middle" dominant-baseline="central">📈</text>
  <g font-family="'Changa','Segoe UI',sans-serif" fill="#FBFAF6">
    <rect x="64" y="480" width="14" height="86" rx="4" fill="#D98E2B"/>
    <text x="92" y="520" font-size="30" font-weight="700" opacity="0.92">الربح من الذكاء الاصطناعي</text>
    <text x="92" y="564" font-size="22" opacity="0.6">nawahlabs.com · نَوَاة</text>
  </g>
</svg>