<svg xmlns="http://www.w3.org/2000/svg" viewBox="0 0 1200 630" width="1200" height="630" role="img" aria-label="Claude">
  <defs>
    <linearGradient id="g74689" x1="0" y1="0" x2="1" y2="1">
      <stop offset="0" stop-color="#D98E2B"/>
      <stop offset="1" stop-color="#221E66"/>
    </linearGradient>
    <radialGradient id="g74689r" cx="0.75" cy="0.25" r="0.9">
      <stop offset="0" stop-color="#F0B45E" stop-opacity="0.35"/>
      <stop offset="0.6" stop-color="#F0B45E" stop-opacity="0"/>
    </radialGradient>
  </defs>
  <rect width="1200" height="630" fill="url(#g74689)"/>
  <rect width="1200" height="630" fill="url(#g74689r)"/>
  <line x1="190" y1="60" x2="310" y2="238" stroke="#F0B45E" stroke-width="1.2" opacity="0.15"/><line x1="190" y1="60" x2="156" y2="158" stroke="#F0B45E" stroke-width="1.2" opacity="0.24"/><line x1="190" y1="60" x2="495" y2="131" stroke="#F0B45E" stroke-width="1.2" opacity="0.07"/><line x1="190" y1="60" x2="510" y2="125" stroke="#F0B45E" stroke-width="1.2" opacity="0.06"/><line x1="190" y1="60" x2="236" y2="380" stroke="#F0B45E" stroke-width="1.2" opacity="0.06"/><line x1="310" y1="238" x2="527" y2="369" stroke="#F0B45E" stroke-width="1.2" opacity="0.12"/><line x1="310" y1="238" x2="291" y2="511" stroke="#F0B45E" stroke-width="1.2" opacity="0.1"/><line x1="310" y1="238" x2="557" y2="324" stroke="#F0B45E" stroke-width="1.2" opacity="0.11"/><line x1="310" y1="238" x2="156" y2="158" stroke="#F0B45E" stroke-width="1.2" opacity="0.18"/><line x1="310" y1="238" x2="495" y2="131" stroke="#F0B45E" stroke-width="1.2" opacity="0.15"/><line x1="310" y1="238" x2="510" y2="125" stroke="#F0B45E" stroke-width="1.2" opacity="0.14"/><line x1="310" y1="238" x2="236" y2="380" stroke="#F0B45E" stroke-width="1.2" opacity="0.19"/><line x1="527" y1="369" x2="291" y2="511" stroke="#F0B45E" stroke-width="1.2" opacity="0.1"/><line x1="527" y1="369" x2="742" y2="188" stroke="#F0B45E" stroke-width="1.2" opacity="0.1"/><line x1="527" y1="369" x2="557" y2="324" stroke="#F0B45E" stroke-width="1.2" opacity="0.28"/><line x1="527" y1="369" x2="495" y2="131" stroke="#F0B45E" stroke-width="1.2" opacity="0.13"/><line x1="527" y1="369" x2="645" y2="476" stroke="#F0B45E" stroke-width="1.2" opacity="0.19"/><line x1="527" y1="369" x2="510" y2="125" stroke="#F0B45E" stroke-width="1.2" opacity="0.13"/><line x1="527" y1="369" x2="236" y2="380" stroke="#F0B45E" stroke-width="1.2" opacity="0.09"/><line x1="291" y1="511" x2="557" y2="324" stroke="#F0B45E" stroke-width="1.2" opacity="0.06"/><line x1="291" y1="511" x2="236" y2="380" stroke="#F0B45E" stroke-width="1.2" opacity="0.21"/><line x1="742" y1="188" x2="557" y2="324" stroke="#F0B45E" stroke-width="1.2" opacity="0.14"/><line x1="742" y1="188" x2="495" y2="131" stroke="#F0B45E" stroke-width="1.2" opacity="0.12"/><line x1="742" y1="188" x2="645" y2="476" stroke="#F0B45E" stroke-width="1.2" opacity="0.08"/><line x1="742" y1="188" x2="510" y2="125" stroke="#F0B45E" stroke-width="1.2" opacity="0.13"/><line x1="557" y1="324" x2="495" y2="131" stroke="#F0B45E" stroke-width="1.2" opacity="0.16"/><line x1="557" y1="324" x2="645" y2="476" stroke="#F0B45E" stroke-width="1.2" opacity="0.18"/><line x1="557" y1="324" x2="510" y2="125" stroke="#F0B45E" stroke-width="1.2" opacity="0.16"/><line x1="557" y1="324" x2="236" y2="380" stroke="#F0B45E" stroke-width="1.2" opacity="0.06"/><line x1="156" y1="158" x2="236" y2="380" stroke="#F0B45E" stroke-width="1.2" opacity="0.13"/><line x1="495" y1="131" x2="510" y2="125" stroke="#F0B45E" stroke-width="1.2" opacity="0.31"/><circle cx="190" cy="60" r="2.5" fill="#F0B45E" opacity="0.55"/><circle cx="310" cy="238" r="4" fill="#F0B45E" opacity="0.55"/><circle cx="527" cy="369" r="2.5" fill="#F0B45E" opacity="0.55"/><circle cx="291" cy="511" r="3" fill="#F0B45E" opacity="0.55"/><circle cx="742" cy="188" r="2.5" fill="#F0B45E" opacity="0.55"/><circle cx="557" cy="324" r="4" fill="#F0B45E" opacity="0.55"/><circle cx="156" cy="158" r="4" fill="#F0B45E" opacity="0.55"/><circle cx="495" cy="131" r="3" fill="#F0B45E" opacity="0.55"/><circle cx="645" cy="476" r="4" fill="#F0B45E" opacity="0.55"/><circle cx="510" cy="125" r="3" fill="#F0B45E" opacity="0.55"/><circle cx="236" cy="380" r="4" fill="#F0B45E" opacity="0.55"/>
  <circle cx="1070" cy="120" r="54" fill="#FBFAF6" opacity="0.12"/>
  <text x="1070" y="120" font-size="52" text-anchor="middle" dominant-baseline="central">📝</text>
  <g font-family="'Changa','Segoe UI',sans-serif" fill="#FBFAF6">
    <rect x="64" y="480" width="14" height="86" rx="4" fill="#F0B45E"/>
    <text x="92" y="520" font-size="30" font-weight="700" opacity="0.92">Claude</text>
    <text x="92" y="564" font-size="22" opacity="0.6">nawahlabs.com · نَوَاة</text>
  </g>
</svg>