<svg xmlns="http://www.w3.org/2000/svg" viewBox="0 0 1200 630" width="1200" height="630" role="img" aria-label="الربح من الذكاء الاصطناعي">
  <defs>
    <linearGradient id="g13305" x1="0" y1="0" x2="1" y2="1">
      <stop offset="0" stop-color="#0E8F8F"/>
      <stop offset="1" stop-color="#221E66"/>
    </linearGradient>
    <radialGradient id="g13305r" cx="0.75" cy="0.25" r="0.9">
      <stop offset="0" stop-color="#D98E2B" stop-opacity="0.35"/>
      <stop offset="0.6" stop-color="#D98E2B" stop-opacity="0"/>
    </radialGradient>
  </defs>
  <rect width="1200" height="630" fill="url(#g13305)"/>
  <rect width="1200" height="630" fill="url(#g13305r)"/>
  <line x1="823" y1="418" x2="748" y2="220" stroke="#D98E2B" stroke-width="1.2" opacity="0.15"/><line x1="823" y1="418" x2="835" y2="231" stroke="#D98E2B" stroke-width="1.2" opacity="0.17"/><line x1="823" y1="418" x2="597" y2="191" stroke="#D98E2B" stroke-width="1.2" opacity="0.07"/><line x1="823" y1="418" x2="743" y2="107" stroke="#D98E2B" stroke-width="1.2" opacity="0.06"/><line x1="823" y1="418" x2="514" y2="480" stroke="#D98E2B" stroke-width="1.2" opacity="0.07"/><line x1="823" y1="418" x2="1055" y2="293" stroke="#D98E2B" stroke-width="1.2" opacity="0.11"/><line x1="748" y1="220" x2="835" y2="231" stroke="#D98E2B" stroke-width="1.2" opacity="0.25"/><line x1="748" y1="220" x2="597" y2="191" stroke="#D98E2B" stroke-width="1.2" opacity="0.2"/><line x1="748" y1="220" x2="743" y2="107" stroke="#D98E2B" stroke-width="1.2" opacity="0.23"/><line x1="748" y1="220" x2="1055" y2="293" stroke="#D98E2B" stroke-width="1.2" opacity="0.07"/><line x1="835" y1="231" x2="597" y2="191" stroke="#D98E2B" stroke-width="1.2" opacity="0.13"/><line x1="835" y1="231" x2="743" y2="107" stroke="#D98E2B" stroke-width="1.2" opacity="0.2"/><line x1="835" y1="231" x2="1055" y2="293" stroke="#D98E2B" stroke-width="1.2" opacity="0.14"/><line x1="835" y1="231" x2="1061" y2="85" stroke="#D98E2B" stroke-width="1.2" opacity="0.11"/><line x1="597" y1="191" x2="743" y2="107" stroke="#D98E2B" stroke-width="1.2" opacity="0.19"/><line x1="597" y1="191" x2="514" y2="480" stroke="#D98E2B" stroke-width="1.2" opacity="0.08"/><line x1="339" y1="510" x2="514" y2="480" stroke="#D98E2B" stroke-width="1.2" opacity="0.18"/><line x1="339" y1="510" x2="165" y2="249" stroke="#D98E2B" stroke-width="1.2" opacity="0.07"/><line x1="743" y1="107" x2="1061" y2="85" stroke="#D98E2B" stroke-width="1.2" opacity="0.07"/><line x1="165" y1="249" x2="130" y2="100" stroke="#D98E2B" stroke-width="1.2" opacity="0.2"/><line x1="1055" y1="293" x2="1061" y2="85" stroke="#D98E2B" stroke-width="1.2" opacity="0.15"/><circle cx="823" cy="418" r="4" fill="#D98E2B" opacity="0.55"/><circle cx="748" cy="220" r="3" fill="#D98E2B" opacity="0.55"/><circle cx="835" cy="231" r="2.5" fill="#D98E2B" opacity="0.55"/><circle cx="597" cy="191" r="3" fill="#D98E2B" opacity="0.55"/><circle cx="339" cy="510" r="2.5" fill="#D98E2B" opacity="0.55"/><circle cx="743" cy="107" r="4" fill="#D98E2B" opacity="0.55"/><circle cx="514" cy="480" r="3" fill="#D98E2B" opacity="0.55"/><circle cx="165" cy="249" r="3" fill="#D98E2B" opacity="0.55"/><circle cx="130" cy="100" r="3" fill="#D98E2B" opacity="0.55"/><circle cx="1055" cy="293" r="2.5" fill="#D98E2B" opacity="0.55"/><circle cx="1061" cy="85" r="4" fill="#D98E2B" opacity="0.55"/>
  <circle cx="1070" cy="120" r="54" fill="#FBFAF6" opacity="0.12"/>
  <text x="1070" y="120" font-size="52" text-anchor="middle" dominant-baseline="central">📈</text>
  <g font-family="'Changa','Segoe UI',sans-serif" fill="#FBFAF6">
    <rect x="64" y="480" width="14" height="86" rx="4" fill="#D98E2B"/>
    <text x="92" y="520" font-size="30" font-weight="700" opacity="0.92">الربح من الذكاء الاصطناعي</text>
    <text x="92" y="564" font-size="22" opacity="0.6">nawahlabs.com · نَوَاة</text>
  </g>
</svg>