<svg xmlns="http://www.w3.org/2000/svg" viewBox="0 0 1200 630" width="1200" height="630" role="img" aria-label="تعلم الذكاء الاصطناعي">
  <defs>
    <linearGradient id="g61165" x1="0" y1="0" x2="1" y2="1">
      <stop offset="0" stop-color="#34308F"/>
      <stop offset="1" stop-color="#221E66"/>
    </linearGradient>
    <radialGradient id="g61165r" cx="0.75" cy="0.25" r="0.9">
      <stop offset="0" stop-color="#7B6FE0" stop-opacity="0.35"/>
      <stop offset="0.6" stop-color="#7B6FE0" stop-opacity="0"/>
    </radialGradient>
  </defs>
  <rect width="1200" height="630" fill="url(#g61165)"/>
  <rect width="1200" height="630" fill="url(#g61165r)"/>
  <line x1="583" y1="197" x2="326" y2="287" stroke="#7B6FE0" stroke-width="1.2" opacity="0.1"/><line x1="583" y1="197" x2="435" y2="378" stroke="#7B6FE0" stroke-width="1.2" opacity="0.13"/><line x1="583" y1="197" x2="576" y2="170" stroke="#7B6FE0" stroke-width="1.2" opacity="0.3"/><line x1="583" y1="197" x2="807" y2="65" stroke="#7B6FE0" stroke-width="1.2" opacity="0.11"/><line x1="583" y1="197" x2="862" y2="381" stroke="#7B6FE0" stroke-width="1.2" opacity="0.05"/><line x1="326" y1="287" x2="435" y2="378" stroke="#7B6FE0" stroke-width="1.2" opacity="0.21"/><line x1="326" y1="287" x2="170" y2="83" stroke="#7B6FE0" stroke-width="1.2" opacity="0.12"/><line x1="326" y1="287" x2="253" y2="561" stroke="#7B6FE0" stroke-width="1.2" opacity="0.09"/><line x1="326" y1="287" x2="576" y2="170" stroke="#7B6FE0" stroke-width="1.2" opacity="0.1"/><line x1="435" y1="378" x2="253" y2="561" stroke="#7B6FE0" stroke-width="1.2" opacity="0.12"/><line x1="435" y1="378" x2="576" y2="170" stroke="#7B6FE0" stroke-width="1.2" opacity="0.12"/><line x1="576" y1="170" x2="807" y2="65" stroke="#7B6FE0" stroke-width="1.2" opacity="0.12"/><line x1="918" y1="567" x2="1139" y2="314" stroke="#7B6FE0" stroke-width="1.2" opacity="0.05"/><line x1="918" y1="567" x2="862" y2="381" stroke="#7B6FE0" stroke-width="1.2" opacity="0.17"/><line x1="1139" y1="314" x2="945" y2="153" stroke="#7B6FE0" stroke-width="1.2" opacity="0.12"/><line x1="1139" y1="314" x2="862" y2="381" stroke="#7B6FE0" stroke-width="1.2" opacity="0.09"/><line x1="807" y1="65" x2="945" y2="153" stroke="#7B6FE0" stroke-width="1.2" opacity="0.19"/><line x1="807" y1="65" x2="862" y2="381" stroke="#7B6FE0" stroke-width="1.2" opacity="0.07"/><line x1="945" y1="153" x2="862" y2="381" stroke="#7B6FE0" stroke-width="1.2" opacity="0.13"/><circle cx="583" cy="197" r="2.5" fill="#7B6FE0" opacity="0.55"/><circle cx="326" cy="287" r="2.5" fill="#7B6FE0" opacity="0.55"/><circle cx="435" cy="378" r="3" fill="#7B6FE0" opacity="0.55"/><circle cx="170" cy="83" r="2.5" fill="#7B6FE0" opacity="0.55"/><circle cx="253" cy="561" r="2.5" fill="#7B6FE0" opacity="0.55"/><circle cx="576" cy="170" r="3" fill="#7B6FE0" opacity="0.55"/><circle cx="918" cy="567" r="2.5" fill="#7B6FE0" opacity="0.55"/><circle cx="1139" cy="314" r="2.5" fill="#7B6FE0" opacity="0.55"/><circle cx="807" cy="65" r="2.5" fill="#7B6FE0" opacity="0.55"/><circle cx="945" cy="153" r="4" fill="#7B6FE0" opacity="0.55"/><circle cx="862" cy="381" r="4" fill="#7B6FE0" opacity="0.55"/>
  <circle cx="1070" cy="120" r="54" fill="#FBFAF6" opacity="0.12"/>
  <text x="1070" y="120" font-size="52" text-anchor="middle" dominant-baseline="central">🎓</text>
  <g font-family="'Changa','Segoe UI',sans-serif" fill="#FBFAF6">
    <rect x="64" y="480" width="14" height="86" rx="4" fill="#7B6FE0"/>
    <text x="92" y="520" font-size="30" font-weight="700" opacity="0.92">تعلم الذكاء الاصطناعي</text>
    <text x="92" y="564" font-size="22" opacity="0.6">nawahlabs.com · نَوَاة</text>
  </g>
</svg>