<svg xmlns="http://www.w3.org/2000/svg" viewBox="0 0 1200 630" width="1200" height="630" role="img" aria-label="التسويق">
  <defs>
    <linearGradient id="g20435" x1="0" y1="0" x2="1" y2="1">
      <stop offset="0" stop-color="#D98E2B"/>
      <stop offset="1" stop-color="#221E66"/>
    </linearGradient>
    <radialGradient id="g20435r" cx="0.75" cy="0.25" r="0.9">
      <stop offset="0" stop-color="#FFC107" stop-opacity="0.35"/>
      <stop offset="0.6" stop-color="#FFC107" stop-opacity="0"/>
    </radialGradient>
  </defs>
  <rect width="1200" height="630" fill="url(#g20435)"/>
  <rect width="1200" height="630" fill="url(#g20435r)"/>
  <line x1="242" y1="208" x2="163" y2="214" stroke="#FFC107" stroke-width="1.2" opacity="0.07"/><line x1="528" y1="355" x2="465" y2="353" stroke="#FFC107" stroke-width="1.2" opacity="0.07"/><line x1="745" y1="94" x2="835" y2="76" stroke="#FFC107" stroke-width="1.2" opacity="0.07"/><line x1="1104" y1="372" x2="1223" y2="342" stroke="#FFC107" stroke-width="1.2" opacity="0.07"/><line x1="433" y1="134" x2="540" y2="135" stroke="#FFC107" stroke-width="1.2" opacity="0.07"/><line x1="1026" y1="312" x2="1129" y2="304" stroke="#FFC107" stroke-width="1.2" opacity="0.07"/><line x1="150" y1="254" x2="119" y2="270" stroke="#FFC107" stroke-width="1.2" opacity="0.07"/><line x1="1101" y1="375" x2="1121" y2="357" stroke="#FFC107" stroke-width="1.2" opacity="0.07"/><circle cx="967" cy="216" r="3" fill="#FFC107" opacity="0.1"/><circle cx="942" cy="319" r="3" fill="#FFC107" opacity="0.1"/><circle cx="548" cy="69" r="4" fill="#FFC107" opacity="0.1"/><circle cx="90" cy="511" r="4" fill="#FFC107" opacity="0.1"/><circle cx="152" cy="213" r="4" fill="#FFC107" opacity="0.1"/><circle cx="838" cy="506" r="6" fill="#FFC107" opacity="0.1"/><circle cx="142" cy="456" r="6" fill="#FFC107" opacity="0.1"/><circle cx="309" cy="378" r="5" fill="#FFC107" opacity="0.1"/><circle cx="519" cy="439" r="4" fill="#FFC107" opacity="0.1"/><circle cx="1121" cy="214" r="5" fill="#FFC107" opacity="0.1"/><circle cx="517" cy="345" r="4" fill="#FFC107" opacity="0.1"/><circle cx="1067" cy="220" r="6" fill="#FFC107" opacity="0.1"/>
  <text x="600" y="150" text-anchor="middle" fill="#FFC107" font-size="30" font-weight="600" font-family="'IBM Plex Sans Arabic',sans-serif">التسويق</text>
  <line x1="500" y1="180" x2="700" y2="180" stroke="#FFC107" stroke-width="2" opacity="0.6"/>
  <text x="600" y="277" text-anchor="middle" fill="#FFFFFF" font-size="56" font-weight="800" font-family="'Changa',sans-serif">التسويق بالمحتوى</text><text x="600" y="349" text-anchor="middle" fill="#FFFFFF" font-size="56" font-weight="800" font-family="'Changa',sans-serif">بالذكاء الاصطناعي</text>
  <text x="600" y="540" text-anchor="middle" fill="#FFFFFF" font-size="28" font-weight="600" font-family="'Changa',sans-serif" opacity="0.85">نَوَاة</text>
</svg>