<svg xmlns="http://www.w3.org/2000/svg" viewBox="0 0 1200 630" width="1200" height="630" role="img" aria-label="التعليم">
  <defs>
    <linearGradient id="g63284" x1="0" y1="0" x2="1" y2="1">
      <stop offset="0" stop-color="#0E8F8F"/>
      <stop offset="1" stop-color="#221E66"/>
    </linearGradient>
    <radialGradient id="g63284r" cx="0.75" cy="0.25" r="0.9">
      <stop offset="0" stop-color="#34D3C0" stop-opacity="0.35"/>
      <stop offset="0.6" stop-color="#34D3C0" stop-opacity="0"/>
    </radialGradient>
  </defs>
  <rect width="1200" height="630" fill="url(#g63284)"/>
  <rect width="1200" height="630" fill="url(#g63284r)"/>
  <line x1="861" y1="165" x2="743" y2="157" stroke="#34D3C0" stroke-width="1.2" opacity="0.07"/><line x1="679" y1="106" x2="796" y2="132" stroke="#34D3C0" stroke-width="1.2" opacity="0.07"/><line x1="1044" y1="149" x2="1049" y2="172" stroke="#34D3C0" stroke-width="1.2" opacity="0.07"/><line x1="608" y1="107" x2="697" y2="131" stroke="#34D3C0" stroke-width="1.2" opacity="0.07"/><line x1="665" y1="336" x2="778" y2="343" stroke="#34D3C0" stroke-width="1.2" opacity="0.07"/><line x1="1076" y1="67" x2="1174" y2="61" stroke="#34D3C0" stroke-width="1.2" opacity="0.07"/><line x1="1034" y1="355" x2="1142" y2="360" stroke="#34D3C0" stroke-width="1.2" opacity="0.07"/><line x1="561" y1="342" x2="450" y2="343" stroke="#34D3C0" stroke-width="1.2" opacity="0.07"/><circle cx="501" cy="238" r="6" fill="#34D3C0" opacity="0.1"/><circle cx="1130" cy="228" r="5" fill="#34D3C0" opacity="0.1"/><circle cx="683" cy="393" r="6" fill="#34D3C0" opacity="0.1"/><circle cx="587" cy="165" r="5" fill="#34D3C0" opacity="0.1"/><circle cx="654" cy="456" r="5" fill="#34D3C0" opacity="0.1"/><circle cx="1127" cy="511" r="5" fill="#34D3C0" opacity="0.1"/><circle cx="200" cy="490" r="4" fill="#34D3C0" opacity="0.1"/><circle cx="754" cy="180" r="3" fill="#34D3C0" opacity="0.1"/><circle cx="1116" cy="477" r="5" fill="#34D3C0" opacity="0.1"/><circle cx="944" cy="340" r="3" fill="#34D3C0" opacity="0.1"/><circle cx="644" cy="429" r="6" fill="#34D3C0" opacity="0.1"/><circle cx="455" cy="295" r="3" fill="#34D3C0" opacity="0.1"/>
  <text x="600" y="150" text-anchor="middle" fill="#34D3C0" font-size="30" font-weight="600" font-family="'IBM Plex Sans Arabic',sans-serif">التعليم</text>
  <line x1="500" y1="180" x2="700" y2="180" stroke="#34D3C0" stroke-width="2" opacity="0.6"/>
  <text x="600" y="277" text-anchor="middle" fill="#FFFFFF" font-size="56" font-weight="800" font-family="'Changa',sans-serif">الذكاء الاصطناعي</text><text x="600" y="349" text-anchor="middle" fill="#FFFFFF" font-size="56" font-weight="800" font-family="'Changa',sans-serif">للطلاب</text>
  <text x="600" y="540" text-anchor="middle" fill="#FFFFFF" font-size="28" font-weight="600" font-family="'Changa',sans-serif" opacity="0.85">نَوَاة</text>
</svg>