<svg xmlns="http://www.w3.org/2000/svg" viewBox="0 0 1200 630" width="1200" height="630" role="img" aria-label="ريادة الأعمال">
  <defs>
    <linearGradient id="g62023" x1="0" y1="0" x2="1" y2="1">
      <stop offset="0" stop-color="#34308F"/>
      <stop offset="1" stop-color="#221E66"/>
    </linearGradient>
    <radialGradient id="g62023r" cx="0.75" cy="0.25" r="0.9">
      <stop offset="0" stop-color="#7B6FE0" stop-opacity="0.35"/>
      <stop offset="0.6" stop-color="#7B6FE0" stop-opacity="0"/>
    </radialGradient>
  </defs>
  <rect width="1200" height="630" fill="url(#g62023)"/>
  <rect width="1200" height="630" fill="url(#g62023r)"/>
  <line x1="216" y1="432" x2="125" y2="446" stroke="#7B6FE0" stroke-width="1.2" opacity="0.07"/><line x1="304" y1="213" x2="381" y2="211" stroke="#7B6FE0" stroke-width="1.2" opacity="0.07"/><line x1="821" y1="256" x2="824" y2="245" stroke="#7B6FE0" stroke-width="1.2" opacity="0.07"/><line x1="131" y1="65" x2="233" y2="51" stroke="#7B6FE0" stroke-width="1.2" opacity="0.07"/><line x1="435" y1="271" x2="327" y2="256" stroke="#7B6FE0" stroke-width="1.2" opacity="0.07"/><line x1="179" y1="389" x2="239" y2="370" stroke="#7B6FE0" stroke-width="1.2" opacity="0.07"/><line x1="173" y1="377" x2="207" y2="380" stroke="#7B6FE0" stroke-width="1.2" opacity="0.07"/><line x1="730" y1="549" x2="654" y2="567" stroke="#7B6FE0" stroke-width="1.2" opacity="0.07"/><circle cx="372" cy="568" r="4" fill="#7B6FE0" opacity="0.1"/><circle cx="899" cy="148" r="5" fill="#7B6FE0" opacity="0.1"/><circle cx="392" cy="331" r="3" fill="#7B6FE0" opacity="0.1"/><circle cx="706" cy="247" r="3" fill="#7B6FE0" opacity="0.1"/><circle cx="899" cy="137" r="3" fill="#7B6FE0" opacity="0.1"/><circle cx="561" cy="466" r="6" fill="#7B6FE0" opacity="0.1"/><circle cx="340" cy="272" r="3" fill="#7B6FE0" opacity="0.1"/><circle cx="591" cy="506" r="4" fill="#7B6FE0" opacity="0.1"/><circle cx="920" cy="206" r="5" fill="#7B6FE0" opacity="0.1"/><circle cx="480" cy="563" r="4" fill="#7B6FE0" opacity="0.1"/><circle cx="358" cy="501" r="4" fill="#7B6FE0" opacity="0.1"/><circle cx="848" cy="468" r="3" fill="#7B6FE0" opacity="0.1"/>
  <text x="600" y="150" text-anchor="middle" fill="#7B6FE0" font-size="30" font-weight="600" font-family="'IBM Plex Sans Arabic',sans-serif">ريادة الأعمال</text>
  <line x1="500" y1="180" x2="700" y2="180" stroke="#7B6FE0" stroke-width="2" opacity="0.6"/>
  <text x="600" y="315" text-anchor="middle" fill="#FFFFFF" font-size="56" font-weight="800" font-family="'Changa',sans-serif">بناء علامتك الشخصية</text>
  <text x="600" y="540" text-anchor="middle" fill="#FFFFFF" font-size="28" font-weight="600" font-family="'Changa',sans-serif" opacity="0.85">نَوَاة</text>
</svg>