<svg xmlns="http://www.w3.org/2000/svg" viewBox="0 0 1200 630" width="1200" height="630" role="img" aria-label="الأمان">
  <defs>
    <linearGradient id="g17551" x1="0" y1="0" x2="1" y2="1">
      <stop offset="0" stop-color="#221E66"/>
      <stop offset="1" stop-color="#0E8F8F"/>
    </linearGradient>
    <radialGradient id="g17551r" cx="0.75" cy="0.25" r="0.9">
      <stop offset="0" stop-color="#34D3C0" stop-opacity="0.35"/>
      <stop offset="0.6" stop-color="#34D3C0" stop-opacity="0"/>
    </radialGradient>
  </defs>
  <rect width="1200" height="630" fill="url(#g17551)"/>
  <rect width="1200" height="630" fill="url(#g17551r)"/>
  <line x1="1100" y1="72" x2="1030" y2="75" stroke="#34D3C0" stroke-width="1.2" opacity="0.07"/><line x1="811" y1="57" x2="776" y2="68" stroke="#34D3C0" stroke-width="1.2" opacity="0.07"/><line x1="554" y1="80" x2="604" y2="68" stroke="#34D3C0" stroke-width="1.2" opacity="0.07"/><line x1="716" y1="55" x2="703" y2="32" stroke="#34D3C0" stroke-width="1.2" opacity="0.07"/><line x1="324" y1="440" x2="224" y2="468" stroke="#34D3C0" stroke-width="1.2" opacity="0.07"/><line x1="402" y1="538" x2="519" y2="547" stroke="#34D3C0" stroke-width="1.2" opacity="0.07"/><line x1="399" y1="88" x2="358" y2="104" stroke="#34D3C0" stroke-width="1.2" opacity="0.07"/><line x1="961" y1="97" x2="957" y2="104" stroke="#34D3C0" stroke-width="1.2" opacity="0.07"/><circle cx="103" cy="188" r="5" fill="#34D3C0" opacity="0.1"/><circle cx="565" cy="554" r="6" fill="#34D3C0" opacity="0.1"/><circle cx="588" cy="416" r="6" fill="#34D3C0" opacity="0.1"/><circle cx="364" cy="99" r="6" fill="#34D3C0" opacity="0.1"/><circle cx="134" cy="245" r="6" fill="#34D3C0" opacity="0.1"/><circle cx="213" cy="247" r="4" fill="#34D3C0" opacity="0.1"/><circle cx="266" cy="351" r="5" fill="#34D3C0" opacity="0.1"/><circle cx="1009" cy="171" r="6" fill="#34D3C0" opacity="0.1"/><circle cx="562" cy="157" r="6" fill="#34D3C0" opacity="0.1"/><circle cx="511" cy="147" r="3" fill="#34D3C0" opacity="0.1"/><circle cx="677" cy="386" r="5" fill="#34D3C0" opacity="0.1"/><circle cx="574" cy="274" r="4" fill="#34D3C0" opacity="0.1"/>
  <text x="600" y="150" text-anchor="middle" fill="#34D3C0" font-size="30" font-weight="600" font-family="'IBM Plex Sans Arabic',sans-serif">الأمان</text>
  <line x1="500" y1="180" x2="700" y2="180" stroke="#34D3C0" stroke-width="2" opacity="0.6"/>
  <text x="600" y="277" text-anchor="middle" fill="#FFFFFF" font-size="56" font-weight="800" font-family="'Changa',sans-serif">خصوصيتك في عصر الذكاء</text><text x="600" y="349" text-anchor="middle" fill="#FFFFFF" font-size="56" font-weight="800" font-family="'Changa',sans-serif">الاصطناعي</text>
  <text x="600" y="540" text-anchor="middle" fill="#FFFFFF" font-size="28" font-weight="600" font-family="'Changa',sans-serif" opacity="0.85">نَوَاة</text>
</svg>