<svg xmlns="http://www.w3.org/2000/svg" viewBox="0 0 1200 630" width="1200" height="630" role="img" aria-label="تقنية">
  <defs>
    <linearGradient id="g85957" x1="0" y1="0" x2="1" y2="1">
      <stop offset="0" stop-color="#0E8F8F"/>
      <stop offset="1" stop-color="#221E66"/>
    </linearGradient>
    <radialGradient id="g85957r" cx="0.75" cy="0.25" r="0.9">
      <stop offset="0" stop-color="#34D3C0" stop-opacity="0.35"/>
      <stop offset="0.6" stop-color="#34D3C0" stop-opacity="0"/>
    </radialGradient>
  </defs>
  <rect width="1200" height="630" fill="url(#g85957)"/>
  <rect width="1200" height="630" fill="url(#g85957r)"/>
  <line x1="774" y1="214" x2="698" y2="200" stroke="#34D3C0" stroke-width="1.2" opacity="0.07"/><line x1="769" y1="213" x2="803" y2="203" stroke="#34D3C0" stroke-width="1.2" opacity="0.07"/><line x1="283" y1="491" x2="286" y2="495" stroke="#34D3C0" stroke-width="1.2" opacity="0.07"/><line x1="914" y1="522" x2="841" y2="551" stroke="#34D3C0" stroke-width="1.2" opacity="0.07"/><line x1="1046" y1="578" x2="956" y2="602" stroke="#34D3C0" stroke-width="1.2" opacity="0.07"/><line x1="881" y1="579" x2="890" y2="601" stroke="#34D3C0" stroke-width="1.2" opacity="0.07"/><line x1="865" y1="374" x2="937" y2="399" stroke="#34D3C0" stroke-width="1.2" opacity="0.07"/><line x1="1115" y1="360" x2="1185" y2="340" stroke="#34D3C0" stroke-width="1.2" opacity="0.07"/><circle cx="219" cy="196" r="4" fill="#34D3C0" opacity="0.1"/><circle cx="940" cy="510" r="3" fill="#34D3C0" opacity="0.1"/><circle cx="792" cy="545" r="3" fill="#34D3C0" opacity="0.1"/><circle cx="941" cy="209" r="6" fill="#34D3C0" opacity="0.1"/><circle cx="931" cy="483" r="3" fill="#34D3C0" opacity="0.1"/><circle cx="822" cy="169" r="3" fill="#34D3C0" opacity="0.1"/><circle cx="531" cy="310" r="3" fill="#34D3C0" opacity="0.1"/><circle cx="1061" cy="348" r="4" fill="#34D3C0" opacity="0.1"/><circle cx="168" cy="115" r="3" fill="#34D3C0" opacity="0.1"/><circle cx="979" cy="455" r="5" fill="#34D3C0" opacity="0.1"/><circle cx="353" cy="454" r="6" fill="#34D3C0" opacity="0.1"/><circle cx="608" cy="237" r="3" fill="#34D3C0" opacity="0.1"/>
  <text x="600" y="150" text-anchor="middle" fill="#34D3C0" font-size="30" font-weight="600" font-family="'IBM Plex Sans Arabic',sans-serif">تقنية</text>
  <line x1="500" y1="180" x2="700" y2="180" stroke="#34D3C0" stroke-width="2" opacity="0.6"/>
  <text x="600" y="277" text-anchor="middle" fill="#FFFFFF" font-size="56" font-weight="800" font-family="'Changa',sans-serif">الذكاء الاصطناعي</text><text x="600" y="349" text-anchor="middle" fill="#FFFFFF" font-size="56" font-weight="800" font-family="'Changa',sans-serif">المحلي</text>
  <text x="600" y="540" text-anchor="middle" fill="#FFFFFF" font-size="28" font-weight="600" font-family="'Changa',sans-serif" opacity="0.85">نَوَاة</text>
</svg>