<svg xmlns="http://www.w3.org/2000/svg" viewBox="0 0 1200 630" width="1200" height="630" role="img" aria-label="الكتابة">
  <defs>
    <linearGradient id="g90269" x1="0" y1="0" x2="1" y2="1"><stop offset="0" stop-color="#34308F"/><stop offset="1" stop-color="#221E66"/></linearGradient>
    <radialGradient id="g90269r" cx="0.75" cy="0.25" r="0.9"><stop offset="0" stop-color="#7B6FE0" stop-opacity="0.35"/><stop offset="0.6" stop-color="#7B6FE0" stop-opacity="0"/></radialGradient>
  </defs>
  <rect width="1200" height="630" fill="url(#g90269)"/><rect width="1200" height="630" fill="url(#g90269r)"/>
  <line x1="362" y1="207" x2="363" y2="219" stroke="#7B6FE0" stroke-width="1.2" opacity="0.07"/><line x1="791" y1="456" x2="420" y2="482" stroke="#7B6FE0" stroke-width="1.2" opacity="0.07"/><line x1="383" y1="161" x2="892" y2="172" stroke="#7B6FE0" stroke-width="1.2" opacity="0.07"/><line x1="1066" y1="224" x2="642" y2="200" stroke="#7B6FE0" stroke-width="1.2" opacity="0.07"/><line x1="404" y1="313" x2="660" y2="317" stroke="#7B6FE0" stroke-width="1.2" opacity="0.07"/><line x1="916" y1="522" x2="947" y2="539" stroke="#7B6FE0" stroke-width="1.2" opacity="0.07"/><line x1="202" y1="578" x2="667" y2="599" stroke="#7B6FE0" stroke-width="1.2" opacity="0.07"/><line x1="283" y1="269" x2="790" y2="282" stroke="#7B6FE0" stroke-width="1.2" opacity="0.07"/><circle cx="637" cy="474" r="3" fill="#7B6FE0" opacity="0.1"/><circle cx="128" cy="559" r="5" fill="#7B6FE0" opacity="0.1"/><circle cx="92" cy="115" r="5" fill="#7B6FE0" opacity="0.1"/><circle cx="1018" cy="379" r="4" fill="#7B6FE0" opacity="0.1"/><circle cx="562" cy="141" r="5" fill="#7B6FE0" opacity="0.1"/><circle cx="904" cy="258" r="5" fill="#7B6FE0" opacity="0.1"/><circle cx="636" cy="501" r="4" fill="#7B6FE0" opacity="0.1"/><circle cx="224" cy="315" r="3" fill="#7B6FE0" opacity="0.1"/><circle cx="741" cy="540" r="3" fill="#7B6FE0" opacity="0.1"/><circle cx="370" cy="455" r="5" fill="#7B6FE0" opacity="0.1"/><circle cx="909" cy="431" r="5" fill="#7B6FE0" opacity="0.1"/><circle cx="795" cy="168" r="3" fill="#7B6FE0" opacity="0.1"/>
  <text x="600" y="150" text-anchor="middle" fill="#7B6FE0" font-size="30" font-weight="600" font-family="'IBM Plex Sans Arabic',sans-serif">الكتابة</text>
  <line x1="500" y1="180" x2="700" y2="180" stroke="#7B6FE0" stroke-width="2" opacity="0.6"/>
  <text x="600" y="277" text-anchor="middle" fill="#FFFFFF" font-size="56" font-weight="800" font-family="'Changa',sans-serif">الكتابة الإبداعية</text><text x="600" y="349" text-anchor="middle" fill="#FFFFFF" font-size="56" font-weight="800" font-family="'Changa',sans-serif">بالذكاء الاصطناعي</text>
  <text x="600" y="540" text-anchor="middle" fill="#FFFFFF" font-size="28" font-weight="600" font-family="'Changa',sans-serif" opacity="0.85">نَوَاة</text>
</svg>