<svg xmlns="http://www.w3.org/2000/svg" viewBox="0 0 1200 630" width="1200" height="630" role="img" aria-label="Gemini">
  <defs>
    <linearGradient id="g96013" x1="0" y1="0" x2="1" y2="1">
      <stop offset="0" stop-color="#34308F"/>
      <stop offset="1" stop-color="#0E8F8F"/>
    </linearGradient>
    <radialGradient id="g96013r" cx="0.75" cy="0.25" r="0.9">
      <stop offset="0" stop-color="#7B6FE0" stop-opacity="0.35"/>
      <stop offset="0.6" stop-color="#7B6FE0" stop-opacity="0"/>
    </radialGradient>
  </defs>
  <rect width="1200" height="630" fill="url(#g96013)"/>
  <rect width="1200" height="630" fill="url(#g96013r)"/>
  <line x1="1081" y1="458" x2="1064" y2="286" stroke="#7B6FE0" stroke-width="1.2" opacity="0.18"/><line x1="1081" y1="458" x2="818" y2="552" stroke="#7B6FE0" stroke-width="1.2" opacity="0.1"/><line x1="688" y1="494" x2="818" y2="552" stroke="#7B6FE0" stroke-width="1.2" opacity="0.21"/><line x1="688" y1="494" x2="704" y2="465" stroke="#7B6FE0" stroke-width="1.2" opacity="0.29"/><line x1="688" y1="494" x2="721" y2="359" stroke="#7B6FE0" stroke-width="1.2" opacity="0.21"/><line x1="127" y1="548" x2="110" y2="407" stroke="#7B6FE0" stroke-width="1.2" opacity="0.21"/><line x1="818" y1="552" x2="704" y2="465" stroke="#7B6FE0" stroke-width="1.2" opacity="0.21"/><line x1="818" y1="552" x2="721" y2="359" stroke="#7B6FE0" stroke-width="1.2" opacity="0.15"/><line x1="373" y1="204" x2="156" y2="141" stroke="#7B6FE0" stroke-width="1.2" opacity="0.14"/><line x1="373" y1="204" x2="110" y2="407" stroke="#7B6FE0" stroke-width="1.2" opacity="0.06"/><line x1="156" y1="141" x2="110" y2="407" stroke="#7B6FE0" stroke-width="1.2" opacity="0.11"/><line x1="704" y1="465" x2="721" y2="359" stroke="#7B6FE0" stroke-width="1.2" opacity="0.23"/><line x1="768" y1="99" x2="721" y2="359" stroke="#7B6FE0" stroke-width="1.2" opacity="0.11"/><circle cx="1081" cy="458" r="2.5" fill="#7B6FE0" opacity="0.55"/><circle cx="688" cy="494" r="3" fill="#7B6FE0" opacity="0.55"/><circle cx="127" cy="548" r="4" fill="#7B6FE0" opacity="0.55"/><circle cx="1064" cy="286" r="3" fill="#7B6FE0" opacity="0.55"/><circle cx="818" cy="552" r="3" fill="#7B6FE0" opacity="0.55"/><circle cx="373" cy="204" r="4" fill="#7B6FE0" opacity="0.55"/><circle cx="156" cy="141" r="4" fill="#7B6FE0" opacity="0.55"/><circle cx="704" cy="465" r="4" fill="#7B6FE0" opacity="0.55"/><circle cx="768" cy="99" r="4" fill="#7B6FE0" opacity="0.55"/><circle cx="110" cy="407" r="3" fill="#7B6FE0" opacity="0.55"/><circle cx="721" cy="359" r="4" fill="#7B6FE0" opacity="0.55"/>
  <circle cx="1070" cy="120" r="54" fill="#FBFAF6" opacity="0.12"/>
  <text x="1070" y="120" font-size="52" text-anchor="middle" dominant-baseline="central">✦</text>
  <g font-family="'Changa','Segoe UI',sans-serif" fill="#FBFAF6">
    <rect x="64" y="480" width="14" height="86" rx="4" fill="#7B6FE0"/>
    <text x="92" y="520" font-size="30" font-weight="700" opacity="0.92">Gemini</text>
    <text x="92" y="564" font-size="22" opacity="0.6">nawahlabs.com · نَوَاة</text>
  </g>
</svg>