<svg xmlns="http://www.w3.org/2000/svg" viewBox="0 0 1200 630" width="1200" height="630" role="img" aria-label="الأعمال">
  <defs>
    <linearGradient id="g39866" x1="0" y1="0" x2="1" y2="1"><stop offset="0" stop-color="#D98E2B"/><stop offset="1" stop-color="#221E66"/></linearGradient>
    <radialGradient id="g39866r" cx="0.75" cy="0.25" r="0.9"><stop offset="0" stop-color="#FFC107" stop-opacity="0.35"/><stop offset="0.6" stop-color="#FFC107" stop-opacity="0"/></radialGradient>
  </defs>
  <rect width="1200" height="630" fill="url(#g39866)"/><rect width="1200" height="630" fill="url(#g39866r)"/>
  <line x1="1131" y1="400" x2="587" y2="399" stroke="#FFC107" stroke-width="1.2" opacity="0.07"/><line x1="88" y1="450" x2="97" y2="462" stroke="#FFC107" stroke-width="1.2" opacity="0.07"/><line x1="746" y1="271" x2="693" y2="267" stroke="#FFC107" stroke-width="1.2" opacity="0.07"/><line x1="79" y1="575" x2="291" y2="592" stroke="#FFC107" stroke-width="1.2" opacity="0.07"/><line x1="883" y1="212" x2="1058" y2="219" stroke="#FFC107" stroke-width="1.2" opacity="0.07"/><line x1="436" y1="463" x2="981" y2="479" stroke="#FFC107" stroke-width="1.2" opacity="0.07"/><line x1="916" y1="338" x2="1021" y2="341" stroke="#FFC107" stroke-width="1.2" opacity="0.07"/><line x1="683" y1="197" x2="341" y2="218" stroke="#FFC107" stroke-width="1.2" opacity="0.07"/><circle cx="75" cy="519" r="4" fill="#FFC107" opacity="0.1"/><circle cx="321" cy="122" r="5" fill="#FFC107" opacity="0.1"/><circle cx="93" cy="306" r="6" fill="#FFC107" opacity="0.1"/><circle cx="623" cy="233" r="3" fill="#FFC107" opacity="0.1"/><circle cx="738" cy="251" r="6" fill="#FFC107" opacity="0.1"/><circle cx="1004" cy="121" r="3" fill="#FFC107" opacity="0.1"/><circle cx="255" cy="485" r="6" fill="#FFC107" opacity="0.1"/><circle cx="179" cy="504" r="5" fill="#FFC107" opacity="0.1"/><circle cx="751" cy="106" r="4" fill="#FFC107" opacity="0.1"/><circle cx="863" cy="229" r="3" fill="#FFC107" opacity="0.1"/><circle cx="92" cy="286" r="3" fill="#FFC107" opacity="0.1"/><circle cx="631" cy="189" r="4" fill="#FFC107" opacity="0.1"/>
  <text x="600" y="150" text-anchor="middle" fill="#FFC107" font-size="30" font-weight="600" font-family="'IBM Plex Sans Arabic',sans-serif">الأعمال</text>
  <line x1="500" y1="180" x2="700" y2="180" stroke="#FFC107" stroke-width="2" opacity="0.6"/>
  <text x="600" y="277" text-anchor="middle" fill="#FFFFFF" font-size="56" font-weight="800" font-family="'Changa',sans-serif">الذكاء الاصطناعي في</text><text x="600" y="349" text-anchor="middle" fill="#FFFFFF" font-size="56" font-weight="800" font-family="'Changa',sans-serif">المبيعات والتفاوض</text>
  <text x="600" y="540" text-anchor="middle" fill="#FFFFFF" font-size="28" font-weight="600" font-family="'Changa',sans-serif" opacity="0.85">نَوَاة</text>
</svg>