<svg xmlns="http://www.w3.org/2000/svg" viewBox="0 0 1200 630" width="1200" height="630" role="img" aria-label="تقنية">
  <defs>
    <linearGradient id="g61916" x1="0" y1="0" x2="1" y2="1"><stop offset="0" stop-color="#221E66"/><stop offset="1" stop-color="#0E8F8F"/></linearGradient>
    <radialGradient id="g61916r" cx="0.75" cy="0.25" r="0.9"><stop offset="0" stop-color="#34D3C0" stop-opacity="0.35"/><stop offset="0.6" stop-color="#34D3C0" stop-opacity="0"/></radialGradient>
  </defs>
  <rect width="1200" height="630" fill="url(#g61916)"/><rect width="1200" height="630" fill="url(#g61916r)"/>
  <line x1="222" y1="108" x2="553" y2="111" stroke="#34D3C0" stroke-width="1.2" opacity="0.07"/><line x1="574" y1="484" x2="552" y2="513" stroke="#34D3C0" stroke-width="1.2" opacity="0.07"/><line x1="168" y1="277" x2="158" y2="248" stroke="#34D3C0" stroke-width="1.2" opacity="0.07"/><line x1="203" y1="255" x2="899" y2="263" stroke="#34D3C0" stroke-width="1.2" opacity="0.07"/><line x1="1048" y1="460" x2="153" y2="467" stroke="#34D3C0" stroke-width="1.2" opacity="0.07"/><line x1="910" y1="466" x2="519" y2="465" stroke="#34D3C0" stroke-width="1.2" opacity="0.07"/><line x1="291" y1="440" x2="365" y2="459" stroke="#34D3C0" stroke-width="1.2" opacity="0.07"/><line x1="458" y1="306" x2="399" y2="333" stroke="#34D3C0" stroke-width="1.2" opacity="0.07"/><circle cx="771" cy="491" r="4" fill="#34D3C0" opacity="0.1"/><circle cx="413" cy="93" r="4" fill="#34D3C0" opacity="0.1"/><circle cx="339" cy="301" r="3" fill="#34D3C0" opacity="0.1"/><circle cx="433" cy="497" r="5" fill="#34D3C0" opacity="0.1"/><circle cx="841" cy="485" r="4" fill="#34D3C0" opacity="0.1"/><circle cx="796" cy="529" r="4" fill="#34D3C0" opacity="0.1"/><circle cx="621" cy="371" r="6" fill="#34D3C0" opacity="0.1"/><circle cx="368" cy="393" r="4" fill="#34D3C0" opacity="0.1"/><circle cx="103" cy="549" r="4" fill="#34D3C0" opacity="0.1"/><circle cx="1021" cy="546" r="4" fill="#34D3C0" opacity="0.1"/><circle cx="972" cy="425" r="3" fill="#34D3C0" opacity="0.1"/><circle cx="440" cy="257" r="4" fill="#34D3C0" opacity="0.1"/>
  <text x="600" y="150" text-anchor="middle" fill="#34D3C0" font-size="30" font-weight="600" font-family="'IBM Plex Sans Arabic',sans-serif">تقنية</text>
  <line x1="500" y1="180" x2="700" y2="180" stroke="#34D3C0" stroke-width="2" opacity="0.6"/>
  <text x="600" y="315" text-anchor="middle" fill="#FFFFFF" font-size="56" font-weight="800" font-family="'Changa',sans-serif">RAG وقواعد المعرفة</text>
  <text x="600" y="540" text-anchor="middle" fill="#FFFFFF" font-size="28" font-weight="600" font-family="'Changa',sans-serif" opacity="0.85">نَوَاة</text>
</svg>