<svg xmlns="http://www.w3.org/2000/svg" viewBox="0 0 1200 630" width="1200" height="630" role="img" aria-label="التسويق">
  <defs>
    <linearGradient id="g39978" x1="0" y1="0" x2="1" y2="1"><stop offset="0" stop-color="#34308F"/><stop offset="1" stop-color="#221E66"/></linearGradient>
    <radialGradient id="g39978r" cx="0.75" cy="0.25" r="0.9"><stop offset="0" stop-color="#7B6FE0" stop-opacity="0.35"/><stop offset="0.6" stop-color="#7B6FE0" stop-opacity="0"/></radialGradient>
  </defs>
  <rect width="1200" height="630" fill="url(#g39978)"/><rect width="1200" height="630" fill="url(#g39978r)"/>
  <line x1="536" y1="353" x2="776" y2="331" stroke="#7B6FE0" stroke-width="1.2" opacity="0.07"/><line x1="148" y1="220" x2="86" y2="246" stroke="#7B6FE0" stroke-width="1.2" opacity="0.07"/><line x1="944" y1="434" x2="180" y2="459" stroke="#7B6FE0" stroke-width="1.2" opacity="0.07"/><line x1="580" y1="117" x2="929" y2="127" stroke="#7B6FE0" stroke-width="1.2" opacity="0.07"/><line x1="916" y1="427" x2="609" y2="402" stroke="#7B6FE0" stroke-width="1.2" opacity="0.07"/><line x1="555" y1="64" x2="1104" y2="51" stroke="#7B6FE0" stroke-width="1.2" opacity="0.07"/><line x1="607" y1="459" x2="215" y2="486" stroke="#7B6FE0" stroke-width="1.2" opacity="0.07"/><line x1="600" y1="475" x2="789" y2="497" stroke="#7B6FE0" stroke-width="1.2" opacity="0.07"/><circle cx="620" cy="463" r="5" fill="#7B6FE0" opacity="0.1"/><circle cx="778" cy="552" r="3" fill="#7B6FE0" opacity="0.1"/><circle cx="808" cy="229" r="3" fill="#7B6FE0" opacity="0.1"/><circle cx="125" cy="427" r="4" fill="#7B6FE0" opacity="0.1"/><circle cx="668" cy="212" r="3" fill="#7B6FE0" opacity="0.1"/><circle cx="956" cy="109" r="5" fill="#7B6FE0" opacity="0.1"/><circle cx="334" cy="247" r="4" fill="#7B6FE0" opacity="0.1"/><circle cx="322" cy="67" r="6" fill="#7B6FE0" opacity="0.1"/><circle cx="712" cy="544" r="3" fill="#7B6FE0" opacity="0.1"/><circle cx="725" cy="330" r="5" fill="#7B6FE0" opacity="0.1"/><circle cx="110" cy="64" r="5" fill="#7B6FE0" opacity="0.1"/><circle cx="167" cy="334" r="5" fill="#7B6FE0" opacity="0.1"/>
  <text x="600" y="150" text-anchor="middle" fill="#7B6FE0" font-size="30" font-weight="600" font-family="'IBM Plex Sans Arabic',sans-serif">التسويق</text>
  <line x1="500" y1="180" x2="700" y2="180" stroke="#7B6FE0" stroke-width="2" opacity="0.6"/>
  <text x="600" y="277" text-anchor="middle" fill="#FFFFFF" font-size="56" font-weight="800" font-family="'Changa',sans-serif">إدارة وسائل التواصل</text><text x="600" y="349" text-anchor="middle" fill="#FFFFFF" font-size="56" font-weight="800" font-family="'Changa',sans-serif">بالذكاء الاصطناعي</text>
  <text x="600" y="540" text-anchor="middle" fill="#FFFFFF" font-size="28" font-weight="600" font-family="'Changa',sans-serif" opacity="0.85">نَوَاة</text>
</svg>