<svg xmlns="http://www.w3.org/2000/svg" viewBox="0 0 1200 630" width="1200" height="630" role="img" aria-label="أدوات">
  <defs><linearGradient id="g73548" x1="0" y1="0" x2="1" y2="1"><stop offset="0" stop-color="#0E8F8F"/><stop offset="1" stop-color="#221E66"/></linearGradient>
  <radialGradient id="g73548r" cx="0.75" cy="0.25" r="0.9"><stop offset="0" stop-color="#34D3C0" stop-opacity="0.35"/><stop offset="0.6" stop-color="#34D3C0" stop-opacity="0"/></radialGradient></defs>
  <rect width="1200" height="630" fill="url(#g73548)"/><rect width="1200" height="630" fill="url(#g73548r)"/>
  <line x1="401" y1="135" x2="234" y2="148" stroke="#34D3C0" stroke-width="1.2" opacity="0.07"/><line x1="942" y1="454" x2="1061" y2="439" stroke="#34D3C0" stroke-width="1.2" opacity="0.07"/><line x1="711" y1="176" x2="1045" y2="152" stroke="#34D3C0" stroke-width="1.2" opacity="0.07"/><line x1="1143" y1="81" x2="986" y2="85" stroke="#34D3C0" stroke-width="1.2" opacity="0.07"/><line x1="571" y1="431" x2="95" y2="435" stroke="#34D3C0" stroke-width="1.2" opacity="0.07"/><line x1="931" y1="106" x2="793" y2="95" stroke="#34D3C0" stroke-width="1.2" opacity="0.07"/><line x1="620" y1="225" x2="1014" y2="252" stroke="#34D3C0" stroke-width="1.2" opacity="0.07"/><line x1="730" y1="301" x2="644" y2="300" stroke="#34D3C0" stroke-width="1.2" opacity="0.07"/><circle cx="562" cy="112" r="3" fill="#34D3C0" opacity="0.1"/><circle cx="748" cy="471" r="4" fill="#34D3C0" opacity="0.1"/><circle cx="301" cy="464" r="4" fill="#34D3C0" opacity="0.1"/><circle cx="758" cy="458" r="6" fill="#34D3C0" opacity="0.1"/><circle cx="919" cy="392" r="6" fill="#34D3C0" opacity="0.1"/><circle cx="682" cy="204" r="5" fill="#34D3C0" opacity="0.1"/><circle cx="755" cy="173" r="6" fill="#34D3C0" opacity="0.1"/><circle cx="483" cy="71" r="5" fill="#34D3C0" opacity="0.1"/><circle cx="101" cy="174" r="4" fill="#34D3C0" opacity="0.1"/><circle cx="254" cy="187" r="5" fill="#34D3C0" opacity="0.1"/><circle cx="1053" cy="79" r="6" fill="#34D3C0" opacity="0.1"/><circle cx="680" cy="166" r="3" fill="#34D3C0" opacity="0.1"/>
  <text x="600" y="150" text-anchor="middle" fill="#34D3C0" font-size="30" font-weight="600" font-family="'IBM Plex Sans Arabic',sans-serif">أدوات</text>
  <line x1="500" y1="180" x2="700" y2="180" stroke="#34D3C0" stroke-width="2" opacity="0.6"/>
  <text x="600" y="277" text-anchor="middle" fill="#FFFFFF" font-size="56" font-weight="800" font-family="'Changa',sans-serif">10 أدوات ذكاء اصطناعي</text><text x="600" y="349" text-anchor="middle" fill="#FFFFFF" font-size="56" font-weight="800" font-family="'Changa',sans-serif">مجانية</text>
  <text x="600" y="540" text-anchor="middle" fill="#FFFFFF" font-size="28" font-weight="600" font-family="'Changa',sans-serif" opacity="0.85">نَوَاة</text>
</svg>