<svg xmlns="http://www.w3.org/2000/svg" viewBox="0 0 1200 630" width="1200" height="630" role="img" aria-label="مستقبل العمل">
  <defs><linearGradient id="g60868" x1="0" y1="0" x2="1" y2="1"><stop offset="0" stop-color="#34308F"/><stop offset="1" stop-color="#221E66"/></linearGradient>
  <radialGradient id="g60868r" cx="0.75" cy="0.25" r="0.9"><stop offset="0" stop-color="#7B6FE0" stop-opacity="0.35"/><stop offset="0.6" stop-color="#7B6FE0" stop-opacity="0"/></radialGradient></defs>
  <rect width="1200" height="630" fill="url(#g60868)"/><rect width="1200" height="630" fill="url(#g60868r)"/>
  <line x1="107" y1="385" x2="889" y2="406" stroke="#7B6FE0" stroke-width="1.2" opacity="0.07"/><line x1="102" y1="138" x2="1119" y2="117" stroke="#7B6FE0" stroke-width="1.2" opacity="0.07"/><line x1="301" y1="300" x2="1141" y2="315" stroke="#7B6FE0" stroke-width="1.2" opacity="0.07"/><line x1="1066" y1="355" x2="304" y2="338" stroke="#7B6FE0" stroke-width="1.2" opacity="0.07"/><line x1="581" y1="233" x2="131" y2="235" stroke="#7B6FE0" stroke-width="1.2" opacity="0.07"/><line x1="332" y1="382" x2="234" y2="354" stroke="#7B6FE0" stroke-width="1.2" opacity="0.07"/><line x1="936" y1="404" x2="348" y2="402" stroke="#7B6FE0" stroke-width="1.2" opacity="0.07"/><line x1="131" y1="339" x2="458" y2="368" stroke="#7B6FE0" stroke-width="1.2" opacity="0.07"/><circle cx="210" cy="246" r="4" fill="#7B6FE0" opacity="0.1"/><circle cx="158" cy="220" r="3" fill="#7B6FE0" opacity="0.1"/><circle cx="866" cy="262" r="4" fill="#7B6FE0" opacity="0.1"/><circle cx="956" cy="356" r="5" fill="#7B6FE0" opacity="0.1"/><circle cx="266" cy="528" r="6" fill="#7B6FE0" opacity="0.1"/><circle cx="137" cy="71" r="6" fill="#7B6FE0" opacity="0.1"/><circle cx="448" cy="108" r="5" fill="#7B6FE0" opacity="0.1"/><circle cx="485" cy="131" r="3" fill="#7B6FE0" opacity="0.1"/><circle cx="995" cy="292" r="3" fill="#7B6FE0" opacity="0.1"/><circle cx="1137" cy="207" r="4" fill="#7B6FE0" opacity="0.1"/><circle cx="1020" cy="557" r="4" fill="#7B6FE0" opacity="0.1"/><circle cx="402" cy="356" r="5" fill="#7B6FE0" opacity="0.1"/>
  <text x="600" y="150" text-anchor="middle" fill="#7B6FE0" font-size="30" font-weight="600" font-family="'IBM Plex Sans Arabic',sans-serif">مستقبل العمل</text>
  <line x1="500" y1="180" x2="700" y2="180" stroke="#7B6FE0" stroke-width="2" opacity="0.6"/>
  <text x="600" y="277" text-anchor="middle" fill="#FFFFFF" font-size="56" font-weight="800" font-family="'Changa',sans-serif">7 وظائف سيغيّرها</text><text x="600" y="349" text-anchor="middle" fill="#FFFFFF" font-size="56" font-weight="800" font-family="'Changa',sans-serif">الذكاء الاصطناعي</text>
  <text x="600" y="540" text-anchor="middle" fill="#FFFFFF" font-size="28" font-weight="600" font-family="'Changa',sans-serif" opacity="0.85">نَوَاة</text>
</svg>