<svg xmlns="http://www.w3.org/2000/svg" viewBox="0 0 1200 630" width="1200" height="630" role="img" aria-label="الربح">
  <defs><linearGradient id="g53703" x1="0" y1="0" x2="1" y2="1"><stop offset="0" stop-color="#D98E2B"/><stop offset="1" stop-color="#221E66"/></linearGradient>
  <radialGradient id="g53703r" cx="0.75" cy="0.25" r="0.9"><stop offset="0" stop-color="#FFC107" stop-opacity="0.35"/><stop offset="0.6" stop-color="#FFC107" stop-opacity="0"/></radialGradient></defs>
  <rect width="1200" height="630" fill="url(#g53703)"/><rect width="1200" height="630" fill="url(#g53703r)"/>
  <line x1="846" y1="108" x2="772" y2="135" stroke="#FFC107" stroke-width="1.2" opacity="0.07"/><line x1="752" y1="56" x2="688" y2="46" stroke="#FFC107" stroke-width="1.2" opacity="0.07"/><line x1="641" y1="138" x2="445" y2="150" stroke="#FFC107" stroke-width="1.2" opacity="0.07"/><line x1="398" y1="486" x2="848" y2="499" stroke="#FFC107" stroke-width="1.2" opacity="0.07"/><line x1="358" y1="155" x2="941" y2="180" stroke="#FFC107" stroke-width="1.2" opacity="0.07"/><line x1="682" y1="497" x2="1102" y2="480" stroke="#FFC107" stroke-width="1.2" opacity="0.07"/><line x1="1109" y1="58" x2="589" y2="53" stroke="#FFC107" stroke-width="1.2" opacity="0.07"/><line x1="932" y1="259" x2="739" y2="281" stroke="#FFC107" stroke-width="1.2" opacity="0.07"/><circle cx="108" cy="521" r="3" fill="#FFC107" opacity="0.1"/><circle cx="410" cy="438" r="4" fill="#FFC107" opacity="0.1"/><circle cx="1087" cy="282" r="6" fill="#FFC107" opacity="0.1"/><circle cx="465" cy="491" r="5" fill="#FFC107" opacity="0.1"/><circle cx="117" cy="398" r="4" fill="#FFC107" opacity="0.1"/><circle cx="1114" cy="189" r="5" fill="#FFC107" opacity="0.1"/><circle cx="1073" cy="457" r="5" fill="#FFC107" opacity="0.1"/><circle cx="934" cy="122" r="4" fill="#FFC107" opacity="0.1"/><circle cx="1076" cy="311" r="4" fill="#FFC107" opacity="0.1"/><circle cx="77" cy="479" r="3" fill="#FFC107" opacity="0.1"/><circle cx="499" cy="323" r="3" fill="#FFC107" opacity="0.1"/><circle cx="763" cy="539" r="5" fill="#FFC107" opacity="0.1"/>
  <text x="600" y="150" text-anchor="middle" fill="#FFC107" font-size="30" font-weight="600" font-family="'IBM Plex Sans Arabic',sans-serif">الربح</text>
  <line x1="500" y1="180" x2="700" y2="180" stroke="#FFC107" stroke-width="2" opacity="0.6"/>
  <text x="600" y="277" text-anchor="middle" fill="#FFFFFF" font-size="56" font-weight="800" font-family="'Changa',sans-serif">الدخل السلبي بالذكاء</text><text x="600" y="349" text-anchor="middle" fill="#FFFFFF" font-size="56" font-weight="800" font-family="'Changa',sans-serif">الاصطناعي</text>
  <text x="600" y="540" text-anchor="middle" fill="#FFFFFF" font-size="28" font-weight="600" font-family="'Changa',sans-serif" opacity="0.85">نَوَاة</text>
</svg>