<svg xmlns="http://www.w3.org/2000/svg" viewBox="0 0 1200 630" width="1200" height="630" role="img" aria-label="الأمان">
  <defs><linearGradient id="g45868" x1="0" y1="0" x2="1" y2="1"><stop offset="0" stop-color="#221E66"/><stop offset="1" stop-color="#0E8F8F"/></linearGradient>
  <radialGradient id="g45868r" cx="0.75" cy="0.25" r="0.9"><stop offset="0" stop-color="#34D3C0" stop-opacity="0.35"/><stop offset="0.6" stop-color="#34D3C0" stop-opacity="0"/></radialGradient></defs>
  <rect width="1200" height="630" fill="url(#g45868)"/><rect width="1200" height="630" fill="url(#g45868r)"/>
  <line x1="997" y1="212" x2="50" y2="196" stroke="#34D3C0" stroke-width="1.2" opacity="0.07"/><line x1="685" y1="147" x2="551" y2="149" stroke="#34D3C0" stroke-width="1.2" opacity="0.07"/><line x1="395" y1="325" x2="856" y2="319" stroke="#34D3C0" stroke-width="1.2" opacity="0.07"/><line x1="267" y1="506" x2="585" y2="519" stroke="#34D3C0" stroke-width="1.2" opacity="0.07"/><line x1="922" y1="304" x2="597" y2="326" stroke="#34D3C0" stroke-width="1.2" opacity="0.07"/><line x1="335" y1="155" x2="990" y2="163" stroke="#34D3C0" stroke-width="1.2" opacity="0.07"/><line x1="351" y1="448" x2="653" y2="425" stroke="#34D3C0" stroke-width="1.2" opacity="0.07"/><line x1="922" y1="137" x2="273" y2="107" stroke="#34D3C0" stroke-width="1.2" opacity="0.07"/><circle cx="587" cy="380" r="6" fill="#34D3C0" opacity="0.1"/><circle cx="1089" cy="569" r="3" fill="#34D3C0" opacity="0.1"/><circle cx="738" cy="368" r="3" fill="#34D3C0" opacity="0.1"/><circle cx="1014" cy="70" r="4" fill="#34D3C0" opacity="0.1"/><circle cx="601" cy="231" r="6" fill="#34D3C0" opacity="0.1"/><circle cx="102" cy="381" r="3" fill="#34D3C0" opacity="0.1"/><circle cx="748" cy="566" r="5" fill="#34D3C0" opacity="0.1"/><circle cx="566" cy="488" r="3" fill="#34D3C0" opacity="0.1"/><circle cx="463" cy="177" r="3" fill="#34D3C0" opacity="0.1"/><circle cx="1016" cy="270" r="3" fill="#34D3C0" opacity="0.1"/><circle cx="684" cy="168" r="5" fill="#34D3C0" opacity="0.1"/><circle cx="691" cy="341" r="3" fill="#34D3C0" opacity="0.1"/>
  <text x="600" y="150" text-anchor="middle" fill="#34D3C0" font-size="30" font-weight="600" font-family="'IBM Plex Sans Arabic',sans-serif">الأمان</text>
  <line x1="500" y1="180" x2="700" y2="180" stroke="#34D3C0" stroke-width="2" opacity="0.6"/>
  <text x="600" y="277" text-anchor="middle" fill="#FFFFFF" font-size="56" font-weight="800" font-family="'Changa',sans-serif">7 أشياء لا تخبر بها</text><text x="600" y="349" text-anchor="middle" fill="#FFFFFF" font-size="56" font-weight="800" font-family="'Changa',sans-serif">ChatGPT</text>
  <text x="600" y="540" text-anchor="middle" fill="#FFFFFF" font-size="28" font-weight="600" font-family="'Changa',sans-serif" opacity="0.85">نَوَاة</text>
</svg>