<svg xmlns="http://www.w3.org/2000/svg" viewBox="0 0 1200 630" width="1200" height="630" role="img" aria-label="تقنية">
  <defs><linearGradient id="g72332" x1="0" y1="0" x2="1" y2="1"><stop offset="0" stop-color="#0E8F8F"/><stop offset="1" stop-color="#221E66"/></linearGradient>
  <radialGradient id="g72332r" cx="0.75" cy="0.25" r="0.9"><stop offset="0" stop-color="#34D3C0" stop-opacity="0.35"/><stop offset="0.6" stop-color="#34D3C0" stop-opacity="0"/></radialGradient></defs>
  <rect width="1200" height="630" fill="url(#g72332)"/><rect width="1200" height="630" fill="url(#g72332r)"/>
  <line x1="692" y1="278" x2="870" y2="253" stroke="#34D3C0" stroke-width="1.2" opacity="0.07"/><line x1="477" y1="502" x2="890" y2="480" stroke="#34D3C0" stroke-width="1.2" opacity="0.07"/><line x1="884" y1="440" x2="658" y2="470" stroke="#34D3C0" stroke-width="1.2" opacity="0.07"/><line x1="1086" y1="446" x2="540" y2="459" stroke="#34D3C0" stroke-width="1.2" opacity="0.07"/><line x1="447" y1="353" x2="613" y2="325" stroke="#34D3C0" stroke-width="1.2" opacity="0.07"/><line x1="981" y1="566" x2="215" y2="581" stroke="#34D3C0" stroke-width="1.2" opacity="0.07"/><line x1="238" y1="553" x2="840" y2="559" stroke="#34D3C0" stroke-width="1.2" opacity="0.07"/><line x1="751" y1="267" x2="137" y2="251" stroke="#34D3C0" stroke-width="1.2" opacity="0.07"/><circle cx="621" cy="409" r="5" fill="#34D3C0" opacity="0.1"/><circle cx="772" cy="407" r="3" fill="#34D3C0" opacity="0.1"/><circle cx="70" cy="281" r="6" fill="#34D3C0" opacity="0.1"/><circle cx="679" cy="389" r="4" fill="#34D3C0" opacity="0.1"/><circle cx="585" cy="227" r="6" fill="#34D3C0" opacity="0.1"/><circle cx="260" cy="257" r="6" fill="#34D3C0" opacity="0.1"/><circle cx="675" cy="530" r="4" fill="#34D3C0" opacity="0.1"/><circle cx="825" cy="75" r="3" fill="#34D3C0" opacity="0.1"/><circle cx="980" cy="547" r="6" fill="#34D3C0" opacity="0.1"/><circle cx="1064" cy="544" r="6" fill="#34D3C0" opacity="0.1"/><circle cx="793" cy="446" r="4" fill="#34D3C0" opacity="0.1"/><circle cx="808" cy="169" r="4" fill="#34D3C0" opacity="0.1"/>
  <text x="600" y="150" text-anchor="middle" fill="#34D3C0" font-size="30" font-weight="600" font-family="'IBM Plex Sans Arabic',sans-serif">تقنية</text>
  <line x1="500" y1="180" x2="700" y2="180" stroke="#34D3C0" stroke-width="2" opacity="0.6"/>
  <text x="600" y="277" text-anchor="middle" fill="#FFFFFF" font-size="56" font-weight="800" font-family="'Changa',sans-serif">الذكاء الاصطناعي في</text><text x="600" y="349" text-anchor="middle" fill="#FFFFFF" font-size="56" font-weight="800" font-family="'Changa',sans-serif">2026</text>
  <text x="600" y="540" text-anchor="middle" fill="#FFFFFF" font-size="28" font-weight="600" font-family="'Changa',sans-serif" opacity="0.85">نَوَاة</text>
</svg>