<svg xmlns="http://www.w3.org/2000/svg" viewBox="0 0 1200 630" width="1200" height="630" role="img" aria-label="أدوات الذكاء الاصطناعي">
  <defs>
    <linearGradient id="g8641" x1="0" y1="0" x2="1" y2="1">
      <stop offset="0" stop-color="#221E66"/>
      <stop offset="1" stop-color="#0E8F8F"/>
    </linearGradient>
    <radialGradient id="g8641r" cx="0.75" cy="0.25" r="0.9">
      <stop offset="0" stop-color="#34D3C0" stop-opacity="0.35"/>
      <stop offset="0.6" stop-color="#34D3C0" stop-opacity="0"/>
    </radialGradient>
  </defs>
  <rect width="1200" height="630" fill="url(#g8641)"/>
  <rect width="1200" height="630" fill="url(#g8641r)"/>
  <line x1="550" y1="528" x2="448" y2="318" stroke="#34D3C0" stroke-width="1.2" opacity="0.13"/><line x1="550" y1="528" x2="533" y2="550" stroke="#34D3C0" stroke-width="1.2" opacity="0.3"/><line x1="550" y1="528" x2="666" y2="488" stroke="#34D3C0" stroke-width="1.2" opacity="0.22"/><line x1="550" y1="528" x2="783" y2="363" stroke="#34D3C0" stroke-width="1.2" opacity="0.09"/><line x1="550" y1="528" x2="733" y2="317" stroke="#34D3C0" stroke-width="1.2" opacity="0.1"/><line x1="448" y1="318" x2="274" y2="298" stroke="#34D3C0" stroke-width="1.2" opacity="0.18"/><line x1="448" y1="318" x2="533" y2="550" stroke="#34D3C0" stroke-width="1.2" opacity="0.12"/><line x1="448" y1="318" x2="666" y2="488" stroke="#34D3C0" stroke-width="1.2" opacity="0.1"/><line x1="448" y1="318" x2="783" y2="363" stroke="#34D3C0" stroke-width="1.2" opacity="0.05"/><line x1="448" y1="318" x2="733" y2="317" stroke="#34D3C0" stroke-width="1.2" opacity="0.09"/><line x1="976" y1="383" x2="996" y2="249" stroke="#34D3C0" stroke-width="1.2" opacity="0.21"/><line x1="976" y1="383" x2="889" y2="164" stroke="#34D3C0" stroke-width="1.2" opacity="0.13"/><line x1="976" y1="383" x2="666" y2="488" stroke="#34D3C0" stroke-width="1.2" opacity="0.06"/><line x1="976" y1="383" x2="783" y2="363" stroke="#34D3C0" stroke-width="1.2" opacity="0.17"/><line x1="976" y1="383" x2="733" y2="317" stroke="#34D3C0" stroke-width="1.2" opacity="0.12"/><line x1="976" y1="383" x2="778" y2="227" stroke="#34D3C0" stroke-width="1.2" opacity="0.12"/><line x1="996" y1="249" x2="889" y2="164" stroke="#34D3C0" stroke-width="1.2" opacity="0.21"/><line x1="996" y1="249" x2="783" y2="363" stroke="#34D3C0" stroke-width="1.2" opacity="0.13"/><line x1="996" y1="249" x2="733" y2="317" stroke="#34D3C0" stroke-width="1.2" opacity="0.1"/><line x1="996" y1="249" x2="778" y2="227" stroke="#34D3C0" stroke-width="1.2" opacity="0.15"/><line x1="533" y1="550" x2="666" y2="488" stroke="#34D3C0" stroke-width="1.2" opacity="0.2"/><line x1="533" y1="550" x2="783" y2="363" stroke="#34D3C0" stroke-width="1.2" opacity="0.07"/><line x1="533" y1="550" x2="733" y2="317" stroke="#34D3C0" stroke-width="1.2" opacity="0.08"/><line x1="889" y1="164" x2="783" y2="363" stroke="#34D3C0" stroke-width="1.2" opacity="0.14"/><line x1="889" y1="164" x2="733" y2="317" stroke="#34D3C0" stroke-width="1.2" opacity="0.15"/><line x1="889" y1="164" x2="778" y2="227" stroke="#34D3C0" stroke-width="1.2" opacity="0.22"/><line x1="666" y1="488" x2="783" y2="363" stroke="#34D3C0" stroke-width="1.2" opacity="0.18"/><line x1="666" y1="488" x2="733" y2="317" stroke="#34D3C0" stroke-width="1.2" opacity="0.17"/><line x1="666" y1="488" x2="778" y2="227" stroke="#34D3C0" stroke-width="1.2" opacity="0.09"/><line x1="783" y1="363" x2="733" y2="317" stroke="#34D3C0" stroke-width="1.2" opacity="0.27"/><line x1="783" y1="363" x2="778" y2="227" stroke="#34D3C0" stroke-width="1.2" opacity="0.21"/><line x1="733" y1="317" x2="778" y2="227" stroke="#34D3C0" stroke-width="1.2" opacity="0.24"/><circle cx="550" cy="528" r="3" fill="#34D3C0" opacity="0.55"/><circle cx="448" cy="318" r="4" fill="#34D3C0" opacity="0.55"/><circle cx="274" cy="298" r="3" fill="#34D3C0" opacity="0.55"/><circle cx="976" cy="383" r="4" fill="#34D3C0" opacity="0.55"/><circle cx="996" cy="249" r="3" fill="#34D3C0" opacity="0.55"/><circle cx="533" cy="550" r="2.5" fill="#34D3C0" opacity="0.55"/><circle cx="889" cy="164" r="2.5" fill="#34D3C0" opacity="0.55"/><circle cx="666" cy="488" r="3" fill="#34D3C0" opacity="0.55"/><circle cx="783" cy="363" r="2.5" fill="#34D3C0" opacity="0.55"/><circle cx="733" cy="317" r="2.5" fill="#34D3C0" opacity="0.55"/><circle cx="778" cy="227" r="3" fill="#34D3C0" opacity="0.55"/>
  <circle cx="1070" cy="120" r="54" fill="#FBFAF6" opacity="0.12"/>
  <text x="1070" y="120" font-size="52" text-anchor="middle" dominant-baseline="central">⚙</text>
  <g font-family="'Changa','Segoe UI',sans-serif" fill="#FBFAF6">
    <rect x="64" y="480" width="14" height="86" rx="4" fill="#34D3C0"/>
    <text x="92" y="520" font-size="30" font-weight="700" opacity="0.92">أدوات الذكاء الاصطناعي</text>
    <text x="92" y="564" font-size="22" opacity="0.6">nawahlabs.com · نَوَاة</text>
  </g>
</svg>