<svg xmlns="http://www.w3.org/2000/svg" viewBox="0 0 1200 630" width="1200" height="630" role="img" aria-label="الربح من الذكاء الاصطناعي">
  <defs>
    <linearGradient id="g86867" x1="0" y1="0" x2="1" y2="1">
      <stop offset="0" stop-color="#0E8F8F"/>
      <stop offset="1" stop-color="#221E66"/>
    </linearGradient>
    <radialGradient id="g86867r" cx="0.75" cy="0.25" r="0.9">
      <stop offset="0" stop-color="#D98E2B" stop-opacity="0.35"/>
      <stop offset="0.6" stop-color="#D98E2B" stop-opacity="0"/>
    </radialGradient>
  </defs>
  <rect width="1200" height="630" fill="url(#g86867)"/>
  <rect width="1200" height="630" fill="url(#g86867r)"/>
  <line x1="516" y1="183" x2="582" y2="75" stroke="#D98E2B" stroke-width="1.2" opacity="0.22"/><line x1="516" y1="183" x2="706" y2="360" stroke="#D98E2B" stroke-width="1.2" opacity="0.11"/><line x1="516" y1="183" x2="708" y2="455" stroke="#D98E2B" stroke-width="1.2" opacity="0.06"/><line x1="516" y1="183" x2="572" y2="348" stroke="#D98E2B" stroke-width="1.2" opacity="0.18"/><line x1="582" y1="75" x2="706" y2="360" stroke="#D98E2B" stroke-width="1.2" opacity="0.07"/><line x1="582" y1="75" x2="867" y2="66" stroke="#D98E2B" stroke-width="1.2" opacity="0.09"/><line x1="582" y1="75" x2="572" y2="348" stroke="#D98E2B" stroke-width="1.2" opacity="0.1"/><line x1="706" y1="360" x2="867" y2="66" stroke="#D98E2B" stroke-width="1.2" opacity="0.05"/><line x1="706" y1="360" x2="708" y2="455" stroke="#D98E2B" stroke-width="1.2" opacity="0.24"/><line x1="706" y1="360" x2="572" y2="348" stroke="#D98E2B" stroke-width="1.2" opacity="0.21"/><line x1="706" y1="360" x2="918" y2="525" stroke="#D98E2B" stroke-width="1.2" opacity="0.11"/><line x1="708" y1="455" x2="572" y2="348" stroke="#D98E2B" stroke-width="1.2" opacity="0.18"/><line x1="708" y1="455" x2="918" y2="525" stroke="#D98E2B" stroke-width="1.2" opacity="0.14"/><line x1="708" y1="455" x2="1029" y2="475" stroke="#D98E2B" stroke-width="1.2" opacity="0.06"/><line x1="100" y1="188" x2="116" y2="349" stroke="#D98E2B" stroke-width="1.2" opacity="0.19"/><line x1="100" y1="188" x2="93" y2="383" stroke="#D98E2B" stroke-width="1.2" opacity="0.17"/><line x1="116" y1="349" x2="93" y2="383" stroke="#D98E2B" stroke-width="1.2" opacity="0.29"/><line x1="918" y1="525" x2="1029" y2="475" stroke="#D98E2B" stroke-width="1.2" opacity="0.22"/><circle cx="516" cy="183" r="4" fill="#D98E2B" opacity="0.55"/><circle cx="582" cy="75" r="4" fill="#D98E2B" opacity="0.55"/><circle cx="706" cy="360" r="2.5" fill="#D98E2B" opacity="0.55"/><circle cx="867" cy="66" r="4" fill="#D98E2B" opacity="0.55"/><circle cx="708" cy="455" r="3" fill="#D98E2B" opacity="0.55"/><circle cx="100" cy="188" r="3" fill="#D98E2B" opacity="0.55"/><circle cx="116" cy="349" r="4" fill="#D98E2B" opacity="0.55"/><circle cx="572" cy="348" r="3" fill="#D98E2B" opacity="0.55"/><circle cx="93" cy="383" r="3" fill="#D98E2B" opacity="0.55"/><circle cx="918" cy="525" r="3" fill="#D98E2B" opacity="0.55"/><circle cx="1029" cy="475" r="4" fill="#D98E2B" opacity="0.55"/>
  <circle cx="1070" cy="120" r="54" fill="#FBFAF6" opacity="0.12"/>
  <text x="1070" y="120" font-size="52" text-anchor="middle" dominant-baseline="central">📈</text>
  <g font-family="'Changa','Segoe UI',sans-serif" fill="#FBFAF6">
    <rect x="64" y="480" width="14" height="86" rx="4" fill="#D98E2B"/>
    <text x="92" y="520" font-size="30" font-weight="700" opacity="0.92">الربح من الذكاء الاصطناعي</text>
    <text x="92" y="564" font-size="22" opacity="0.6">nawahlabs.com · نَوَاة</text>
  </g>
</svg>