<svg xmlns="http://www.w3.org/2000/svg" viewBox="0 0 1200 630" width="1200" height="630" role="img" aria-label="تعلم الذكاء الاصطناعي">
  <defs>
    <linearGradient id="g88783" x1="0" y1="0" x2="1" y2="1">
      <stop offset="0" stop-color="#34308F"/>
      <stop offset="1" stop-color="#221E66"/>
    </linearGradient>
    <radialGradient id="g88783r" cx="0.75" cy="0.25" r="0.9">
      <stop offset="0" stop-color="#7B6FE0" stop-opacity="0.35"/>
      <stop offset="0.6" stop-color="#7B6FE0" stop-opacity="0"/>
    </radialGradient>
  </defs>
  <rect width="1200" height="630" fill="url(#g88783)"/>
  <rect width="1200" height="630" fill="url(#g88783r)"/>
  <line x1="461" y1="359" x2="200" y2="442" stroke="#7B6FE0" stroke-width="1.2" opacity="0.1"/><line x1="461" y1="359" x2="484" y2="460" stroke="#7B6FE0" stroke-width="1.2" opacity="0.24"/><line x1="461" y1="359" x2="424" y2="161" stroke="#7B6FE0" stroke-width="1.2" opacity="0.16"/><line x1="461" y1="359" x2="564" y2="521" stroke="#7B6FE0" stroke-width="1.2" opacity="0.17"/><line x1="461" y1="359" x2="464" y2="297" stroke="#7B6FE0" stroke-width="1.2" opacity="0.27"/><line x1="461" y1="359" x2="332" y2="317" stroke="#7B6FE0" stroke-width="1.2" opacity="0.21"/><line x1="200" y1="442" x2="484" y2="460" stroke="#7B6FE0" stroke-width="1.2" opacity="0.09"/><line x1="200" y1="442" x2="464" y2="297" stroke="#7B6FE0" stroke-width="1.2" opacity="0.08"/><line x1="200" y1="442" x2="332" y2="317" stroke="#7B6FE0" stroke-width="1.2" opacity="0.18"/><line x1="200" y1="442" x2="100" y2="304" stroke="#7B6FE0" stroke-width="1.2" opacity="0.18"/><line x1="929" y1="178" x2="1082" y2="415" stroke="#7B6FE0" stroke-width="1.2" opacity="0.1"/><line x1="929" y1="178" x2="949" y2="61" stroke="#7B6FE0" stroke-width="1.2" opacity="0.23"/><line x1="484" y1="460" x2="424" y2="161" stroke="#7B6FE0" stroke-width="1.2" opacity="0.08"/><line x1="484" y1="460" x2="564" y2="521" stroke="#7B6FE0" stroke-width="1.2" opacity="0.24"/><line x1="484" y1="460" x2="464" y2="297" stroke="#7B6FE0" stroke-width="1.2" opacity="0.19"/><line x1="484" y1="460" x2="332" y2="317" stroke="#7B6FE0" stroke-width="1.2" opacity="0.15"/><line x1="424" y1="161" x2="464" y2="297" stroke="#7B6FE0" stroke-width="1.2" opacity="0.21"/><line x1="424" y1="161" x2="332" y2="317" stroke="#7B6FE0" stroke-width="1.2" opacity="0.18"/><line x1="564" y1="521" x2="464" y2="297" stroke="#7B6FE0" stroke-width="1.2" opacity="0.13"/><line x1="564" y1="521" x2="332" y2="317" stroke="#7B6FE0" stroke-width="1.2" opacity="0.07"/><line x1="464" y1="297" x2="332" y2="317" stroke="#7B6FE0" stroke-width="1.2" opacity="0.21"/><line x1="332" y1="317" x2="100" y2="304" stroke="#7B6FE0" stroke-width="1.2" opacity="0.14"/><circle cx="461" cy="359" r="2.5" fill="#7B6FE0" opacity="0.55"/><circle cx="200" cy="442" r="3" fill="#7B6FE0" opacity="0.55"/><circle cx="929" cy="178" r="3" fill="#7B6FE0" opacity="0.55"/><circle cx="484" cy="460" r="4" fill="#7B6FE0" opacity="0.55"/><circle cx="424" cy="161" r="2.5" fill="#7B6FE0" opacity="0.55"/><circle cx="1082" cy="415" r="2.5" fill="#7B6FE0" opacity="0.55"/><circle cx="564" cy="521" r="3" fill="#7B6FE0" opacity="0.55"/><circle cx="949" cy="61" r="3" fill="#7B6FE0" opacity="0.55"/><circle cx="464" cy="297" r="3" fill="#7B6FE0" opacity="0.55"/><circle cx="332" cy="317" r="2.5" fill="#7B6FE0" opacity="0.55"/><circle cx="100" cy="304" r="2.5" fill="#7B6FE0" opacity="0.55"/>
  <circle cx="1070" cy="120" r="54" fill="#FBFAF6" opacity="0.12"/>
  <text x="1070" y="120" font-size="52" text-anchor="middle" dominant-baseline="central">🎓</text>
  <g font-family="'Changa','Segoe UI',sans-serif" fill="#FBFAF6">
    <rect x="64" y="480" width="14" height="86" rx="4" fill="#7B6FE0"/>
    <text x="92" y="520" font-size="30" font-weight="700" opacity="0.92">تعلم الذكاء الاصطناعي</text>
    <text x="92" y="564" font-size="22" opacity="0.6">nawahlabs.com · نَوَاة</text>
  </g>
</svg>