<svg xmlns="http://www.w3.org/2000/svg" viewBox="0 0 1200 630" width="1200" height="630" role="img" aria-label="أدوات الذكاء الاصطناعي">
  <defs>
    <linearGradient id="g45303" x1="0" y1="0" x2="1" y2="1">
      <stop offset="0" stop-color="#221E66"/>
      <stop offset="1" stop-color="#0E8F8F"/>
    </linearGradient>
    <radialGradient id="g45303r" cx="0.75" cy="0.25" r="0.9">
      <stop offset="0" stop-color="#34D3C0" stop-opacity="0.35"/>
      <stop offset="0.6" stop-color="#34D3C0" stop-opacity="0"/>
    </radialGradient>
  </defs>
  <rect width="1200" height="630" fill="url(#g45303)"/>
  <rect width="1200" height="630" fill="url(#g45303r)"/>
  <line x1="584" y1="336" x2="313" y2="322" stroke="#34D3C0" stroke-width="1.2" opacity="0.1"/><line x1="584" y1="336" x2="756" y2="150" stroke="#34D3C0" stroke-width="1.2" opacity="0.12"/><line x1="584" y1="336" x2="458" y2="309" stroke="#34D3C0" stroke-width="1.2" opacity="0.22"/><line x1="584" y1="336" x2="884" y2="381" stroke="#34D3C0" stroke-width="1.2" opacity="0.08"/><line x1="584" y1="336" x2="699" y2="107" stroke="#34D3C0" stroke-width="1.2" opacity="0.12"/><line x1="1108" y1="276" x2="1043" y2="512" stroke="#34D3C0" stroke-width="1.2" opacity="0.13"/><line x1="1108" y1="276" x2="929" y2="383" stroke="#34D3C0" stroke-width="1.2" opacity="0.15"/><line x1="1108" y1="276" x2="884" y2="381" stroke="#34D3C0" stroke-width="1.2" opacity="0.12"/><line x1="147" y1="541" x2="313" y2="322" stroke="#34D3C0" stroke-width="1.2" opacity="0.1"/><line x1="1043" y1="512" x2="929" y2="383" stroke="#34D3C0" stroke-width="1.2" opacity="0.18"/><line x1="1043" y1="512" x2="884" y2="381" stroke="#34D3C0" stroke-width="1.2" opacity="0.16"/><line x1="313" y1="322" x2="458" y2="309" stroke="#34D3C0" stroke-width="1.2" opacity="0.2"/><line x1="313" y1="322" x2="111" y2="115" stroke="#34D3C0" stroke-width="1.2" opacity="0.09"/><line x1="756" y1="150" x2="458" y2="309" stroke="#34D3C0" stroke-width="1.2" opacity="0.05"/><line x1="756" y1="150" x2="929" y2="383" stroke="#34D3C0" stroke-width="1.2" opacity="0.09"/><line x1="756" y1="150" x2="884" y2="381" stroke="#34D3C0" stroke-width="1.2" opacity="0.11"/><line x1="756" y1="150" x2="699" y2="107" stroke="#34D3C0" stroke-width="1.2" opacity="0.26"/><line x1="458" y1="309" x2="699" y2="107" stroke="#34D3C0" stroke-width="1.2" opacity="0.07"/><line x1="929" y1="383" x2="884" y2="381" stroke="#34D3C0" stroke-width="1.2" opacity="0.28"/><line x1="884" y1="381" x2="699" y2="107" stroke="#34D3C0" stroke-width="1.2" opacity="0.06"/><circle cx="584" cy="336" r="2.5" fill="#34D3C0" opacity="0.55"/><circle cx="1108" cy="276" r="2.5" fill="#34D3C0" opacity="0.55"/><circle cx="147" cy="541" r="4" fill="#34D3C0" opacity="0.55"/><circle cx="1043" cy="512" r="2.5" fill="#34D3C0" opacity="0.55"/><circle cx="313" cy="322" r="4" fill="#34D3C0" opacity="0.55"/><circle cx="756" cy="150" r="2.5" fill="#34D3C0" opacity="0.55"/><circle cx="458" cy="309" r="4" fill="#34D3C0" opacity="0.55"/><circle cx="929" cy="383" r="4" fill="#34D3C0" opacity="0.55"/><circle cx="111" cy="115" r="4" fill="#34D3C0" opacity="0.55"/><circle cx="884" cy="381" r="3" fill="#34D3C0" opacity="0.55"/><circle cx="699" cy="107" r="2.5" fill="#34D3C0" opacity="0.55"/>
  <circle cx="1070" cy="120" r="54" fill="#FBFAF6" opacity="0.12"/>
  <text x="1070" y="120" font-size="52" text-anchor="middle" dominant-baseline="central">⚙</text>
  <g font-family="'Changa','Segoe UI',sans-serif" fill="#FBFAF6">
    <rect x="64" y="480" width="14" height="86" rx="4" fill="#34D3C0"/>
    <text x="92" y="520" font-size="30" font-weight="700" opacity="0.92">أدوات الذكاء الاصطناعي</text>
    <text x="92" y="564" font-size="22" opacity="0.6">nawahlabs.com · نَوَاة</text>
  </g>
</svg>